<svg width="376" height="60" viewBox="0 0 376 60" fill="none" xmlns="http://www.w3.org/2000/svg">
<path d="M41.6102 4.12844V5.36433C40.7863 5.57031 39.9006 6.12646 38.953 7.03278C38.0467 7.93909 37.2022 9.40156 36.4195 11.4202L22.3921 48.1261C22.2274 48.1261 22.0626 48.1261 21.8978 48.1261C21.733 48.1261 21.5476 48.1261 21.3416 48.1261C21.1769 48.1261 21.0121 48.1261 20.8473 48.1261C20.6825 48.1261 20.5177 48.1261 20.3529 48.1261L5.02792 9.31917C4.40998 7.79491 3.73024 6.765 2.98871 6.22945C2.24717 5.6939 1.54684 5.40552 0.887695 5.36433V4.12844C1.83521 4.16964 2.98871 4.21083 4.34818 4.25203C5.74885 4.29322 7.10833 4.31382 8.42661 4.31382C10.1157 4.31382 11.7017 4.29322 13.1848 4.25203C14.709 4.21083 15.9243 4.16964 16.8306 4.12844V5.36433C15.4712 5.40552 14.4207 5.57031 13.6791 5.85868C12.9376 6.14706 12.5256 6.66201 12.4432 7.40354C12.4021 8.10388 12.6492 9.15438 13.1848 10.5551L24.6167 40.4018L23.5044 41.6376L33.5151 15.3132C34.4627 12.8003 34.9364 10.8434 34.9364 9.44276C34.9364 8.00089 34.4833 6.97098 33.5769 6.35304C32.6706 5.73509 31.3523 5.40552 29.6221 5.36433V4.12844C30.8992 4.16964 32.1557 4.21083 33.3916 4.25203C34.6274 4.29322 35.8015 4.31382 36.9138 4.31382C37.9437 4.31382 38.8295 4.29322 39.571 4.25203C40.3125 4.21083 40.9923 4.16964 41.6102 4.12844Z" fill="white"/>
<path d="M54.405 15.1278C57.1652 15.1278 59.6164 15.7046 61.7586 16.8581C63.9008 18.0116 65.6104 19.8242 66.8875 22.296C68.1646 24.7678 68.8031 28.0017 68.8031 31.9977C68.8031 35.9938 68.1646 39.2277 66.8875 41.6994C65.6104 44.13 63.9008 45.9221 61.7586 47.0755C59.6164 48.1878 57.1652 48.744 54.405 48.744C51.6861 48.744 49.2349 48.1878 47.0515 47.0755C44.8681 45.9221 43.1378 44.13 41.8608 41.6994C40.6249 39.2277 40.0069 35.9938 40.0069 31.9977C40.0069 28.0017 40.6249 24.7678 41.8608 22.296C43.1378 19.8242 44.8681 18.0116 47.0515 16.8581C49.2349 15.7046 51.6861 15.1278 54.405 15.1278ZM54.405 16.3637C52.2628 16.3637 50.512 17.5996 49.1525 20.0714C47.793 22.502 47.1133 26.4774 47.1133 31.9977C47.1133 37.518 47.793 41.4935 49.1525 43.924C50.512 46.3134 52.2628 47.5081 54.405 47.5081C56.506 47.5081 58.2363 46.3134 59.5958 43.924C60.9964 41.4935 61.6968 37.518 61.6968 31.9977C61.6968 26.4774 60.9964 22.502 59.5958 20.0714C58.2363 17.5996 56.506 16.3637 54.405 16.3637Z" fill="white"/>
<path d="M101.798 15.993V17.2289C101.015 17.3524 100.294 17.7644 99.6351 18.4647C98.976 19.1239 98.3375 20.2774 97.7195 21.9252L88.0796 47.7553L86.5965 49.2384L74.5466 20.7511C73.7639 19.1445 73.0018 18.1764 72.2602 17.8468C71.5599 17.476 70.9625 17.2906 70.4682 17.2906V15.993C71.4981 16.1166 72.5898 16.2195 73.7433 16.3019C74.8968 16.3431 76.0915 16.3637 77.3274 16.3637C78.728 16.3637 80.1287 16.3225 81.5294 16.2401C82.9713 16.1578 84.3101 16.0754 85.546 15.993V17.2906C84.5573 17.2906 83.6716 17.373 82.8889 17.5378C82.1473 17.6614 81.653 18.0528 81.4058 18.7119C81.1998 19.3299 81.4058 20.401 82.0237 21.9252L89.6862 40.7725L89.2537 40.9579L95.4949 24.397C96.1129 22.7492 96.36 21.4309 96.2365 20.4422C96.1129 19.4123 95.6803 18.6501 94.9388 18.1558C94.1972 17.6202 93.1055 17.3112 91.6637 17.2289V15.993C92.364 16.0342 93.0025 16.0754 93.5793 16.1166C94.1972 16.1166 94.7946 16.1372 95.3713 16.1783C95.9481 16.1783 96.5248 16.1783 97.1016 16.1783C98.0079 16.1783 98.8524 16.1578 99.6351 16.1166C100.459 16.0754 101.18 16.0342 101.798 15.993ZM88.0796 47.7553L85.855 53.564C85.443 54.5939 85.0105 55.459 84.5573 56.1593C84.1453 56.8597 83.6922 57.4364 83.1978 57.8896C82.5799 58.4663 81.8178 58.8783 80.9114 59.1255C80.0051 59.3726 79.0988 59.4962 78.1925 59.4962C77.3274 59.4962 76.5034 59.3314 75.7207 59.0019C74.9792 58.7135 74.3612 58.2603 73.8669 57.6424C73.3725 57.0244 73.1253 56.2623 73.1253 55.356C73.1253 54.2849 73.4755 53.4198 74.1759 52.7606C74.8762 52.1015 75.8031 51.7719 76.9566 51.7719C77.9865 51.7719 78.8516 52.0397 79.552 52.5752C80.2523 53.152 80.6025 53.9759 80.6025 55.047C80.6025 55.7886 80.3965 56.4271 79.9845 56.9627C79.6138 57.4982 79.1194 57.9102 78.5015 58.1985C78.6251 58.2397 78.7486 58.2603 78.8722 58.2603C78.9958 58.2603 79.0988 58.2603 79.1812 58.2603C80.3347 58.2603 81.3646 57.869 82.2709 57.0862C83.1772 56.3447 83.9394 55.1294 84.5573 53.4404L86.7819 47.5081L88.0796 47.7553Z" fill="white"/>
<path d="M112.24 48.3114C110.51 48.3114 109.026 47.9819 107.791 47.3227C106.555 46.6636 105.628 45.7573 105.01 44.6038C104.392 43.4503 104.083 42.132 104.083 40.6489C104.083 38.8363 104.495 37.3738 105.319 36.2615C106.143 35.108 107.193 34.1811 108.47 33.4808C109.789 32.7804 111.169 32.2037 112.611 31.7505C114.094 31.2562 115.474 30.803 116.751 30.3911C118.069 29.9379 119.14 29.4229 119.964 28.8462C120.829 28.2695 121.262 27.5073 121.262 26.5598V22.3578C121.262 20.8747 121.015 19.7006 120.52 18.8355C120.067 17.9292 119.429 17.2906 118.605 16.9199C117.822 16.5491 116.874 16.3637 115.762 16.3637C114.815 16.3637 113.805 16.5079 112.734 16.7963C111.663 17.0435 110.818 17.5584 110.201 18.3412C111.107 18.5883 111.848 19.0827 112.425 19.8242C113.043 20.5246 113.352 21.4103 113.352 22.4814C113.352 23.6349 112.961 24.5412 112.178 25.2003C111.436 25.8595 110.489 26.189 109.335 26.189C108.058 26.189 107.111 25.7977 106.493 25.0149C105.875 24.191 105.566 23.2435 105.566 22.1724C105.566 21.0601 105.834 20.1538 106.369 19.4535C106.946 18.7531 107.688 18.094 108.594 17.476C109.583 16.8169 110.839 16.2607 112.363 15.8076C113.929 15.3544 115.659 15.1278 117.554 15.1278C119.326 15.1278 120.85 15.3338 122.127 15.7458C123.445 16.1166 124.537 16.7345 125.402 17.5996C126.432 18.5471 127.112 19.7418 127.441 21.1837C127.771 22.5844 127.936 24.294 127.936 26.3126V43.3679C127.936 44.3978 128.059 45.1393 128.306 45.5925C128.595 46.0044 129.048 46.2104 129.666 46.2104C130.078 46.2104 130.469 46.1074 130.84 45.9015C131.252 45.6955 131.726 45.3865 132.261 44.9745L132.879 46.025C132.014 46.7254 131.128 47.2815 130.222 47.6935C129.357 48.1055 128.245 48.3114 126.885 48.3114C125.567 48.3114 124.496 48.1055 123.672 47.6935C122.848 47.2815 122.23 46.6842 121.818 45.9015C121.447 45.1187 121.262 44.1506 121.262 42.9971C120.191 44.7274 118.914 46.0456 117.43 46.952C115.947 47.8583 114.217 48.3114 112.24 48.3114ZM115.206 45.3453C116.359 45.3453 117.43 45.0157 118.419 44.3566C119.449 43.6975 120.397 42.7087 121.262 41.3905V29.0934C120.809 29.7525 120.149 30.3293 119.284 30.8236C118.419 31.2768 117.492 31.7505 116.504 32.2449C115.515 32.7392 114.567 33.316 113.661 33.9751C112.796 34.5931 112.075 35.3964 111.498 36.3851C110.921 37.3738 110.633 38.6303 110.633 40.1546C110.633 41.7612 111.045 43.0383 111.869 43.9858C112.693 44.8921 113.805 45.3453 115.206 45.3453Z" fill="white"/>
<path d="M146.343 59.4962C144.036 59.4962 141.894 59.2696 139.916 58.8165C137.98 58.3633 136.415 57.663 135.22 56.7155C134.067 55.8092 133.49 54.6351 133.49 53.1932C133.49 51.8337 134.067 50.639 135.22 49.6091C136.374 48.5792 138.001 47.7965 140.102 47.2609L140.534 48.2496C139.669 48.6204 138.989 49.2178 138.495 50.0417C138.042 50.8656 137.815 51.7719 137.815 52.7606C137.815 54.5733 138.66 55.9739 140.349 56.9627C142.038 57.9514 144.263 58.4457 147.023 58.4457C148.877 58.4457 150.627 58.1985 152.275 57.7042C153.964 57.251 155.324 56.4889 156.354 55.4178C157.425 54.3467 157.96 52.9666 157.96 51.2776C157.96 49.9593 157.487 48.847 156.539 47.9407C155.592 47.0755 153.717 46.643 150.916 46.643H146.59C145.148 46.643 143.809 46.5194 142.574 46.2722C141.338 46.025 140.328 45.5513 139.546 44.8509C138.804 44.1094 138.433 43.0795 138.433 41.7612C138.433 40.2782 139.051 38.8775 140.287 37.5592C141.523 36.2409 143.603 34.9432 146.528 33.6662L147.27 34.2223C146.075 34.8815 145.004 35.5612 144.057 36.2615C143.15 36.9207 142.697 37.7446 142.697 38.7333C142.697 40.0516 143.645 40.7107 145.54 40.7107H152.893C154.829 40.7107 156.58 40.9785 158.146 41.5141C159.711 42.0084 160.968 42.8117 161.915 43.924C162.863 45.0363 163.336 46.4988 163.336 48.3114C163.336 50.2477 162.698 52.0603 161.421 53.7493C160.185 55.4796 158.311 56.8597 155.798 57.8896C153.285 58.9607 150.133 59.4962 146.343 59.4962ZM146.714 34.7167C144.613 34.7167 142.697 34.3871 140.967 33.728C139.237 33.0276 137.877 31.9565 136.888 30.5146C135.9 29.0728 135.405 27.2189 135.405 24.9532C135.405 22.6874 135.9 20.8335 136.888 19.3917C137.877 17.9086 139.237 16.8375 140.967 16.1783C142.697 15.478 144.613 15.1278 146.714 15.1278C148.897 15.1278 150.833 15.478 152.522 16.1783C154.212 16.8375 155.55 17.9086 156.539 19.3917C157.528 20.8335 158.022 22.6874 158.022 24.9532C158.022 27.2189 157.528 29.0728 156.539 30.5146C155.55 31.9565 154.212 33.0276 152.522 33.728C150.833 34.3871 148.897 34.7167 146.714 34.7167ZM146.714 33.6044C148.156 33.6044 149.268 32.9864 150.051 31.7505C150.833 30.5146 151.225 28.2489 151.225 24.9532C151.225 21.6575 150.833 19.3917 150.051 18.1558C149.268 16.8787 148.156 16.2401 146.714 16.2401C145.354 16.2401 144.263 16.8787 143.439 18.1558C142.615 19.3917 142.203 21.6575 142.203 24.9532C142.203 28.2489 142.615 30.5146 143.439 31.7505C144.263 32.9864 145.354 33.6044 146.714 33.6044ZM155.859 20.3186L154.747 19.886C155.324 18.4441 156.313 17.1877 157.713 16.1166C159.114 15.0455 160.576 14.5099 162.101 14.5099C163.254 14.5099 164.16 14.8395 164.82 15.4986C165.52 16.1166 165.87 17.0023 165.87 18.1558C165.87 19.4329 165.52 20.3392 164.82 20.8747C164.16 21.4103 163.46 21.678 162.719 21.678C162.059 21.678 161.441 21.4515 160.865 20.9983C160.329 20.5452 160.02 19.8448 159.938 18.8973C159.855 17.9086 160.164 16.6521 160.865 15.1278L161.544 15.375C159.897 16.0342 158.681 16.7345 157.899 17.476C157.157 18.1764 156.477 19.1239 155.859 20.3186Z" fill="white"/>
<path d="M182.457 15.1278C186.082 15.1278 188.924 16.2195 190.984 18.4029C193.044 20.5863 194.074 24.0468 194.074 28.7844H172.755L172.631 27.6103H187.524C187.565 25.5917 187.4 23.7379 187.029 22.0488C186.659 20.3186 186.082 18.9385 185.299 17.9086C184.516 16.8787 183.486 16.3637 182.209 16.3637C180.438 16.3637 178.893 17.3112 177.575 19.2063C176.298 21.0601 175.515 24.0468 175.227 28.1665L175.412 28.4754C175.371 29.0522 175.33 29.6907 175.288 30.3911C175.247 31.0502 175.227 31.7093 175.227 32.3685C175.227 35.211 175.659 37.6004 176.524 39.5366C177.389 41.4729 178.522 42.9353 179.923 43.924C181.324 44.8715 182.745 45.3453 184.187 45.3453C185.299 45.3453 186.37 45.1805 187.4 44.8509C188.471 44.4802 189.48 43.8828 190.428 43.0589C191.376 42.1938 192.22 41.0197 192.962 39.5366L194.197 40.031C193.703 41.4317 192.941 42.8117 191.911 44.1712C190.881 45.5307 189.563 46.643 187.956 47.5081C186.35 48.332 184.475 48.744 182.333 48.744C179.449 48.744 176.936 48.1055 174.794 46.8284C172.652 45.5101 171.004 43.6357 169.85 41.2051C168.697 38.7745 168.12 35.8908 168.12 32.5539C168.12 28.8874 168.718 25.7565 169.912 23.1611C171.107 20.5657 172.775 18.5883 174.918 17.2289C177.101 15.8282 179.614 15.1278 182.457 15.1278Z" fill="white"/>
<path d="M217.247 3.88126L232.325 42.6881C232.901 44.2124 233.561 45.2423 234.302 45.7779C235.085 46.3134 235.806 46.6018 236.465 46.643V47.8789C235.476 47.7965 234.302 47.7553 232.943 47.7553C231.624 47.7141 230.285 47.6935 228.926 47.6935C227.196 47.6935 225.589 47.7141 224.106 47.7553C222.623 47.7553 221.428 47.7965 220.522 47.8789V46.643C222.623 46.5606 223.941 46.2104 224.477 45.5925C225.053 44.9333 224.93 43.5533 224.106 41.4523L212.983 11.4202L213.972 10.3079L203.714 37.1266C202.972 38.9805 202.519 40.5253 202.354 41.7612C202.231 42.9971 202.334 43.9652 202.663 44.6656C203.034 45.3659 203.652 45.8603 204.517 46.1486C205.382 46.437 206.453 46.6018 207.73 46.643V47.8789C206.495 47.7965 205.238 47.7553 203.961 47.7553C202.725 47.7141 201.551 47.6935 200.439 47.6935C199.45 47.6935 198.564 47.7141 197.782 47.7553C197.04 47.7553 196.36 47.7965 195.742 47.8789V46.643C196.607 46.437 197.473 45.9221 198.338 45.0981C199.203 44.2742 200.027 42.8735 200.809 40.8961L215.146 3.88126C215.475 3.88126 215.826 3.88126 216.196 3.88126C216.567 3.88126 216.917 3.88126 217.247 3.88126ZM223.735 30.0821V31.318H205.32L205.938 30.0821H223.735Z" fill="white"/>
<path d="M264.787 15.3132V41.2051C264.787 43.0589 265.096 44.439 265.714 45.3453C266.373 46.2104 267.547 46.643 269.236 46.643V47.9407C267.959 47.8171 266.682 47.7553 265.405 47.7553C264.045 47.7553 262.748 47.8171 261.512 47.9407C260.276 48.0643 259.143 48.2908 258.113 48.6204V41.8848C257.083 44.3566 255.641 46.128 253.788 47.1991C251.975 48.229 250.059 48.744 248.041 48.744C246.516 48.744 245.219 48.5174 244.148 48.0643C243.077 47.6523 242.191 47.0961 241.49 46.3958C240.749 45.5719 240.234 44.5214 239.946 43.2443C239.657 41.926 239.513 40.2782 239.513 38.3007V22.7286C239.513 20.8747 239.204 19.5152 238.586 18.6501C237.968 17.7438 236.794 17.2906 235.064 17.2906V15.993C236.382 16.1166 237.659 16.1783 238.895 16.1783C240.255 16.1783 241.552 16.1166 242.788 15.993C244.024 15.8282 245.157 15.6016 246.187 15.3132V40.031C246.187 41.2257 246.269 42.3174 246.434 43.3061C246.599 44.2948 246.99 45.0775 247.608 45.6543C248.226 46.231 249.215 46.5194 250.574 46.5194C252.016 46.5194 253.293 46.0868 254.405 45.2217C255.559 44.3566 256.465 43.1825 257.124 41.6994C257.784 40.2164 258.113 38.5479 258.113 36.6941V22.7286C258.113 20.8747 257.804 19.5152 257.186 18.6501C256.568 17.7438 255.394 17.2906 253.664 17.2906V15.993C254.982 16.1166 256.259 16.1783 257.495 16.1783C258.855 16.1783 260.152 16.1166 261.388 15.993C262.624 15.8282 263.757 15.6016 264.787 15.3132Z" fill="white"/>
<path d="M283.688 15.1278C285.336 15.1278 286.757 15.3956 287.952 15.9312C289.188 16.4255 290.073 16.8787 290.609 17.2906C291.968 18.3617 292.813 17.6614 293.142 15.1896H294.502C294.419 16.3431 294.358 17.7438 294.316 19.3917C294.275 20.9983 294.255 23.1405 294.255 25.8183H292.895C292.648 24.294 292.215 22.8109 291.598 21.3691C291.021 19.9272 290.156 18.7325 289.002 17.785C287.89 16.8375 286.427 16.3637 284.615 16.3637C283.255 16.3637 282.122 16.7551 281.216 17.5378C280.31 18.2794 279.857 19.3917 279.857 20.8747C279.857 22.1106 280.227 23.1817 280.969 24.088C281.71 24.9943 282.658 25.8389 283.811 26.6216C285.006 27.4043 286.283 28.2489 287.643 29.1552C289.167 30.1851 290.526 31.215 291.721 32.2449C292.957 33.2336 293.925 34.3459 294.625 35.5818C295.367 36.8177 295.738 38.2595 295.738 39.9074C295.738 41.8024 295.223 43.4091 294.193 44.7274C293.204 46.0456 291.886 47.055 290.238 47.7553C288.59 48.4144 286.778 48.744 284.8 48.744C283.811 48.744 282.884 48.641 282.019 48.435C281.154 48.2702 280.351 48.0437 279.609 47.7553C279.156 47.5081 278.703 47.2609 278.25 47.0138C277.838 46.7254 277.426 46.4576 277.014 46.2104C276.602 45.9221 276.231 45.9633 275.902 46.334C275.572 46.7048 275.325 47.3639 275.16 48.3114H273.801C273.883 46.9932 273.945 45.3865 273.986 43.4915C274.027 41.5964 274.048 39.0835 274.048 35.9526H275.407C275.696 38.2183 276.128 40.2164 276.705 41.9466C277.282 43.6769 278.126 45.0363 279.239 46.025C280.392 46.9726 281.958 47.4463 283.935 47.4463C284.718 47.4463 285.5 47.2815 286.283 46.952C287.066 46.5812 287.704 46.0044 288.199 45.2217C288.734 44.439 289.002 43.3885 289.002 42.0702C289.002 40.2576 288.364 38.7745 287.087 37.621C285.851 36.4263 284.244 35.1698 282.267 33.8515C280.866 32.8628 279.527 31.8947 278.25 30.9472C277.014 29.9585 276.005 28.8668 275.222 27.6721C274.439 26.4362 274.048 24.9737 274.048 23.2847C274.048 21.4309 274.48 19.9066 275.346 18.7119C276.252 17.5172 277.447 16.6315 278.93 16.0548C280.413 15.4368 281.999 15.1278 283.688 15.1278Z" fill="white"/>
<path d="M310.948 5.79689V16.0548H319.476V17.2906H310.948V41.5758C310.948 43.2649 311.257 44.4596 311.875 45.1599C312.493 45.8603 313.379 46.2104 314.532 46.2104C315.604 46.2104 316.551 45.7779 317.375 44.9127C318.24 44.0476 318.982 42.5852 319.6 40.5253L320.774 40.9579C320.279 43.1413 319.394 44.9951 318.116 46.5194C316.881 48.0025 315.047 48.744 312.617 48.744C311.216 48.744 310.042 48.5586 309.094 48.1878C308.147 47.8583 307.323 47.3639 306.623 46.7048C305.716 45.7573 305.098 44.6244 304.769 43.3061C304.439 41.9878 304.275 40.237 304.275 38.0536V17.2906H298.589V16.0548H304.275V7.03278C305.552 6.99158 306.746 6.88859 307.859 6.7238C308.971 6.51782 310.001 6.20885 310.948 5.79689Z" fill="white"/>
<path d="M329.335 0.420776C330.612 0.420776 331.683 0.832739 332.548 1.65666C333.413 2.43939 333.846 3.4281 333.846 4.62279C333.846 5.81749 333.413 6.8268 332.548 7.65072C331.683 8.43345 330.612 8.82481 329.335 8.82481C328.058 8.82481 326.986 8.43345 326.121 7.65072C325.256 6.8268 324.824 5.81749 324.824 4.62279C324.824 3.4281 325.256 2.43939 326.121 1.65666C326.986 0.832739 328.058 0.420776 329.335 0.420776ZM333.042 15.3132V42.132C333.042 43.8622 333.372 45.0363 334.031 45.6543C334.731 46.2722 335.885 46.5812 337.491 46.5812V47.8789C336.791 47.8377 335.699 47.7965 334.216 47.7553C332.774 47.6729 331.291 47.6317 329.767 47.6317C328.325 47.6317 326.842 47.6729 325.318 47.7553C323.794 47.7965 322.661 47.8377 321.919 47.8789V46.5812C323.526 46.5812 324.659 46.2722 325.318 45.6543C326.018 45.0363 326.368 43.8622 326.368 42.132V22.7286C326.368 20.8747 326.059 19.5152 325.442 18.6501C324.824 17.7438 323.649 17.2906 321.919 17.2906V15.993C323.238 16.1166 324.515 16.1783 325.751 16.1783C327.151 16.1783 328.449 16.1166 329.644 15.993C330.879 15.8282 332.012 15.6016 333.042 15.3132Z" fill="white"/>
<path d="M361.95 15.1278C363.598 15.1278 364.937 15.3544 365.967 15.8076C367.038 16.2195 367.923 16.7963 368.624 17.5378C369.365 18.3206 369.88 19.3299 370.169 20.5657C370.498 21.8016 370.663 23.4701 370.663 25.5711V42.132C370.663 43.8622 370.993 45.0363 371.652 45.6543C372.352 46.2722 373.506 46.5812 375.112 46.5812V47.8789C374.412 47.8377 373.32 47.7965 371.837 47.7553C370.354 47.6729 368.892 47.6317 367.45 47.6317C366.049 47.6317 364.648 47.6729 363.248 47.7553C361.888 47.7965 360.858 47.8377 360.158 47.8789V46.5812C361.559 46.5812 362.547 46.2722 363.124 45.6543C363.701 45.0363 363.989 43.8622 363.989 42.132V23.8409C363.989 22.6462 363.886 21.5751 363.68 20.6275C363.474 19.6388 363.042 18.8561 362.383 18.2794C361.723 17.6614 360.735 17.3524 359.416 17.3524C357.892 17.3524 356.533 17.785 355.338 18.6501C354.184 19.5152 353.258 20.7099 352.557 22.2342C351.898 23.7173 351.569 25.3857 351.569 27.2395V42.132C351.569 43.8622 351.857 45.0363 352.434 45.6543C353.052 46.2722 354.04 46.5812 355.4 46.5812V47.8789C354.741 47.8377 353.731 47.7965 352.372 47.7553C351.054 47.6729 349.673 47.6317 348.232 47.6317C346.831 47.6317 345.368 47.6729 343.844 47.7553C342.32 47.7965 341.187 47.8377 340.445 47.8789V46.5812C342.052 46.5812 343.185 46.2722 343.844 45.6543C344.545 45.0363 344.895 43.8622 344.895 42.132V22.7286C344.895 20.8747 344.586 19.5152 343.968 18.6501C343.35 17.7438 342.176 17.2906 340.445 17.2906V15.993C341.764 16.1166 343.041 16.1783 344.277 16.1783C345.677 16.1783 346.975 16.1166 348.17 15.993C349.406 15.8282 350.539 15.6016 351.569 15.3132V22.0488C352.64 19.4946 354.102 17.7026 355.956 16.6727C357.851 15.6428 359.849 15.1278 361.95 15.1278Z" fill="white"/>
</svg>
