<svg width="2500" height="2500" viewBox="0 0 2500 2500" fill="none" xmlns="http://www.w3.org/2000/svg">
<g clip-path="url(#clip0_50_24)">
<path fill-rule="evenodd" clip-rule="evenodd" d="M1739.49 1097.92V1122.59L1737.61 1145.35L1733.81 1168.11L1730.01 1190.87L1724.32 1213.63L1718.62 1236.41L1711.05 1257.29L1703.47 1278.13L1693.98 1299L1684.51 1317.97L1673.1 1338.87L1659.83 1355.94L1648.43 1374.91L1635.16 1391.98L1619.99 1409.05L1604.81 1426.12L1587.75 1441.32L1570.68 1454.56L1553.61 1467.85L1536.54 1481.12L1517.57 1494.39L1496.7 1505.79L1477.72 1515.26L1456.85 1524.75L1435.99 1532.35L1415.12 1539.93L1392.37 1545.62L1369.59 1551.3L1346.82 1555.1L1324.04 1558.9L1301.3 1560.79H1251.96L1229.2 1558.9L1206.43 1555.1L1183.66 1551.3L1160.9 1545.62L1138.12 1539.93L1117.25 1532.35L1096.39 1524.75L1075.52 1515.26L1056.54 1505.79L1035.67 1494.39L999.619 1467.84L982.55 1454.55L965.482 1441.3L948.414 1426.1L933.239 1409.04L919.971 1391.97L904.797 1374.9L893.409 1355.92L880.128 1338.86L868.741 1317.99L859.26 1299.01L849.779 1278.14L842.179 1257.3L834.604 1236.42L828.911 1213.65L823.23 1190.88L819.43 1168.12L815.539 1145.36L813.645 1122.6V1073.25L815.539 1050.49L819.339 1027.71L823.139 1004.95L828.82 982.187L834.514 959.425L842.088 938.557L849.688 917.689L859.169 896.82L868.65 877.846L880.037 856.977L893.318 838.002L904.706 820.921L919.881 801.959L933.149 786.798L948.323 769.717L965.391 754.542L982.46 739.367L999.528 726.086L1018.5 714.712L1035.58 701.418L1056.45 690.056L1075.43 680.562L1096.3 671.082L1117.16 663.494L1138.03 655.907L1160.81 648.32L1183.57 644.532L1206.34 638.839L1229.11 636.945L1251.87 635.052H1301.2L1327.75 636.945L1350.53 638.839L1375.17 644.532L1397.95 648.32L1420.72 655.907L1441.59 663.494L1464.36 671.082L1485.23 680.562L1504.21 690.056L1525.05 701.418L1542.12 714.712L1561.09 726.086L1578.16 739.367L1593.34 754.542L1610.43 769.717L1625.6 786.798L1638.87 801.959L1652.14 820.921L1665.41 838.002L1676.81 856.977L1686.28 875.939L1695.77 896.807L1705.24 917.676L1712.84 938.544L1720.44 959.412L1726.12 982.174L1731.81 1004.94L1733.71 1025.8L1737.51 1050.47L1739.39 1073.24V1097.92H1739.49ZM1276.59 610.331H1251.92L1227.25 612.238L1202.58 616.025L1177.93 619.825L1155.16 625.506L1132.39 633.106L1109.62 640.693L1086.85 648.281L1065.98 657.762L1045.12 669.136L1024.25 680.511L1005.27 693.792L984.405 707.086L967.337 722.26L948.362 737.448L933.187 752.622L916.119 769.691L900.945 786.772L885.77 805.734L872.489 824.708L861.114 845.577L847.833 866.445L838.353 885.42L819.378 930.957L804.203 976.494L800.403 999.256L794.722 1023.92L792.829 1048.59L790.935 1073.25L789.042 1097.92L790.935 1122.59L792.829 1147.24L794.722 1171.91L800.403 1196.58L804.203 1219.34L811.777 1242.1L819.365 1264.86L828.846 1287.64L838.327 1308.51L847.807 1329.35L861.089 1350.22L872.463 1369.19L885.744 1388.17L900.919 1407.14L916.093 1424.21L933.161 1443.18L948.336 1458.39L967.311 1473.56L984.379 1488.73L1005.23 1502L1024.21 1515.27L1045.08 1526.67L1065.95 1536.14L1086.81 1545.63L1109.58 1555.1L1132.35 1562.7L1155.13 1570.28L1177.89 1575.97L1202.54 1579.77L1227.21 1581.66L1251.88 1583.54L1276.55 1585.46L1301.22 1583.54L1325.86 1581.66L1350.53 1579.77L1375.17 1575.97L1397.95 1570.28L1420.72 1562.7L1443.5 1555.1L1466.24 1545.63L1487.11 1536.14L1507.98 1526.67L1528.85 1515.27L1549.72 1502L1566.79 1488.73L1585.76 1473.56L1604.74 1458.39L1621.8 1443.18L1636.98 1424.21L1652.15 1407.14L1667.33 1388.17L1680.62 1369.19L1693.89 1350.22L1705.26 1329.35L1716.66 1308.51L1726.13 1287.64L1733.73 1264.86L1741.31 1242.1L1748.91 1219.34L1754.6 1196.58L1758.38 1171.91L1760.27 1147.24L1762.16 1122.59L1764.06 1097.92L1762.16 1073.25V1048.61L1758.36 1023.94L1754.59 999.268L1748.89 976.507L1743.21 953.732L1735.61 930.97L1728.01 908.208L1718.52 887.339L1707.15 866.471L1697.68 845.603L1684.41 824.734L1671.12 805.76L1657.85 786.798L1642.67 769.717L1627.5 752.648L1610.43 737.474L1593.34 722.286L1574.39 707.112L1555.41 693.844L1536.44 680.562L1515.57 669.188L1494.7 657.814L1471.93 648.333L1451.08 640.745L1428.31 633.158L1403.64 625.558L1378.97 619.877L1354.33 616.077L1329.66 612.29L1303.11 610.383H1276.59V610.331Z" fill="#33348E"/>
<path fill-rule="evenodd" clip-rule="evenodd" d="M168.607 617.931H422.814V1118.8L777.602 616.025H1065.98L420.921 1564.66H168.607V617.931Z" fill="#CC2229"/>
<path fill-rule="evenodd" clip-rule="evenodd" d="M1775.53 1133.97L2128.46 610.331H2365.58V1557.06H2120.85V1450.82H1847.66L1769.87 1564.66H1483.39L1644.66 1325.6L1775.53 1133.97ZM2120.85 1133.97V1059.98L2067.73 1133.97L2016.49 1207.96H2120.85V1133.97ZM197.05 1799.9L161.007 1629.15H193.249L217.905 1758.16L286.204 1629.15H320.353L223.599 1799.9H197.05ZM2316.27 1701.24L2257.45 1799.9H2293.5L2320.07 1756.26H2380.79L2390.26 1799.9H2424.41L2401.64 1701.24L2384.57 1629.15H2359.93L2316.27 1701.24ZM2369.39 1701.24L2375.09 1725.91H2337.14L2350.41 1701.24L2365.58 1676.6L2369.39 1701.24ZM2103.79 1695.56L2107.56 1687.96L2113.25 1678.5L2118.95 1670.89L2126.52 1663.29L2134.12 1655.72L2141.72 1648.12L2151.19 1642.43L2160.68 1638.65L2170.15 1632.96L2179.65 1631.06L2189.11 1627.26H2209.98L2221.36 1629.16L2230.85 1631.05L2240.32 1634.85L2246.01 1638.65L2251.71 1642.43L2257.39 1648.12L2263.08 1651.92L2266.88 1659.49L2270.68 1665.19L2272.56 1672.79L2274.46 1680.36H2236.51L2230.83 1672.79L2225.13 1667.09L2219.44 1663.29L2213.76 1659.49L2206.16 1657.6L2198.58 1655.72L2192.89 1657.6H2185.29L2177.69 1659.49L2170.11 1663.29L2162.54 1667.09L2156.85 1672.79L2151.15 1678.48L2145.51 1686.07L2139.83 1693.67L2134.14 1701.24L2132.24 1708.84L2130.35 1718.31V1729.71L2132.24 1739.18L2136.04 1748.67L2139.84 1758.14L2147.42 1763.84L2155.02 1769.53L2162.62 1771.41L2172.09 1773.3H2181.55L2191.05 1771.41L2200.52 1769.53L2208.12 1765.73L2215.69 1760.04L2221.38 1754.34H2259.33L2253.65 1761.94L2247.93 1769.54L2242.25 1775.22L2234.68 1780.92L2227.08 1786.61L2219.48 1792.29L2210.01 1796.09L2202.41 1799.89L2192.94 1801.79L2183.45 1803.68H2155.02L2145.52 1799.88L2136.06 1796.08L2126.56 1792.28L2117.09 1784.7L2109.49 1775.21L2101.92 1763.84L2098.12 1752.44L2096.23 1741.06V1727.79L2098.12 1712.62L2103.79 1695.56ZM2024.09 1799.9L2058.24 1629.15H2088.61L2058.24 1799.9H2024.09ZM1906.45 1686.07L1885.61 1799.9H1917.85L1929.23 1737.31L1961.5 1799.9H2001.31L1967.16 1737.31L1980.43 1733.49L1989.93 1729.71L1999.39 1722.11L2006.99 1714.51L2014.59 1705.04L2018.37 1695.58L2022.17 1686.08V1667.11L2018.37 1657.61L2014.59 1648.15L2010.79 1640.55L2003.19 1636.77L1993.73 1632.97L1980.43 1629.17H1915.93L1906.45 1686.07ZM1989.95 1686.07L1988.06 1693.67L1984.26 1701.24L1978.56 1705.04L1970.99 1708.84L1963.39 1710.74H1933.05L1938.72 1686.07L1942.49 1661.4H1967.16L1974.76 1663.29L1980.44 1665.19L1986.14 1668.99L1988.03 1674.68L1989.93 1682.26V1686.07H1989.95ZM1764.16 1799.9L1796.4 1629.15H1887.49L1881.8 1659.49H1822.98L1815.38 1699.34H1872.3L1866.62 1729.71H1811.6L1804 1767.66H1862.82L1859.02 1799.9H1764.16ZM1555.49 1799.9L1589.64 1629.15H1631.36L1654.14 1756.26L1724.33 1629.15H1767.97L1737.62 1799.9H1705.36L1728.13 1674.69L1659.83 1799.9H1633.28L1612.39 1674.69L1589.64 1799.9H1555.49ZM1445.44 1701.24L1384.72 1799.9H1422.67L1447.33 1756.26H1509.93L1519.42 1799.9H1553.57L1530.8 1701.24L1513.73 1629.15H1487.15L1445.44 1701.24ZM1498.57 1701.24L1502.34 1725.91H1466.3L1479.59 1701.24L1492.86 1676.6L1498.57 1701.24ZM1193.1 1629.15H1280.39L1276.59 1659.49H1221.57L1213.97 1699.34H1267.09L1261.41 1729.71H1208.28L1196.89 1799.9H1164.65L1193.1 1629.15ZM974.911 1712.64L973.018 1729.71L974.911 1744.89L978.711 1758.16L982.499 1767.65L986.299 1773.33L990.099 1779.02L995.78 1784.72L1001.46 1788.49L1009.05 1792.29L1014.74 1796.09L1022.32 1797.99L1029.9 1799.88L1037.49 1801.77H1060.25L1067.84 1799.88H1075.43L1081.11 1797.99L1088.71 1796.09L1094.39 1792.29L1109.56 1782.82L1122.84 1771.42L1134.22 1758.16L1141.82 1742.98L1149.41 1725.91L1151.3 1712.64L1153.21 1708.84V1691.78L1151.3 1674.71L1147.51 1665.21L1143.73 1655.75L1138.03 1648.15L1130.46 1642.45L1122.86 1636.77L1113.36 1631.08L1103.88 1629.18L1092.5 1625.38H1060.25L1050.77 1629.18L1039.38 1631.08L1029.9 1636.77L1020.42 1642.45L1012.83 1648.15L991.967 1669.01L980.592 1691.79L974.898 1710.76L974.911 1712.64ZM1121 1712.64L1119.11 1718.33L1117.22 1725.93L1113.42 1733.5L1109.63 1739.19L1105.84 1744.89L1100.15 1750.58L1096.36 1754.36L1090.67 1760.05L1086.88 1761.94L1081.19 1765.74L1075.5 1767.64L1069.82 1769.53H1064.13L1060.34 1771.41H1045.16L1031.89 1767.64L1020.51 1760.04L1012.93 1748.66L1009.14 1735.37L1007.24 1722.1V1712.63L1009.14 1708.83L1012.93 1695.56L1018.55 1686.07L1024.25 1680.38L1028.05 1674.69L1033.73 1669L1041.33 1665.2L1048.92 1661.4L1056.5 1657.6L1065.98 1655.72H1075.47L1088.75 1657.6L1100.12 1663.29L1109.6 1668.99L1115.3 1678.48L1119.1 1687.95L1120.99 1699.32L1121 1712.64ZM718.784 1799.9L751.04 1629.15H842.101L836.42 1659.49H777.602L770.015 1699.34H826.926L821.245 1729.71H764.321L758.64 1767.66H817.458L813.645 1799.9H718.784ZM551.825 1695.56L555.625 1687.96L561.305 1678.5L566.999 1670.89L574.586 1663.29L582.174 1655.72L589.761 1648.12L599.242 1642.43L606.842 1638.65L618.217 1632.96L627.698 1631.06L637.179 1627.26H658.047L667.528 1629.16L678.915 1631.05L688.396 1634.85L694.09 1638.65L699.771 1642.43L705.464 1648.12L711.158 1651.92L714.945 1659.49L718.745 1665.19L720.639 1672.79L722.533 1680.36H684.596L678.915 1672.79L673.222 1667.09L667.541 1663.29L661.847 1659.49L654.26 1657.6L646.672 1655.72L639.085 1657.6H633.404L625.817 1659.49L618.23 1663.29L610.642 1667.09L604.962 1672.79L597.361 1678.48L591.681 1686.07L587.893 1693.67L582.2 1701.24L580.306 1708.84L578.413 1718.31V1729.71L580.306 1739.18L584.106 1748.67L587.893 1758.14L595.481 1763.84L601.175 1769.53L610.655 1771.41L618.243 1773.3H627.724L637.205 1771.41L646.685 1769.53L656.179 1765.73L663.767 1760.04L669.46 1754.34H705.516L701.716 1761.94L696.022 1769.54L690.329 1775.22L682.741 1780.92L675.167 1786.61L667.58 1792.29L658.099 1796.09L648.605 1799.89L641.031 1801.79L631.55 1803.68H601.2L593.613 1799.88L584.132 1796.08L574.651 1792.28L565.17 1784.7L557.583 1775.21L549.996 1763.84L546.209 1752.44L542.421 1741.06V1727.79L546.209 1712.62L551.825 1695.56ZM472.151 1799.9L504.394 1629.15H536.65L504.394 1799.9H472.151ZM284.323 1712.64V1744.89L290.004 1758.16L293.791 1767.65L295.698 1773.33L301.378 1779.02L307.059 1784.72L312.753 1788.49L318.434 1792.29L326.021 1796.09L333.608 1797.99L339.302 1799.88L346.889 1801.77H369.651L377.239 1799.88H384.826L392.4 1797.99L398.094 1796.09L403.775 1792.29L418.949 1782.82L432.23 1771.42L443.618 1758.16L453.112 1742.98L458.792 1725.91L462.58 1712.64V1708.84L464.473 1691.78L460.686 1674.71L458.792 1665.21L453.112 1655.75L447.418 1648.15L439.831 1642.45L432.243 1636.77L422.762 1631.08L413.282 1629.18L403.801 1625.38H371.584L360.209 1629.18L350.715 1631.08L339.341 1636.77L331.754 1642.45L322.273 1648.15L303.311 1669.01L290.03 1691.79L284.349 1710.76V1712.64H284.323ZM430.402 1712.64V1718.33L426.614 1725.93L422.814 1733.5L419.027 1739.19L415.24 1744.89L411.453 1750.58L405.759 1754.36L401.972 1760.05L396.278 1761.94L390.584 1765.74L384.904 1767.64L381.104 1769.53H375.41L369.716 1771.41H354.554L341.273 1767.64L329.886 1760.04L322.299 1748.66L318.511 1735.37L316.618 1722.1L318.511 1712.63V1708.83L322.299 1695.56L329.86 1686.07L333.647 1680.38L339.341 1674.69L345.035 1669L350.715 1665.2L358.303 1661.4L367.784 1657.6L375.371 1655.72H386.745L400.026 1657.6L409.507 1663.29L418.988 1668.99L424.682 1678.48L430.363 1687.95L432.256 1699.32V1708.82L430.402 1712.64ZM1439.03 922.98C1403.04 889.303 1357.39 867.757 1308.51 861.374C1323.92 871.689 1338.29 883.477 1351.42 896.574C1367.04 912.219 1380.79 929.629 1392.38 948.453C1408.68 941.403 1424.29 932.877 1439.03 922.98ZM1513.92 1084.16C1511.38 1030.54 1490.56 979.419 1454.92 939.283C1438.7 950.495 1421.46 960.149 1403.42 968.115C1421.8 1004.15 1432.13 1043.74 1433.72 1084.16H1513.92ZM1455.35 1250.95C1490.74 1210.89 1511.4 1159.96 1513.92 1106.57H1433.72C1432.16 1146.74 1421.94 1186.11 1403.74 1221.96C1421.91 1230 1439.19 1239.73 1455.35 1250.95ZM1308.48 1329.37C1357.61 1322.99 1403.48 1301.27 1439.54 1267.29C1424.78 1257.31 1409.13 1248.72 1392.78 1241.63C1371.38 1276.65 1342.61 1306.59 1308.48 1329.37ZM1116.93 1267.29C1153.43 1301.67 1199.95 1323.5 1249.71 1329.61C1215.35 1306.62 1186.38 1276.44 1164.81 1241.17C1148.06 1248.34 1132.03 1257.08 1116.93 1267.29ZM1042.56 1106.57C1045.09 1159.95 1065.74 1210.88 1101.12 1250.95C1117.71 1239.42 1135.39 1229.55 1153.89 1221.45C1135.87 1185.73 1125.73 1146.55 1124.18 1106.57H1042.56ZM1101.57 939.283C1065.93 979.412 1045.1 1030.54 1042.56 1084.16H1124.18C1125.75 1043.93 1136 1004.51 1154.22 968.608C1135.76 960.559 1118.13 950.738 1101.57 939.283ZM1249.7 861.154C1200.18 867.224 1153.87 888.875 1117.45 922.98C1132.52 933.111 1148.51 941.8 1165.22 948.933C1186.71 913.916 1215.53 883.969 1249.7 861.154ZM1289.45 1195.71C1322.09 1196.86 1353.47 1203.1 1382.82 1213.62C1399.98 1180.43 1409.69 1143.9 1411.27 1106.57H1289.45V1195.71ZM1371.5 1233.39C1345.04 1224.32 1317.4 1219.18 1289.45 1218.12V1314.99C1322.57 1294.28 1350.61 1266.39 1371.5 1233.39ZM1174.83 1213.18C1204.51 1202.7 1235.61 1196.81 1267.07 1195.71V1106.57H1146.62C1148.18 1143.73 1157.8 1180.11 1174.83 1213.18ZM1267.06 1218.12C1238.88 1219.2 1211.69 1224.35 1186.12 1232.98C1206.78 1265.67 1234.42 1293.38 1267.04 1314.14L1267.06 1218.12ZM1382.47 976.442C1352.56 987.09 1321.19 993.078 1289.45 994.197V1084.17H1411.28C1409.69 1046.58 1399.85 1009.81 1382.47 976.442ZM1289.45 971.786C1317.25 970.734 1344.74 965.644 1371.07 956.676C1350.25 923.947 1322.36 896.294 1289.45 875.745V971.786ZM1267.06 994.21C1235.73 993.114 1204.76 987.271 1175.19 976.883C1157.96 1010.14 1148.21 1046.75 1146.62 1084.17H1267.07L1267.06 994.21ZM1186.58 957.065C1212.57 965.796 1239.67 970.753 1267.07 971.786V876.613C1234.67 897.206 1207.19 924.672 1186.58 957.065Z" fill="#33348E"/>
</g>
<defs>
<clipPath id="clip0_50_24">
<rect width="2500" height="2500" fill="white"/>
</clipPath>
</defs>
</svg>
