<svg width="40" height="40" viewBox="0 0 40 40" fill="none" xmlns="http://www.w3.org/2000/svg">
<path d="M23.6952 5.83275C21.3269 4.72242 18.6728 4.72242 16.3044 5.83275L5.15259 11.061C3.35926 11.9017 2.8917 14.2725 3.74992 15.9111L3.74992 24.1667C3.74992 24.857 4.30956 25.4167 4.99992 25.4167C5.69027 25.4167 6.24992 24.857 6.24992 24.1667V17.7867L16.3046 22.5006C18.6729 23.6109 21.327 23.6109 23.6954 22.5006L34.8472 17.2723C37.273 16.1351 37.273 12.1983 34.8473 11.0611L23.6952 5.83275Z" fill="white"/>
<path d="M8.33325 21.5245V27.709C8.33325 29.3891 9.17242 30.962 10.6421 31.7759C13.0894 33.1312 17.0066 35 19.9999 35C22.9933 35 26.9104 33.1312 29.3577 31.7759C30.8274 30.962 31.6666 29.3891 31.6666 27.709V21.5246L24.7566 24.7642C21.7159 26.1897 18.2841 26.1897 15.2434 24.7642L8.33325 21.5245Z" fill="white"/>
</svg>
