<svg width="40" height="40" viewBox="0 0 40 40" fill="none" xmlns="http://www.w3.org/2000/svg">
<path d="M21.3873 36.3354C26.5972 35.2911 33.3333 31.5433 33.3333 21.8519C33.3333 13.0326 26.8778 7.1598 22.2359 4.46133C21.2059 3.86254 20 4.65002 20 5.84145V8.88891C20 11.292 18.9896 15.6784 16.1822 17.5029C14.7489 18.4344 13.2009 17.0402 13.0267 15.3397L12.8836 13.9433C12.7173 12.32 11.064 11.3345 9.76659 12.3243C7.43578 14.1023 5 17.2159 5 21.8519C5 33.7037 13.8148 36.6667 18.2222 36.6667C18.4786 36.6667 18.748 36.659 19.0284 36.6429C16.8522 36.4569 13.3333 35.1067 13.3333 30.7403C13.3333 27.3248 15.8251 25.0141 17.7184 23.8909C18.2276 23.5888 18.8235 23.9811 18.8235 24.5731V25.5551C18.8235 26.3067 19.1142 27.4814 19.8061 28.2856C20.589 29.1956 21.7382 28.2423 21.8309 27.0455C21.8601 26.6679 22.2398 26.4273 22.5668 26.6184C23.6356 27.243 25 28.5775 25 30.7403C25 34.1537 23.1184 35.7238 21.3873 36.3354Z" fill="white"/>
</svg>
