<svg width="40" height="40" viewBox="0 0 40 40" fill="none" xmlns="http://www.w3.org/2000/svg">
<path d="M27.4999 22.1451C23.3751 17.6189 18.3333 20.9577 18.3333 25.6658C18.3333 29.9305 21.3566 32.3907 23.9307 34.4853L24.003 34.5441C24.2455 34.7415 24.4838 34.9358 24.7148 35.1282C25.6666 35.9206 26.5833 36.6667 27.4999 36.6667C28.4166 36.6667 29.3333 35.9206 30.285 35.1282C32.9821 32.8826 36.6666 30.3738 36.6666 25.6658C36.6666 24.1191 36.1225 22.7202 35.2455 21.6994C33.453 19.6128 30.2697 19.1058 27.4999 22.1451Z" fill="white"/>
<path d="M13.5104 30.4114C8.83023 26.8055 3.33325 22.5703 3.33325 15.2285C3.33325 7.12361 12.5002 1.37577 19.9999 9.16772C27.4997 1.37577 36.6666 7.12361 36.6666 15.2285C36.6666 16.6178 36.4697 17.8958 36.1189 19.0794C34.9206 18.1169 33.4183 17.5094 31.7532 17.5C30.2699 17.4917 28.8226 17.9574 27.4979 18.8501C25.1831 17.2954 22.5714 17.0863 20.2829 18.1912C17.5574 19.5069 15.8333 22.4508 15.8333 25.6657C15.8333 29.5077 17.7474 32.2028 19.7357 34.1561C18.157 34.0307 16.5752 32.8102 14.9361 31.5181C14.4744 31.1542 13.9968 30.7862 13.5104 30.4114Z" fill="white"/>
</svg>
