<svg width="40" height="40" viewBox="0 0 40 40" fill="none" xmlns="http://www.w3.org/2000/svg">
<path d="M9.44929 16.5239L14.5529 9.61879C17.8518 5.15538 19.5013 2.92367 21.0402 3.39527C22.5791 3.86688 22.5791 6.60407 22.5791 12.0784V12.5946C22.5791 14.5691 22.5791 15.5564 23.21 16.1756L23.2434 16.2077C23.8879 16.8139 24.9154 16.8139 26.9705 16.8139C30.6686 16.8139 32.5177 16.8139 33.1426 17.9354C33.1529 17.954 33.163 17.9727 33.1728 17.9916C33.7627 19.1305 32.6921 20.579 30.5508 23.4761L25.4473 30.381C22.1483 34.8445 20.4988 37.0762 18.9598 36.6046C17.4209 36.1329 17.4209 33.3957 17.421 27.9213L17.421 27.4053C17.421 25.4308 17.421 24.4436 16.7902 23.8243L16.7568 23.7922C16.1123 23.186 15.0847 23.186 13.0297 23.186C9.33155 23.186 7.48249 23.186 6.85758 22.0645C6.84723 22.0459 6.83717 22.0272 6.8274 22.0083C6.23748 20.8694 7.30809 19.4209 9.44929 16.5239Z" fill="white"/>
</svg>
