<svg width="192" height="192" viewBox="0 0 512 512" fill="none" xmlns="http://www.w3.org/2000/svg">
<path fill-rule="evenodd" clip-rule="evenodd" d="M273.055 394.126C272.47 394.13 271.882 394.132 271.292 394.132H136.272V172.882H196.322V232.086H222.078V278.385H196.322V346.263H225.779V313.69H225.812V219.522H225.779V172.882H225.792V168.959H136.271V117.869H362.393V168.952H286.201V172.882H362.393V189.445C362.399 189.864 362.402 190.285 362.402 190.707C362.402 205.094 359.317 217.83 352.603 228.554C346.527 238.023 338.415 245.564 328.266 251.177C330.722 252.04 333.116 253.001 335.446 254.058C348.128 259.551 357.95 267.791 364.912 278.777C372.123 289.763 375.729 303.234 375.729 319.19C375.729 342.732 366.901 361.173 349.247 374.514C334.246 385.626 313.231 392.018 286.202 393.689V394.126H273.055ZM286.202 344.56C292.651 343.258 298 341.21 302.25 338.416C310.456 332.923 314.559 324.291 314.559 312.52C314.559 301.011 310.456 292.51 302.25 287.017C298.853 284.559 294.753 282.627 289.95 281.219V224.233C297.902 218.74 301.877 210.502 301.877 199.519C301.877 188.795 297.899 180.817 289.942 175.585C288.775 174.754 287.529 173.985 286.202 173.28V226.434L286.216 226.427V280.261L286.202 280.258V344.56Z" fill="url(#paint0_linear_380_93)"/>
<defs>
<linearGradient id="paint0_linear_380_93" x1="147.097" y1="157.794" x2="402.954" y2="192.31" gradientUnits="userSpaceOnUse">
<stop stop-color="#2BBFFE"/>
<stop offset="0.521875" stop-color="#8629FD"/>
<stop offset="1" stop-color="#FC4AF5"/>
</linearGradient>
</defs>
</svg>
