<svg width="2418" height="2224" viewBox="0 0 2418 2224" fill="none" xmlns="http://www.w3.org/2000/svg">
<path fill-rule="evenodd" clip-rule="evenodd" d="M2403.85 1938.52C2349.32 1409.05 2169.87 1227.7 1579.53 1108.49C1228.25 1037.48 1135.04 949.337 1043.73 603.757C947.978 239.155 855.401 117.404 615.714 40.6793C497.137 2.63375 243.5 -11.9453 107.804 10.882C42.4925 21.6616 8.88564 40.6805 3.17869 70.4829C-6.33269 121.844 9.52164 478.203 33.6171 747.689C43.1285 852.948 45.6623 856.125 123.022 864.368C314.517 884.659 386.172 937.923 410.267 1079.96C415.974 1112.93 440.069 1247.36 441.972 1263.21C500.942 1692.49 601.764 1779.36 1180.06 1900.47C1443.84 1955.64 1527.53 2025.39 1543.38 2204.84C1545.29 2227.03 1541.49 2227.03 1646.75 2214.98C1685.43 2210.55 1857.9 2204.84 2030.37 2201.67C2455.21 2194.06 2431.75 2211.18 2403.85 1938.52ZM1737.42 2124.31C1581.44 2135.09 1595.39 2136.98 1590.31 2101.48C1576.36 1998.12 1535.78 1946.13 1426.72 1888.43C1357.6 1851.65 1237.12 1819.95 1079.24 1795.85C682.928 1734.98 566.888 1607.52 492.699 1155.42C464.799 983.578 453.386 940.459 426.754 903.682C355.102 804.764 233.988 809.83 110.974 804.757C110.974 804.757 100.829 651.307 98.2926 627.212C93.854 575.85 86.2468 577.759 201.652 601.22C367.784 634.827 447.678 676.677 517.428 767.352C589.082 860.564 610.641 930.948 664.539 1253.7C717.169 1568.21 861.108 1665.23 1364.58 1726.1C1702.55 1767.32 1814.15 1850.38 1843.32 2081.82L1847.75 2116.7L1737.42 2124.31ZM1899.75 2114.8C1893.41 2087.53 1878.83 2031.73 1874.39 2005.1C1831.9 1761.61 1719.03 1683.62 1340.47 1637.33C992.993 1594.84 932.754 1572.01 826.86 1442.02C774.865 1377.98 745.069 1317.74 733.021 1251.79C714.633 1153.51 738.728 1306.33 663.271 917.632C610.007 644.339 393.78 478.834 124.291 506.734L90.6854 510.545C78.6376 432.552 78.0017 276.564 63.4176 109.798C64.0516 109.798 348.125 95.8478 466.701 109.798C752.678 144.039 925.151 332.367 1000.61 692.53C1067.19 1011.48 1213.66 1150.98 1544.66 1209.31C1932.09 1277.8 2109 1373.54 2235.18 1582.79C2284.01 1663.32 2344.25 1894.77 2351.22 2027.29L2355.02 2098.31L1899.75 2114.8Z" fill="white" fill-opacity="0.2"/>
</svg>
