<svg width="794" height="793" viewBox="0 0 794 793" fill="none" xmlns="http://www.w3.org/2000/svg">
<path d="M458.304 164.472C457.179 147.178 456.094 103.558 459.123 99.9806C463.35 94.9892 470.598 93.3298 476.642 91.7513C476.795 77.0611 477.217 62.3103 476.996 47.6196C476.88 39.929 476.643 29.2118 480.163 22.1704C483.771 14.9518 499.163 7.98118 502.974 18.9291C504.833 24.2688 504.43 30.3897 504.706 35.9595C505.264 47.2173 505.226 58.4906 505.359 69.7567C509.654 62.9834 521.586 62.5019 526.667 68.6418C528.551 70.9185 528.985 74.0088 529.233 76.875C536.544 67.3123 547.188 76.2983 550.921 84.4363C552.854 83.7788 554.711 83.0633 556.764 82.8672C565.536 82.0292 570.352 91.0252 571.556 98.4706C572.621 105.06 572.894 144.385 572.541 163.395" stroke="#B41D8A" stroke-width="12" stroke-miterlimit="1.5" stroke-linecap="round" stroke-linejoin="round"/>
<path d="M476.591 91.675C476.256 101.5 477.727 111.41 477.333 121.257" stroke="#B41D8A" stroke-width="12" stroke-miterlimit="1.5" stroke-linecap="round" stroke-linejoin="round"/>
<path d="M453.279 189.589C453.002 181.516 453.229 173.251 453.369 165.44C462.6 163.829 471.821 164.921 481.092 165.055C489.94 165.182 498.812 164.39 507.672 164.425C530.842 164.518 554.133 162.561 577.312 163.39C577.204 169.823 577.573 179.547 577.708 187.885" stroke="#B41D8A" stroke-width="12" stroke-miterlimit="1.5" stroke-linecap="round" stroke-linejoin="round"/>
<path d="M426.328 779.471C425.259 753.91 428.765 707.752 415.744 682.837C407.989 667.998 389.618 667.447 375.081 666.906C338.31 665.535 309.259 663.249 272.36 662.466C89.0365 658.571 95.7052 331.958 280.681 326.944C309.669 326.158 338.444 323.9 367.522 324.509C392.847 325.038 400.222 309.549 402.469 286.608C405.589 254.759 398.337 221.475 402.693 189.926C427.008 191.434 451.268 188.475 475.531 188.543C498.099 188.605 520.971 189.185 543.541 188.34C541.033 200.569 543.95 215.941 544.314 228.483C545.202 259.131 540.417 315.92 539.317 346.58C538.674 364.51 536.772 387.551 526.437 402.781C513.199 422.29 490.06 437.428 468.992 447.442C453.585 454.765 436.619 459.52 419.639 460.989C397.193 462.931 374.484 465.743 352.12 467.491C327.716 469.398 301.729 473.704 297.723 499.339C296.403 507.788 298.544 516.001 304.744 522.122C318.502 535.706 381.441 534.476 395.235 534.305C441.593 533.726 509.64 538.618 546.76 585.474C563.201 606.229 568.2 656.241 567.793 680.906C567.26 713.068 568.852 737.859 566.589 769.973" stroke="#B41D8A" stroke-width="12" stroke-miterlimit="1.5" stroke-linecap="round" stroke-linejoin="round"/>
</svg>
