<svg width="1176" height="1036" viewBox="0 0 1176 1036" fill="none" xmlns="http://www.w3.org/2000/svg">
<path d="M385.5 395.76C364.93 399.37 341.17 408.84 317.27 417.79C296.06 425.74 274.96 434 252.84 439.15C243.14 441.4 233.33 442.58 223.49 440.01C207.11 435.73 202 422.03 211.8 408.39C220.13 396.79 231.79 388.9 243.54 381.29C272.71 362.39 303.92 347.1 334.17 330.1C352.46 319.82 370.7 309.48 386.69 295.67C393.21 290.04 398.04 283.23 401.73 275.51C409.76 258.7 406.21 243.83 391.13 232.81C376.61 222.2 359.68 217.16 342.52 213.04C321.66 208.04 300.67 203.62 279.76 198.83C276.26 198.03 272.78 196.88 269.49 195.43C259.73 191.11 259.23 186.3 268.05 180.01C278.12 172.84 289.51 169.37 301.82 168.48C327.94 166.59 353.12 172.35 378.33 177.79C398.82 182.21 419.16 187.46 440.12 189.3C446.59 189.87 453.11 190.09 459.6 189.99C472.9 189.78 482.93 183.42 490.74 172.93C505.22 153.49 513.36 130.99 521.82 108.66C530.7 85.21 538.33 61.27 548.93 38.49C553.52 28.64 558.42 18.92 566.27 11.12C572.62 4.81001 579.6 0.960007 588.99 4.20001C598.63 7.52001 601.17 15.17 601.69 24.08C602.43 36.82 599.2 48.97 595.54 60.98C584.62 96.79 569.53 131.05 556.46 166.06C540.42 209.03 525.13 252.24 520.36 298.26C517.5 325.91 519.65 353.65 519.85 381.35C520.13 419.9 521.63 458.49 515.78 496.8C513.96 508.73 511.34 520.5 505.45 531.26C498.2 544.5 488.43 549.99 474.88 548.38C460.8 546.71 452.07 538.91 448.05 524.72C443.07 507.16 445.42 489.28 445.62 471.51C445.76 459.46 446.16 447.43 444.39 435.42C439.54 402.55 423.07 390.21 385.5 395.76Z" fill="#B41E89"/>
<path d="M377.47 107.19C373.46 114.14 371.97 120.47 370.83 126.83C370.15 130.64 369.01 132.06 364.72 131.42C340.69 127.85 316.6 124.62 292.84 121.31C291.63 119.5 292.77 118.64 293.46 117.79C319.81 85.77 348.67 56.45 384.4 34.75C397.68 26.68 411.9 20.8 427.58 19.12C445.06 17.24 460.34 22.17 472.08 35.21C492.59 57.98 504.05 84.2 497.36 115.43C492.2 139.5 478.81 157.36 453.86 163.74C432.2 169.27 413.95 161.7 398.46 146.68C387.63 136.17 381.23 123.03 377.47 107.19Z" fill="#B41E89"/>
<path d="M790.52 396.02C817.73 401.91 843.21 412.85 869.02 422.86C890.59 431.22 911.99 440.12 935.18 443.17C941.94 444.06 948.65 444.04 955.19 441.83C968.29 437.41 973.05 424.48 965.7 412.83C957.9 400.48 946.24 392.19 934.44 384.2C905.06 364.29 873.28 348.45 842.75 330.49C822.6 318.64 801.85 307.5 785.9 289.9C766.34 268.33 768.96 244.09 792.38 226.94C813.97 211.13 839.23 203.39 864.18 195.08C883.85 188.53 904.12 183.72 922.9 174.65C928.93 171.74 936.16 169.12 936.42 161.1C936.66 153.65 930.06 150.1 924.84 146.47C912.22 137.71 897.9 136.95 883.2 138.7C856.77 141.84 832.44 151.92 807.98 161.56C785.77 170.32 763.89 179.99 740.59 185.67C732.84 187.56 725.01 188.71 716.97 188.17C705.55 187.41 697.05 181.9 690.27 172.93C676.07 154.13 668.25 132.3 660.31 110.53C651.64 86.73 644.36 62.42 634.19 39.18C629.25 27.9 624.1 16.69 615.17 7.79002C608.48 1.13002 600.85 -2.15999 591.61 1.84001C582.95 5.59001 580.38 13.04 580.15 21.84C579.65 40.81 585.51 58.49 591.43 76.07C606.99 122.25 625.73 167.29 640.35 213.82C655.05 260.61 660.4 308.17 657.8 357.2C655.39 402.61 653.13 448.19 658.93 493.6C660.47 505.61 662.97 517.44 668.41 528.36C677.54 546.69 694.36 552.44 711.87 543.43C720.99 538.74 725.24 530.49 727.42 521.02C731.69 502.45 729.72 483.58 729.71 464.83C729.7 452.75 730.03 440.75 732.52 428.86C737.95 402.98 755.17 390.67 781.26 394.32C784.37 394.77 787.44 395.45 790.52 396.02Z" fill="#B41E89"/>
<path d="M823.38 127.92C818.74 117.74 814.83 108.97 810.73 100.29C808.62 95.82 807.32 92.95 814.74 93.63C823.76 94.45 832.89 93.98 843.81 94.08C831.64 80.61 820.45 68.24 808.62 55.14C820.05 52.78 830.75 50.58 842.81 48.09C832.57 41.31 822.54 36.82 812.46 32.51C793.05 24.22 773.04 18.45 751.72 17.71C719.22 16.59 693.56 40.67 682.75 68.4C672.25 95.32 674.43 121.56 693.43 144.65C712.56 167.91 747.37 170.85 770.74 151.91C781.7 143.03 790.02 132.23 794.9 119.12C796.83 113.94 798.58 114.14 802.54 116.49C808.88 120.28 815.49 123.63 823.38 127.92Z" fill="#B41E89"/>
<path d="M1168.04 692.31L1167.58 692.29L677.47 645.26C653.51 642.96 630.93 654.31 616.38 673.48C616.36 673.51 616.33 673.54 616.31 673.56C610.16 680.16 601.79 684.63 592.26 685.52C580.69 686.61 570.03 682.55 562.31 675.37C562.22 675.28 562.11 675.16 562 675C548.27 655.1 526.16 642.7 502.1 645.01L8.42 692.29C4 692.31 0.779999 695.53 0.779999 699.48C0.779999 703.43 4 706.65 7.95 706.65L503.04 657.17C520.2 655.45 536.42 663.94 545.91 678.35C546.15 678.72 546.39 679.06 546.63 679.36C556.44 692.03 571.8 700.04 588.54 700.04C605.93 700.04 621.81 691.41 631.55 677.89L631.68 677.71C641.8 663.4 658.83 655.64 676.27 657.39L1168.53 706.67C1172.51 706.64 1176.17 702.4 1175 697.68C1174.22 694.56 1171.26 692.44 1168.04 692.31Z" fill="#B41E89"/>
<path d="M592.8 620.32C637 615.85 1071.04 598.85 1084.36 597.72C1072.51 566.87 1008.21 537.43 1008.21 537.43L992.59 529.77C992.6 529.78 592.82 616.08 592.8 620.32Z" fill="url(#paint0_linear_1_3)"/>
<path d="M174.93 529.99C170.99 529.03 162.79 531.58 162.79 531.58C162.79 531.58 109.59 557.26 95.12 586.71C149.28 591.68 548.09 614.1 592.8 620.16C592.81 615.72 243.36 546.6 174.93 529.99Z" fill="url(#paint1_linear_1_3)"/>
<path d="M258.65 504.99C235.96 498.72 212.71 482.51 197.44 499.75C192.04 505.85 187.78 506.32 194.8 510.87C207.58 519.14 549.59 595.63 592.8 615.95C592.61 612.08 463.9 561.74 258.65 504.99Z" fill="#B41E89"/>
<path d="M967.02 497.34C960.82 487.47 938.97 500.55 927.55 504.19C765.67 555.73 592.58 612.04 592.8 615.95C628.97 602.11 906.21 529.77 960.71 518.03C979.63 513.96 977.38 513.82 967.02 497.34Z" fill="#B41E89"/>
<path d="M84.12 603.78C72.4 603.88 18.85 676.99 32.56 675.7C224.34 657.62 407.42 626.23 592.8 626.2C593.07 623.48 141.93 603.29 84.12 603.78Z" fill="url(#paint2_linear_1_3)"/>
<path d="M1099.71 603.56C1081.89 603.34 593.02 623.91 592.79 626.2C776.67 626.17 953.72 649.16 1147.97 675.38C1166.96 677.94 1105.14 603.62 1099.71 603.56Z" fill="url(#paint3_linear_1_3)"/>
<path d="M78.77 922.95L66.24 923.04C57.45 923.17 51.03 923.35 46.98 923.6C43.36 923.92 40.77 924.07 39.21 924.07C35.41 924.07 32.39 923.1 30.14 921.17C27.95 919.24 26.87 916.93 26.87 914.25C26.87 912.51 27.28 911.13 28.08 910.13C28.89 909.14 30.85 907.57 33.98 905.46C35.79 904.21 37.03 902.26 37.72 899.61C38.41 896.95 39.15 891.27 39.96 882.53C41.14 868.94 41.74 852.2 41.74 832.31C41.74 825.01 41.25 820.17 40.29 817.76C39.32 815.36 37.06 813.38 33.51 811.82C29.39 810.08 27.34 807.51 27.34 804.15C27.34 801.4 28.57 799.16 31.03 797.41C33.5 795.67 36.66 794.8 40.53 794.8C42.65 794.8 45.36 794.89 48.67 795.08C54.15 795.32 60.08 795.45 66.44 795.45C71.12 795.45 80.32 795.26 94.03 794.89C98.33 794.76 102.22 794.7 105.72 794.7C114.01 794.7 120.7 795.37 125.79 796.71C130.87 798.05 135.29 800.31 139.03 803.49C145.14 808.67 148.19 815.59 148.19 824.26C148.19 828.56 147.29 832.75 145.48 836.84C143.67 840.92 141.24 844.18 138.18 846.62C136 848.36 134.91 849.95 134.91 851.39C134.91 852.94 136.22 854.25 138.84 855.32C143.95 857.37 148.6 860.83 152.77 865.7C157.08 870.75 159.23 877.07 159.23 884.68C159.23 893.66 155.95 901.86 149.41 909.28C140.74 919.07 127.93 923.97 110.97 923.97C108.66 923.97 102.98 923.81 93.95 923.5C85.7 923.19 80.65 923.01 78.77 922.95ZM85.23 821.46V840.73C85.23 843.78 85.62 845.93 86.4 847.18C87.18 848.43 88.54 849.05 90.47 849.05C95.08 849.05 98.47 847.63 100.66 844.79C102.85 841.95 103.93 837.51 103.93 831.46C103.93 825.6 102.81 821.06 100.57 817.85C98.32 814.64 95.14 813.03 91.03 813.03C88.84 813.03 87.33 813.64 86.49 814.85C85.64 816.09 85.23 818.28 85.23 821.46ZM85.23 875.33V884.22C85.23 892.39 85.82 897.81 87.01 900.49C88.19 903.17 90.59 904.51 94.21 904.51C103.69 904.51 108.42 898.96 108.42 887.86C108.42 874.02 103.13 867.1 92.52 867.1C89.78 867.1 87.88 867.7 86.82 868.88C85.75 870.07 85.23 872.22 85.23 875.33Z" fill="#B41E89"/>
<path d="M208.96 830.44C212.27 830.44 214.28 830.91 215 831.84C215.71 832.78 216.36 835.77 216.92 840.82C217.24 843.57 218.2 844.94 219.82 844.94C221.07 844.94 222.25 844.04 223.38 842.22C228.37 834.43 234.88 830.53 242.92 830.53C248.59 830.53 253.25 832.37 256.86 836.05C258.6 837.86 260.04 840.18 261.16 843.02C262.28 845.86 262.84 848.59 262.84 851.21C262.84 854.15 262.15 857.15 260.79 860.24C259.42 863.33 257.64 865.87 255.46 867.87C251.47 871.67 246.57 873.57 240.77 873.57C237.59 873.57 234.92 873.01 232.77 871.89C230.62 870.77 227.8 868.49 224.3 865.06C222.99 863.75 221.78 863.1 220.65 863.1C218.91 863.1 217.77 864.08 217.24 866.05C216.71 868.01 216.44 872.15 216.44 878.45C216.44 887.86 216.77 894.29 217.46 897.71C217.9 899.58 218.51 900.88 219.28 901.59C220.07 902.3 221.73 903.04 224.29 903.79C229.9 905.48 232.71 908.41 232.71 912.59C232.71 915.15 231.81 917.37 230 919.28C228.18 921.18 225.79 922.44 222.8 923.07C216.81 924.32 208.02 924.94 196.42 924.94C185.38 924.94 177 923.97 171.26 922.04C166.15 920.3 163.59 917.27 163.59 912.97C163.59 909.73 165.46 906.83 169.2 904.27C171.02 903.09 172.26 902.01 172.95 901.04C173.63 900.07 174.1 898.75 174.35 897.06C175.34 891.39 175.85 880.88 175.85 865.54C175.85 862.74 175.53 860.72 174.91 859.5C174.29 858.29 173.04 857.3 171.17 856.55C166.74 854.81 164.53 852.29 164.53 848.98C164.53 845.98 166.06 843.41 169.11 841.26C172.16 839.1 177.28 836.97 184.45 834.85C194.07 831.97 202.23 830.5 208.96 830.44Z" fill="#B41E89"/>
<path d="M321.02 836.33V890.67C321.02 894.97 321.41 898.12 322.19 900.12C322.97 902.12 324.55 903.95 326.92 905.63C328.85 907 330.15 908.18 330.8 909.14C331.45 910.11 331.78 911.34 331.78 912.84C331.78 920.88 321.59 924.9 301.2 924.9C290.22 924.9 281.52 924.02 275.11 922.28C272.92 921.66 271.16 920.56 269.82 919.01C268.47 917.45 267.81 915.68 267.81 913.68C267.81 911.99 268.15 910.68 268.84 909.75C269.53 908.81 271.27 907.32 274.08 905.26C276.01 903.82 277.38 901.48 278.19 898.25C279 895.01 279.41 890.17 279.41 883.75C279.41 881.69 279.27 877.84 278.99 872.19C278.71 866.55 278.51 863.26 278.38 862.32C278.01 859.76 276.26 857.8 273.14 856.43C269.27 854.75 267.34 852.26 267.34 848.95C267.34 845.02 269.87 842.09 274.92 840.16C281.9 837.48 289.38 835.2 297.37 833.33C305.35 831.46 311.52 830.52 315.88 830.52C319.3 830.53 321.02 832.46 321.02 836.33ZM302.5 795.37C307.92 795.37 312.23 796.38 315.41 798.41C318.59 800.43 320.18 803.16 320.18 806.6C320.18 811.4 317.78 815.2 312.97 818.01C305.36 822.44 296.17 824.65 285.38 824.65C280.83 824.65 277.21 823.77 274.53 822.03C270.92 819.79 269.11 816.67 269.11 812.68C269.11 807.31 272.94 803.1 280.61 800.05C288.4 796.92 295.7 795.37 302.5 795.37Z" fill="#B41E89"/>
<path d="M436.71 824.83C438.27 824.83 439.65 825.72 440.83 827.5C442.01 829.27 442.6 831.35 442.6 833.72C442.6 836.28 441.8 839.18 440.22 842.42C438.63 845.66 436.71 848.25 434.47 850.18C433.03 851.43 432.32 852.43 432.32 853.18C432.32 853.36 432.37 854.11 432.5 855.42C432.69 856.73 432.78 857.91 432.78 858.97C432.78 866.4 430.29 872.63 425.3 877.68C420.81 882.17 415.03 885.66 407.95 888.15C400.87 890.65 393.09 891.9 384.61 891.9C382.55 891.9 380.52 891.77 378.53 891.52C376.9 891.33 375.66 891.24 374.79 891.24C371.48 891.24 369.83 892.89 369.83 896.2C369.83 898.32 370.91 899.99 373.06 901.21C375.21 902.42 378.13 903.03 381.81 903.03C384.29 903.03 387.97 902.69 392.84 902C403.07 900.56 410.61 899.85 415.47 899.85C422.83 899.85 428.53 901.06 432.59 903.49C435.83 905.36 438.4 907.98 440.31 911.35C442.21 914.72 443.16 918.33 443.16 922.2C443.16 928.5 440.85 934.6 436.24 940.53C430.75 947.51 422.67 952.69 412.01 956.05C403.65 958.67 394 959.98 383.02 959.98C369.17 959.98 357.95 957.87 349.35 953.62C345.36 951.62 342.18 949 339.81 945.77C337.43 942.53 336.25 939.16 336.25 935.67C336.25 933.23 336.92 930.99 338.26 928.93C339.6 926.87 341.3 925.41 343.36 924.54C345.23 923.79 346.17 922.98 346.17 922.1C346.17 921.42 345.38 920.42 343.83 919.11C338.84 914.94 336.35 910.6 336.35 906.11C336.35 903.12 337.54 900.03 339.95 896.85C342.35 893.67 345.33 891.21 348.89 889.46C350.39 888.72 351.13 887.97 351.13 887.22C351.13 886.34 350.2 885.03 348.33 883.29C341.91 877.37 338.69 870.44 338.69 862.53C338.69 858.36 339.83 854.36 342.11 850.56C344.39 846.76 347.55 843.51 351.61 840.83C361.65 834.28 372.78 831.01 385.01 831.01C389.87 831.01 395.29 831.63 401.28 832.88C406.95 834 410.85 834.56 412.97 834.56C419.76 834.56 426.53 831.89 433.26 826.52C434.75 825.39 435.91 824.83 436.71 824.83ZM365.54 929.31C363.98 929.31 363.2 930.21 363.2 932.02C363.2 935.7 365.2 938.68 369.18 940.96C373.17 943.23 378.35 944.37 384.71 944.37C390.83 944.37 395.61 943.57 399.07 941.94C402.53 940.32 404.26 938.05 404.26 935.11C404.26 933.56 403.6 932.23 402.3 931.14C400.99 930.05 399.36 929.5 397.43 929.5C396.44 929.5 395 929.63 393.13 929.88C389.63 930.44 385.74 930.72 381.44 930.72C378.26 930.72 375.2 930.57 372.27 930.25C370.08 930.06 368.31 929.82 366.94 929.5C366.32 929.36 365.85 929.31 365.54 929.31ZM385.93 844.19C382.81 844.19 380.3 845.37 378.4 847.74C376.5 850.11 375.55 853.26 375.55 857.19C375.55 863.92 376.58 869.31 378.64 873.37C380.7 877.42 383.42 879.45 386.78 879.45C390.09 879.45 392.71 878.19 394.64 875.66C396.56 873.14 397.54 869.76 397.54 865.51C397.54 858.84 396.52 853.65 394.5 849.93C392.46 846.23 389.61 844.32 385.93 844.19Z" fill="#B41E89"/>
<path d="M500.04 799.95L498.83 839.14C498.7 843.81 500.14 846.15 503.13 846.15C504.63 846.15 506.09 845.12 507.53 843.06C513.57 834.27 521.65 829.88 531.75 829.88C541.66 829.88 549.55 832.91 555.41 838.95C558.03 841.63 559.88 844.81 560.98 848.49C562.07 852.17 562.68 857.43 562.8 864.3L563.64 898.06C563.7 900.99 564.09 903.14 564.81 904.51C565.52 905.88 567.2 907.6 569.82 909.66C571.63 911.09 572.53 912.8 572.53 914.8C572.53 921.53 562.37 924.9 542.04 924.9C523.95 924.9 514.92 921.76 514.92 915.45C514.92 914.39 515.07 913.58 515.38 913.02C515.7 912.46 516.79 910.97 518.66 908.53C521.28 905.11 522.58 896.53 522.58 882.81C522.58 874.53 521.8 868.47 520.25 864.67C518.19 859.49 514.51 856.91 509.21 856.91C505.41 856.91 502.6 858.28 500.79 861.02C499.48 863.02 498.83 866.76 498.83 872.25V890.3C499.26 898.28 499.64 902.79 499.95 903.86C500.27 904.92 501.69 906.89 504.25 909.75C505.43 911.06 506.03 912.59 506.03 914.33C506.03 921.38 496.86 924.9 478.53 924.9C457.08 924.9 446.36 921.25 446.36 913.96C446.36 912.27 446.7 910.98 447.39 910.08C448.08 909.18 449.76 907.79 452.44 905.92C454.81 904.24 456.44 899.7 457.35 892.31C458.26 884.92 458.71 872.69 458.71 855.6C458.71 842.19 458.33 832.91 457.58 827.73C457.34 825.8 456.88 824.38 456.22 823.47C455.57 822.57 454.33 821.65 452.52 820.71C448.65 818.71 446.72 816.41 446.72 813.79C446.72 810.67 448.19 808.15 451.12 806.22C454.05 804.29 459.67 802.19 467.96 799.95C479.18 796.83 488.12 795.27 494.8 795.27C498.42 795.27 500.16 796.83 500.04 799.95Z" fill="#B41E89"/>
<path d="M633.6 854.38V885.99C633.6 889.73 634.52 892.79 636.36 895.16C638.2 897.53 640.55 898.71 643.43 898.71C645.86 898.71 649.07 897.59 653.06 895.35C654 894.78 654.93 894.5 655.87 894.5C657.36 894.5 658.73 895.41 659.98 897.22C661.23 899.03 661.85 900.99 661.85 903.11C661.85 906.98 659.74 910.68 655.49 914.24C646.64 921.78 635.91 925.56 623.32 925.56C613.35 925.56 605.33 922.73 599.28 917.09C593.24 911.44 590.21 904.01 590.21 894.77V851.57C590.21 850.13 590.04 849.25 589.7 848.9C589.36 848.55 588.47 848.39 587.03 848.39H577.4C575.59 848.39 574.44 848.09 573.94 847.5C573.44 846.91 573.19 845.52 573.19 843.34V839.22C573.25 837.35 573.97 835.98 575.34 835.1L618.18 808.17C619.24 807.61 620.55 807.33 622.11 807.33H629.68C631.24 807.33 632.28 807.69 632.81 808.41C633.33 809.12 633.61 810.54 633.61 812.67V825.29C633.61 827.17 633.91 828.38 634.5 828.94C635.1 829.5 636.36 829.78 638.29 829.78H655.59C657.89 829.78 659.39 830.2 660.08 831.04C660.77 831.88 661.11 833.68 661.11 836.42V841.94C661.11 844.94 660.67 847.01 659.8 848.16C658.92 849.31 657.33 849.89 655.03 849.89H638.1C636.36 849.89 635.16 850.21 634.54 850.83C633.91 851.46 633.6 852.64 633.6 854.38Z" fill="#B41E89"/>
<path d="M822.91 820.9L812.9 830.53C809.22 834.03 807.38 837.21 807.38 840.07C807.38 841.63 807.8 843.19 808.64 844.75C809.48 846.3 811.05 848.43 813.37 851.11L848.35 891.61C851.47 895.22 853.62 897.52 854.8 898.48C855.98 899.46 857.76 900.47 860.13 901.52C863.5 902.96 865.88 904.55 867.29 906.29C868.7 908.03 869.4 910.31 869.4 913.12C869.4 919.72 864.69 923.03 855.28 923.03H819.83C817.4 923.03 815.48 922.5 814.07 921.44C812.67 920.38 810.44 917.76 807.38 913.58C802.52 906.91 796.1 899.24 788.12 890.58C784.62 886.84 782.18 884.39 780.77 883.24C779.37 882.08 778.07 881.51 776.89 881.51C773.28 881.51 771.47 884.92 771.47 891.71C771.47 897.26 772.65 901.1 775.02 903.21C775.45 903.53 776.46 904.21 778.02 905.27C781.38 907.46 783.07 910.17 783.07 913.41C783.07 917.52 780.32 920.47 774.84 922.25C769.35 924.03 760.12 924.92 747.15 924.92C735.61 924.92 727.19 924.23 721.9 922.86C719.65 922.24 717.83 921.1 716.43 919.44C715.03 917.8 714.33 915.93 714.33 913.87C714.33 910.57 716.2 907.74 719.95 905.36C721.63 904.24 722.83 903.01 723.55 901.66C724.26 900.32 724.94 898.06 725.56 894.88C726.81 887.83 727.43 876.98 727.43 862.33C727.43 844.88 726.77 832.5 725.46 825.2C724.96 822.21 724.28 820.06 723.41 818.75C722.53 817.44 721.01 816.16 718.82 814.91C715.33 812.92 713.59 810.14 713.59 806.59C713.59 803.6 714.67 801.2 716.86 799.39C719.04 797.58 722.53 796.21 727.33 795.27C733.69 794.02 741.68 793.4 751.28 793.4C761.06 793.4 768.33 794.34 773.07 796.21C777.31 797.95 779.43 801.07 779.43 805.56C779.43 807.43 779.1 808.88 778.45 809.91C777.8 810.94 776.09 812.55 773.35 814.73C772.35 815.6 771.43 817.69 770.59 820.99C769.75 824.3 769.33 827.54 769.33 830.72C769.33 835.96 770.51 838.58 772.88 838.58C774.32 838.58 775.7 837.96 777.04 836.7C778.38 835.46 781.08 832.34 785.13 827.35C789.81 821.55 792.15 817.59 792.15 815.47C792.15 814.35 791.55 812.67 790.37 810.42C789.56 808.87 789.15 807.43 789.15 806.12C789.15 801.5 791.64 798.25 796.64 796.34C801.63 794.44 810.14 793.49 822.17 793.49C831.77 793.49 838.88 794.11 843.49 795.36C849.16 796.91 852 800.22 852 805.27C852 807.27 851.41 809.12 850.23 810.84C849.05 812.56 847.57 813.66 845.83 814.16C844.52 814.59 841.49 814.85 836.76 814.9C833.45 814.96 830.98 815.35 829.32 816.07C827.66 816.8 825.53 818.41 822.91 820.9Z" fill="#B41E89"/>
<path d="M925.04 836.33V890.67C925.04 894.97 925.44 898.12 926.21 900.12C926.99 902.12 928.56 903.95 930.93 905.63C932.86 907 934.16 908.18 934.81 909.14C935.47 910.11 935.79 911.34 935.79 912.84C935.79 920.88 925.6 924.9 905.21 924.9C894.23 924.9 885.53 924.02 879.11 922.28C876.93 921.66 875.17 920.56 873.82 919.01C872.48 917.45 871.81 915.68 871.81 913.68C871.81 911.99 872.15 910.68 872.84 909.75C873.53 908.81 875.27 907.32 878.07 905.26C880 903.82 881.38 901.48 882.19 898.25C883 895.01 883.41 890.17 883.41 883.75C883.41 881.69 883.27 877.84 882.99 872.19C882.71 866.55 882.5 863.26 882.38 862.32C882 859.76 880.26 857.8 877.14 856.43C873.27 854.75 871.34 852.26 871.34 848.95C871.34 845.02 873.87 842.09 878.92 840.16C885.9 837.48 893.38 835.2 901.36 833.33C909.35 831.46 915.52 830.52 919.88 830.52C923.33 830.53 925.04 832.46 925.04 836.33ZM906.52 795.37C911.94 795.37 916.24 796.38 919.42 798.41C922.6 800.43 924.19 803.16 924.19 806.6C924.19 811.4 921.8 815.2 916.99 818.01C909.38 822.44 900.19 824.65 889.4 824.65C884.85 824.65 881.23 823.77 878.55 822.03C874.94 819.79 873.13 816.67 873.13 812.68C873.13 807.31 876.96 803.1 884.63 800.05C892.43 796.92 899.72 795.37 906.52 795.37Z" fill="#B41E89"/>
<path d="M1050.66 802.85V888.24C1050.66 893.1 1050.86 896.22 1051.27 897.59C1051.68 898.96 1052.81 900.3 1054.69 901.61C1056.93 903.17 1058.45 904.55 1059.23 905.73C1060.01 906.91 1060.4 908.35 1060.4 910.03C1060.4 915.02 1055.39 918.82 1045.35 921.44C1036.31 923.74 1027.26 924.9 1018.22 924.9C1016.22 924.9 1014.93 924.6 1014.34 924.01C1013.74 923.41 1013.36 922 1013.17 919.75C1012.86 916.57 1011.73 914.98 1009.81 914.98C1008.74 914.98 1007.09 915.91 1004.85 917.78C998.49 922.96 991.41 925.55 983.62 925.55C973.95 925.55 965.25 921.96 957.52 914.79C952.98 910.49 949.29 905.53 946.49 899.92C942.75 892.62 940.88 885.24 940.88 877.75C940.88 868.96 943.31 860.49 948.17 852.31C952.66 844.77 958.77 838.98 966.5 834.92C972.99 831.55 979.37 829.87 985.68 829.87C992.91 829.87 999.39 831.49 1005.13 834.73C1006.06 835.23 1006.81 835.48 1007.37 835.48C1009.37 835.48 1010.37 832.8 1010.37 827.44C1010.37 825.13 1009.82 823.37 1008.73 822.15C1007.65 820.93 1005.69 819.89 1002.88 819.02C998.96 817.77 996.99 815.59 996.99 812.47C996.99 807.92 1001.52 804.37 1010.55 801.81C1026.51 797.38 1037.21 795.17 1042.63 795.17C1047.98 795.18 1050.66 797.74 1050.66 802.85ZM999.87 849.89C995.81 849.89 992.61 852.04 990.24 856.35C987.06 862.09 985.47 869.63 985.47 878.98C985.47 887.46 987 893.85 990.05 898.15C992.24 901.27 995.2 902.83 998.94 902.83C1002.99 902.83 1005.93 900.47 1007.78 895.77C1009.61 891.06 1010.54 883.47 1010.54 872.99C1010.54 863.4 1009.46 857 1007.27 853.82C1005.58 851.33 1003.11 850.02 999.87 849.89Z" fill="#B41E89"/>
<path d="M1103.3 829.88C1106.43 829.88 1111.5 830.57 1118.55 831.94C1119.99 832.18 1121.17 832.31 1122.1 832.31C1123.17 832.31 1125.22 831.75 1128.28 830.63C1129.71 830.06 1130.93 829.78 1131.92 829.78C1134.79 829.78 1137.69 831.62 1140.62 835.3C1142.99 838.24 1144.92 841.44 1146.42 844.94C1147.92 848.43 1148.67 851.45 1148.67 854.01C1148.67 856.5 1147.79 858.57 1146.05 860.23C1144.3 861.88 1142.12 862.71 1139.5 862.71C1137.31 862.71 1135.37 862.18 1133.65 861.12C1131.93 860.05 1129.18 857.71 1125.37 854.1C1121.38 850.23 1118.07 848.3 1115.45 848.3C1113.71 848.3 1112.2 848.94 1110.91 850.22C1109.64 851.5 1108.99 853.01 1108.99 854.76C1108.99 857.81 1111.92 860.68 1117.78 863.36C1128.31 868.1 1136.39 873.27 1142 878.89C1146.74 883.62 1149.11 889.42 1149.11 896.28C1149.11 904.95 1145.31 912.18 1137.7 917.98C1131.16 923.03 1123.15 925.56 1113.67 925.56C1111.23 925.56 1106.8 925.15 1100.39 924.34C1094.34 923.65 1090.94 923.31 1090.19 923.31C1089.38 923.31 1088.45 923.4 1087.39 923.59C1085.57 923.84 1084.26 923.97 1083.46 923.97C1080.52 923.97 1078.22 923.22 1076.54 921.72C1073.98 919.42 1071.61 915.78 1069.43 910.82C1067.24 905.86 1066.15 901.6 1066.15 898.05C1066.15 892.31 1068.4 889.44 1072.89 889.44C1074.63 889.44 1076.24 890.02 1077.71 891.17C1079.17 892.33 1082.25 895.4 1086.93 900.39C1089.49 903.13 1091.6 905.02 1093.29 906.05C1094.97 907.08 1096.78 907.59 1098.71 907.59C1100.77 907.59 1102.42 907.04 1103.67 905.95C1104.92 904.86 1105.54 903.41 1105.54 901.6C1105.54 898.8 1103.14 896.24 1098.34 893.93C1088.29 889.01 1081.05 883.93 1076.59 878.69C1072.13 873.45 1069.9 867.41 1069.9 860.54C1069.9 853.12 1072.17 846.74 1076.72 841.37C1083.23 833.71 1092.08 829.88 1103.3 829.88Z" fill="#B41E89"/>
<path d="M78.08 1004.33V1012.63C78.08 1017.64 77.71 1021.19 76.96 1023.28C75.35 1027.68 71.81 1030.86 66.35 1032.84C63.04 1034.06 59.3 1034.68 55.13 1034.68C47.85 1034.68 42.02 1032.95 37.65 1029.48C35.52 1027.78 34.04 1025.81 33.23 1023.56C32.41 1021.31 32.01 1018.07 32.01 1013.83C32.01 1012.17 32.07 1009.45 32.18 1005.67C32.25 1003 32.28 1001.23 32.28 1000.36C32.28 998.48 32.14 997.17 31.85 996.45C31.56 995.73 30.95 995.04 30 994.41C28.5 993.44 27.76 992.35 27.76 991.15C27.76 990.27 28.14 989.48 28.9 988.8C29.66 988.12 30.66 987.66 31.91 987.41C34.4 986.91 37.35 986.66 40.75 986.66C44.49 986.66 47.6 986.94 50.07 987.51C52.5 988.05 53.71 989.29 53.71 991.22C53.71 992.17 53.36 992.93 52.66 993.5C52.5 993.64 51.82 993.99 50.62 994.55C49.89 994.87 49.4 995.45 49.14 996.28C48.88 997.11 48.75 998.5 48.75 1000.43C48.75 1002.4 48.66 1006.67 48.48 1013.22C48.37 1017.12 49.42 1020.09 51.64 1022.13C53.45 1023.81 55.79 1024.65 58.65 1024.65C60.46 1024.65 62.11 1024.32 63.58 1023.65C65.05 1022.98 66.18 1022.07 66.95 1020.91C67.56 1020.03 67.98 1019.04 68.21 1017.95C68.44 1016.86 68.55 1015.38 68.55 1013.49V1006C68.44 1000.26 68.27 996.9 68.06 995.92C67.84 994.93 67.11 994.16 65.87 993.59C64.69 993.07 63.89 992.59 63.45 992.16C63.01 991.73 62.8 991.2 62.8 990.56C62.8 989.2 63.61 988.21 65.23 987.58C66.85 986.96 69.45 986.64 73.04 986.64C76.55 986.64 79.1 986.95 80.68 987.56C82.26 988.17 83.04 989.15 83.04 990.48C83.04 991.14 82.9 991.63 82.63 991.94C82.36 992.25 81.64 992.74 80.49 993.4C79.29 994.08 78.6 994.81 78.43 995.59C78.23 996.39 78.13 999.3 78.08 1004.33Z" fill="#B41E89"/>
<path d="M124.64 996.61L121 1000.11C119.66 1001.38 118.99 1002.54 118.99 1003.58C118.99 1004.15 119.14 1004.71 119.45 1005.28C119.76 1005.85 120.33 1006.62 121.17 1007.59L133.89 1022.32C135.02 1023.64 135.81 1024.47 136.24 1024.82C136.67 1025.17 137.32 1025.54 138.18 1025.93C139.4 1026.45 140.27 1027.03 140.78 1027.66C141.29 1028.29 141.55 1029.12 141.55 1030.14C141.55 1032.54 139.84 1033.75 136.41 1033.75H123.52C122.64 1033.75 121.94 1033.56 121.43 1033.17C120.92 1032.78 120.11 1031.83 119 1030.31C117.23 1027.88 114.9 1025.1 111.99 1021.94C110.72 1020.58 109.83 1019.69 109.32 1019.27C108.81 1018.85 108.34 1018.64 107.91 1018.64C106.6 1018.64 105.94 1019.88 105.94 1022.35C105.94 1024.37 106.37 1025.76 107.23 1026.53C107.39 1026.64 107.75 1026.89 108.32 1027.28C109.54 1028.07 110.16 1029.06 110.16 1030.24C110.16 1031.74 109.16 1032.81 107.17 1033.45C105.17 1034.1 101.82 1034.42 97.1 1034.42C92.9 1034.42 89.84 1034.17 87.92 1033.67C87.1 1033.44 86.44 1033.03 85.93 1032.43C85.42 1031.83 85.16 1031.15 85.16 1030.41C85.16 1029.21 85.84 1028.18 87.2 1027.32C87.81 1026.91 88.25 1026.46 88.51 1025.98C88.77 1025.49 89.01 1024.67 89.24 1023.51C89.69 1020.95 89.92 1017 89.92 1011.67C89.92 1005.32 89.68 1000.82 89.21 998.17C89.03 997.08 88.78 996.3 88.46 995.82C88.14 995.34 87.59 994.88 86.79 994.43C85.52 993.71 84.89 992.7 84.89 991.4C84.89 990.31 85.29 989.44 86.08 988.78C86.87 988.12 88.14 987.62 89.89 987.28C92.2 986.83 95.1 986.6 98.6 986.6C102.16 986.6 104.8 986.94 106.52 987.62C108.06 988.25 108.83 989.39 108.83 991.02C108.83 991.7 108.71 992.23 108.47 992.6C108.23 992.97 107.61 993.56 106.62 994.35C106.26 994.67 105.92 995.43 105.62 996.63C105.31 997.83 105.16 999.01 105.16 1000.17C105.16 1002.08 105.59 1003.03 106.45 1003.03C106.97 1003.03 107.48 1002.8 107.96 1002.35C108.45 1001.9 109.43 1000.76 110.9 998.95C112.6 996.84 113.45 995.4 113.45 994.63C113.45 994.22 113.23 993.61 112.8 992.79C112.51 992.22 112.36 991.7 112.36 991.23C112.36 989.55 113.27 988.37 115.08 987.68C116.89 986.99 119.99 986.64 124.37 986.64C127.86 986.64 130.45 986.87 132.12 987.32C134.18 987.89 135.21 989.09 135.21 990.93C135.21 991.66 134.99 992.33 134.56 992.95C134.13 993.57 133.6 993.98 132.96 994.16C132.48 994.32 131.38 994.41 129.66 994.43C128.46 994.45 127.56 994.6 126.96 994.86C126.37 995.12 125.6 995.7 124.64 996.61Z" fill="#B41E89"/>
<path d="M165.18 1014.23C164.32 1014.23 163.77 1014.49 163.53 1015.01C163.29 1015.53 163.17 1016.74 163.17 1018.65C163.17 1021.53 163.35 1023.77 163.71 1025.38C163.82 1025.83 163.99 1026.19 164.22 1026.43C164.45 1026.68 164.88 1026.99 165.51 1027.35C166.87 1028.1 167.55 1029.09 167.55 1030.31C167.55 1031.81 166.6 1032.87 164.71 1033.49C162.82 1034.11 159.61 1034.43 155.1 1034.43C146.71 1034.43 142.52 1032.84 142.52 1029.67C142.52 1029.13 142.64 1028.69 142.89 1028.36C143.14 1028.03 143.71 1027.57 144.59 1026.98C145.59 1026.32 146.26 1025.55 146.61 1024.65C146.96 1023.75 147.21 1022.21 147.34 1020.01C147.45 1018.4 147.51 1012.63 147.51 1002.7C147.51 999.55 147.35 997.41 147.03 996.27C146.71 995.13 146.03 994.31 144.99 993.79C143.99 993.31 143.32 992.88 142.98 992.48C142.64 992.08 142.47 991.57 142.47 990.93C142.47 990.09 142.79 989.36 143.44 988.74C144.09 988.12 144.99 987.66 146.14 987.36C147.12 987.11 148.45 986.99 150.15 986.99C150.9 986.99 152.77 987.1 155.76 987.33C156.33 987.38 157.22 987.4 158.45 987.4C160.49 987.4 163.21 987.26 166.61 986.99C168.76 986.83 170.27 986.75 171.13 986.75C175.98 986.75 180 987.92 183.17 990.25C186.03 992.36 187.46 995.28 187.46 999.02C187.46 1001.11 186.96 1003.01 185.96 1004.72C184.96 1006.43 183.59 1007.72 181.84 1008.58C181.11 1008.94 180.75 1009.37 180.75 1009.87C180.75 1010.53 181.31 1011.06 182.42 1011.47C184.8 1012.33 186.55 1013.64 187.66 1015.38C188.77 1017.12 189.56 1019.8 190.04 1023.41C190.24 1024.91 190.54 1025.88 190.92 1026.32C191.31 1026.76 192.2 1027.19 193.61 1027.6C194.04 1027.74 194.4 1028.03 194.7 1028.47C194.99 1028.91 195.14 1029.41 195.14 1029.95C195.14 1030.65 194.87 1031.36 194.32 1032.08C193.78 1032.79 193.07 1033.36 192.21 1033.76C190.31 1034.64 187.7 1035.09 184.39 1035.09C179.97 1035.09 176.81 1033.92 174.9 1031.59C174.04 1030.55 173.31 1029.23 172.71 1027.64C172.11 1026.05 171.4 1023.58 170.58 1020.23C170.06 1018.08 169.39 1016.56 168.59 1015.67C167.83 1014.77 166.68 1014.3 165.18 1014.23ZM163.21 996.88L162.84 1004.8C162.84 1004.87 162.84 1004.97 162.84 1005.11C162.84 1005.93 162.96 1006.47 163.2 1006.74C163.44 1007.01 163.92 1007.15 164.65 1007.15C166.65 1007.15 168.1 1006.63 169 1005.6C169.91 1004.57 170.36 1002.92 170.36 1000.65C170.36 996.27 168.81 994.09 165.7 994.09C164.82 994.09 164.19 994.29 163.83 994.7C163.47 995.11 163.26 995.84 163.21 996.88Z" fill="#B41E89"/>
<path d="M240.96 1010.25L247.39 1024.02C248 1025.29 248.51 1026.12 248.92 1026.52C249.33 1026.92 249.95 1027.18 250.79 1027.32C252.42 1027.57 253.24 1028.4 253.24 1029.8C253.24 1031.46 252.24 1032.65 250.25 1033.37C248.25 1034.1 244.99 1034.46 240.45 1034.46C235.33 1034.46 231.53 1034.24 229.06 1033.81C227.93 1033.61 227.02 1033.19 226.36 1032.57C225.69 1031.95 225.36 1031.19 225.36 1030.31C225.36 1029.63 225.54 1029.1 225.89 1028.73C226.24 1028.36 226.89 1028.01 227.85 1027.69C228.92 1027.33 229.45 1026.72 229.45 1025.85C229.45 1024.33 228.53 1023.43 226.7 1023.16C224.73 1022.89 221.95 1022.75 218.37 1022.75C215.35 1022.75 213.55 1022.93 212.96 1023.29C212.6 1023.52 212.28 1023.92 212.01 1024.51C211.74 1025.1 211.6 1025.67 211.6 1026.21C211.6 1026.71 211.7 1027.03 211.89 1027.18C212.08 1027.33 212.71 1027.57 213.78 1027.91C215.16 1028.32 215.85 1029.13 215.85 1030.36C215.85 1033.06 212.62 1034.41 206.16 1034.41C202.49 1034.41 199.79 1034.16 198.07 1033.66C196.48 1033.18 195.69 1032.14 195.69 1030.53C195.69 1029.83 195.87 1029.28 196.22 1028.9C196.57 1028.52 197.2 1028.16 198.11 1027.85C199.58 1027.33 200.7 1026.6 201.46 1025.66C202.22 1024.72 203.3 1022.71 204.71 1019.62L209.51 1009.11C211.28 1005.26 212.46 1002.37 213.06 1000.45C213.66 998.53 213.97 996.66 214 994.82C214.02 992.87 214.14 991.52 214.36 990.76C214.58 990 215.06 989.26 215.81 988.53C217.37 986.94 219.37 986.15 221.8 986.15C224.09 986.15 226.28 987.05 228.36 988.84C231.21 991.3 235.43 998.44 240.96 1010.25ZM217.29 1014.53H223.96C225.18 1014.53 225.8 1014.26 225.8 1013.71C225.8 1012.96 224.95 1011.13 223.25 1008.2C222.48 1006.86 221.89 1005.97 221.48 1005.51C221.07 1005.06 220.64 1004.83 220.19 1004.83C219.37 1004.83 218.69 1005.59 218.15 1007.11C218.06 1007.31 217.73 1008.12 217.16 1009.53C216.21 1011.84 215.73 1013.23 215.73 1013.68C215.73 1014.25 216.25 1014.53 217.29 1014.53Z" fill="#B41E89"/>
<path d="M269.16 986.61C271.74 986.61 274.18 986.84 276.47 987.29C279.55 987.9 281.1 989.21 281.1 991.2C281.1 991.86 280.95 992.35 280.64 992.68C280.33 993.01 279.56 993.49 278.31 994.13C277.27 994.65 276.58 995.8 276.25 997.56C275.92 999.33 275.76 1002.78 275.76 1007.9C275.76 1016.56 275.98 1021.92 276.41 1023.99C276.57 1024.65 276.81 1025.15 277.14 1025.5C277.47 1025.85 278.04 1026.23 278.86 1026.64C280.36 1027.32 281.11 1028.31 281.11 1029.6C281.11 1031.41 279.73 1032.66 276.96 1033.34C273.97 1034.07 270.3 1034.43 265.97 1034.43C258.58 1034.43 254.88 1033.02 254.88 1030.21C254.88 1029.19 255.61 1028.24 257.06 1027.35C258.17 1026.67 258.83 1025.74 259.03 1024.56C259.46 1021.98 259.68 1016.49 259.68 1008.1C259.68 1002.3 259.39 998.58 258.8 996.94C258.48 996.01 257.72 995.17 256.52 994.42C255.59 993.81 254.97 993.3 254.65 992.89C254.33 992.48 254.17 991.96 254.17 991.33C254.17 990.36 254.64 989.58 255.58 989C256.52 988.42 258.18 987.91 260.56 987.45C263.39 986.9 266.25 986.61 269.16 986.61Z" fill="#B41E89"/>
<path d="M302.11 988.96L319.05 1003.79C320.64 1005.17 321.78 1005.86 322.49 1005.86C323.67 1005.86 324.26 1004.6 324.26 1002.09C324.26 999.23 324.09 997.28 323.75 996.24C323.41 995.2 322.7 994.41 321.61 993.89C320.73 993.46 320.1 993 319.74 992.51C319.38 992.02 319.2 991.39 319.2 990.62C319.2 988.71 320.5 987.49 323.11 986.95C324.18 986.72 326.03 986.61 328.69 986.61C332.11 986.61 334.48 986.81 335.8 987.22C337.89 987.85 338.93 989.06 338.93 990.83C338.93 992.3 338.08 993.41 336.38 994.16C335.7 994.45 335.23 994.72 334.99 994.94C334.75 995.16 334.53 995.51 334.34 995.96C333.73 997.46 333.41 1000.29 333.39 1004.46V1015.55C333.39 1017.25 333.4 1019.58 333.42 1022.52C333.44 1026.51 333.2 1029.39 332.71 1031.16C332.1 1033.36 330.99 1034.46 329.38 1034.46C328.68 1034.46 328.07 1034.31 327.56 1034.02C327.05 1033.73 326.2 1033.05 325.03 1031.98L304.86 1013.92C303.45 1012.65 302.29 1012.01 301.36 1012.01C299.98 1012.01 299.29 1013.93 299.29 1017.76C299.29 1020.91 299.47 1023.07 299.82 1024.22C300.17 1025.37 300.89 1026.23 301.98 1026.77C303.5 1027.52 304.26 1028.49 304.26 1029.7C304.26 1032.85 300.87 1034.43 294.09 1034.43C291.03 1034.43 288.65 1034.03 286.97 1033.22C285.28 1032.42 284.44 1031.28 284.44 1029.8C284.44 1029.03 284.6 1028.45 284.92 1028.07C285.24 1027.69 285.95 1027.16 287.06 1026.51C288.13 1025.88 288.77 1024.75 289 1023.14C289.39 1020.22 289.58 1016.01 289.58 1010.52C289.58 1004.67 289.24 1000.41 288.56 997.73C288.31 996.76 287.99 996.03 287.61 995.55C287.22 995.07 286.59 994.62 285.71 994.19C284.69 993.69 283.98 993.2 283.58 992.73C283.18 992.25 282.98 991.68 282.98 991C282.98 988.82 284.85 987.45 288.59 986.88C289.86 986.7 292.08 986.61 295.26 986.61C297.07 986.61 298.39 986.75 299.22 987.03C300 987.32 300.98 987.96 302.11 988.96Z" fill="#B41E89"/>
<path d="M355.78 986.61C358.36 986.61 360.8 986.84 363.09 987.29C366.17 987.9 367.72 989.21 367.72 991.2C367.72 991.86 367.57 992.35 367.26 992.68C366.95 993.01 366.18 993.49 364.93 994.13C363.89 994.65 363.2 995.8 362.87 997.56C362.54 999.33 362.38 1002.78 362.38 1007.9C362.38 1016.56 362.6 1021.92 363.03 1023.99C363.19 1024.65 363.43 1025.15 363.76 1025.5C364.09 1025.85 364.66 1026.23 365.48 1026.64C366.98 1027.32 367.73 1028.31 367.73 1029.6C367.73 1031.41 366.35 1032.66 363.58 1033.34C360.59 1034.07 356.92 1034.43 352.59 1034.43C345.2 1034.43 341.5 1033.02 341.5 1030.21C341.5 1029.19 342.23 1028.24 343.68 1027.35C344.79 1026.67 345.45 1025.74 345.65 1024.56C346.08 1021.98 346.3 1016.49 346.3 1008.1C346.3 1002.3 346.01 998.58 345.42 996.94C345.1 996.01 344.34 995.17 343.14 994.42C342.21 993.81 341.59 993.3 341.27 992.89C340.95 992.48 340.79 991.96 340.79 991.33C340.79 990.36 341.26 989.58 342.2 989C343.14 988.42 344.8 987.91 347.18 987.45C350.01 986.9 352.88 986.61 355.78 986.61Z" fill="#B41E89"/>
<path d="M413.98 1010.25L420.41 1024.02C421.02 1025.29 421.53 1026.12 421.94 1026.52C422.35 1026.92 422.97 1027.18 423.81 1027.32C425.44 1027.57 426.26 1028.4 426.26 1029.8C426.26 1031.46 425.26 1032.65 423.27 1033.37C421.27 1034.1 418.01 1034.46 413.47 1034.46C408.35 1034.46 404.55 1034.24 402.08 1033.81C400.95 1033.61 400.04 1033.19 399.38 1032.57C398.71 1031.95 398.38 1031.19 398.38 1030.31C398.38 1029.63 398.56 1029.1 398.91 1028.73C399.26 1028.36 399.91 1028.01 400.87 1027.69C401.94 1027.33 402.47 1026.72 402.47 1025.85C402.47 1024.33 401.55 1023.43 399.72 1023.16C397.75 1022.89 394.97 1022.75 391.39 1022.75C388.37 1022.75 386.57 1022.93 385.98 1023.29C385.62 1023.52 385.3 1023.92 385.03 1024.51C384.76 1025.1 384.62 1025.67 384.62 1026.21C384.62 1026.71 384.72 1027.03 384.91 1027.18C385.1 1027.33 385.73 1027.57 386.8 1027.91C388.18 1028.32 388.87 1029.13 388.87 1030.36C388.87 1033.06 385.64 1034.41 379.18 1034.41C375.51 1034.41 372.81 1034.16 371.09 1033.66C369.5 1033.18 368.71 1032.14 368.71 1030.53C368.71 1029.83 368.89 1029.28 369.24 1028.9C369.59 1028.52 370.22 1028.16 371.13 1027.85C372.6 1027.33 373.72 1026.6 374.48 1025.66C375.24 1024.72 376.32 1022.71 377.73 1019.62L382.53 1009.11C384.3 1005.26 385.48 1002.37 386.08 1000.45C386.68 998.53 386.99 996.66 387.02 994.82C387.04 992.87 387.16 991.52 387.38 990.76C387.6 990 388.08 989.26 388.83 988.53C390.39 986.94 392.39 986.15 394.82 986.15C397.11 986.15 399.3 987.05 401.38 988.84C404.23 991.3 408.44 998.44 413.98 1010.25ZM390.31 1014.53H396.98C398.2 1014.53 398.82 1014.26 398.82 1013.71C398.82 1012.96 397.97 1011.13 396.27 1008.2C395.5 1006.86 394.91 1005.97 394.5 1005.51C394.09 1005.06 393.66 1004.83 393.21 1004.83C392.39 1004.83 391.71 1005.59 391.17 1007.11C391.08 1007.31 390.75 1008.12 390.18 1009.53C389.23 1011.84 388.75 1013.23 388.75 1013.68C388.74 1014.25 389.26 1014.53 390.31 1014.53Z" fill="#B41E89"/>
<path d="M446.32 988.96L463.26 1003.79C464.85 1005.17 465.99 1005.86 466.7 1005.86C467.88 1005.86 468.47 1004.6 468.47 1002.09C468.47 999.23 468.3 997.28 467.96 996.24C467.62 995.2 466.91 994.41 465.82 993.89C464.94 993.46 464.31 993 463.95 992.51C463.59 992.02 463.41 991.39 463.41 990.62C463.41 988.71 464.71 987.49 467.32 986.95C468.39 986.72 470.24 986.61 472.9 986.61C476.32 986.61 478.69 986.81 480.01 987.22C482.1 987.85 483.14 989.06 483.14 990.83C483.14 992.3 482.29 993.41 480.59 994.16C479.91 994.45 479.44 994.72 479.2 994.94C478.96 995.16 478.74 995.51 478.55 995.96C477.94 997.46 477.62 1000.29 477.6 1004.46V1015.55C477.6 1017.25 477.61 1019.58 477.63 1022.52C477.65 1026.51 477.41 1029.39 476.92 1031.16C476.31 1033.36 475.2 1034.46 473.59 1034.46C472.89 1034.46 472.28 1034.31 471.77 1034.02C471.26 1033.73 470.41 1033.05 469.24 1031.98L449.07 1013.92C447.66 1012.65 446.5 1012.01 445.57 1012.01C444.19 1012.01 443.5 1013.93 443.5 1017.76C443.5 1020.91 443.68 1023.07 444.03 1024.22C444.38 1025.37 445.1 1026.23 446.19 1026.77C447.71 1027.52 448.47 1028.49 448.47 1029.7C448.47 1032.85 445.08 1034.43 438.3 1034.43C435.24 1034.43 432.86 1034.03 431.18 1033.22C429.49 1032.42 428.65 1031.28 428.65 1029.8C428.65 1029.03 428.81 1028.45 429.13 1028.07C429.45 1027.69 430.16 1027.16 431.27 1026.51C432.34 1025.88 432.98 1024.75 433.21 1023.14C433.6 1020.22 433.79 1016.01 433.79 1010.52C433.79 1004.67 433.45 1000.41 432.77 997.73C432.52 996.76 432.2 996.03 431.82 995.55C431.43 995.07 430.8 994.62 429.92 994.19C428.9 993.69 428.19 993.2 427.79 992.73C427.39 992.25 427.19 991.68 427.19 991C427.19 988.82 429.06 987.45 432.8 986.88C434.07 986.7 436.29 986.61 439.47 986.61C441.28 986.61 442.6 986.75 443.43 987.03C444.21 987.32 445.19 987.96 446.32 988.96Z" fill="#B41E89"/>
<path d="M546.38 986.37C552.21 986.37 557.3 988.04 561.65 991.37C564.6 993.66 566.99 996.63 568.83 1000.28C570.62 1003.91 571.52 1007.54 571.52 1011.16C571.52 1016.51 569.75 1021.3 566.21 1025.51C563.22 1029.09 559.31 1031.67 554.48 1033.23C551.51 1034.18 548.53 1034.66 545.54 1034.66C541.62 1034.66 537.86 1033.84 534.28 1032.21C529.95 1030.24 526.56 1027.26 524.11 1023.26C521.73 1019.41 520.54 1015.15 520.54 1010.51C520.54 1005.11 522.07 1000.35 525.13 996.22C527.85 992.55 531.51 989.85 536.12 988.13C539.2 986.96 542.62 986.37 546.38 986.37ZM543.15 996.13C541.25 996.13 539.74 996.98 538.63 998.68C537.77 999.95 537.34 1001.46 537.34 1003.2C537.34 1005.76 537.86 1008.73 538.9 1012.09C539.94 1015.45 541.26 1018.45 542.85 1021.05C543.55 1022.16 544.42 1023.05 545.45 1023.7C546.48 1024.36 547.53 1024.69 548.6 1024.69C550.32 1024.69 551.71 1024.04 552.77 1022.75C553.82 1021.46 554.35 1019.76 554.35 1017.65C554.35 1014.91 553.91 1011.95 553.02 1008.77C552.14 1005.6 550.99 1002.89 549.58 1000.64C548.72 999.26 547.72 998.17 546.59 997.37C545.45 996.6 544.31 996.18 543.15 996.13Z" fill="#B41E89"/>
<path d="M593.18 988.96L610.12 1003.79C611.71 1005.17 612.85 1005.86 613.56 1005.86C614.74 1005.86 615.33 1004.6 615.33 1002.09C615.33 999.23 615.16 997.28 614.82 996.24C614.48 995.2 613.77 994.41 612.68 993.89C611.8 993.46 611.17 993 610.81 992.51C610.45 992.02 610.27 991.39 610.27 990.62C610.27 988.71 611.57 987.49 614.18 986.95C615.25 986.72 617.1 986.61 619.76 986.61C623.18 986.61 625.55 986.81 626.87 987.22C628.96 987.85 630 989.06 630 990.83C630 992.3 629.15 993.41 627.45 994.16C626.77 994.45 626.3 994.72 626.06 994.94C625.82 995.16 625.6 995.51 625.41 995.96C624.8 997.46 624.48 1000.29 624.46 1004.46V1015.55C624.46 1017.25 624.47 1019.58 624.49 1022.52C624.51 1026.51 624.27 1029.39 623.78 1031.16C623.17 1033.36 622.06 1034.46 620.45 1034.46C619.75 1034.46 619.14 1034.31 618.63 1034.02C618.12 1033.73 617.27 1033.05 616.1 1031.98L595.93 1013.92C594.52 1012.65 593.36 1012.01 592.43 1012.01C591.05 1012.01 590.36 1013.93 590.36 1017.76C590.36 1020.91 590.54 1023.07 590.89 1024.22C591.24 1025.37 591.96 1026.23 593.05 1026.77C594.57 1027.52 595.33 1028.49 595.33 1029.7C595.33 1032.85 591.94 1034.43 585.16 1034.43C582.1 1034.43 579.72 1034.03 578.04 1033.22C576.35 1032.42 575.51 1031.28 575.51 1029.8C575.51 1029.03 575.67 1028.45 575.99 1028.07C576.31 1027.69 577.02 1027.16 578.13 1026.51C579.2 1025.88 579.84 1024.75 580.07 1023.14C580.46 1020.22 580.65 1016.01 580.65 1010.52C580.65 1004.67 580.31 1000.41 579.63 997.73C579.38 996.76 579.06 996.03 578.68 995.55C578.29 995.07 577.66 994.62 576.78 994.19C575.76 993.69 575.05 993.2 574.65 992.73C574.25 992.25 574.05 991.68 574.05 991C574.05 988.82 575.92 987.45 579.66 986.88C580.93 986.7 583.15 986.61 586.33 986.61C588.14 986.61 589.46 986.75 590.29 987.03C591.07 987.32 592.05 987.96 593.18 988.96Z" fill="#B41E89"/>
<path d="M654.16 1002.19V1017.8C654.16 1021.31 654.47 1023.58 655.08 1024.6C655.83 1025.8 657.4 1026.4 659.81 1026.4C662.39 1026.4 664.44 1025.83 665.93 1024.7C667.42 1023.57 668.47 1021.8 669.06 1019.39C669.4 1017.92 670.17 1017.18 671.37 1017.18C672.57 1017.18 673.55 1017.72 674.31 1018.8C675.07 1019.88 675.45 1021.28 675.45 1023C675.45 1025.81 674.41 1028.82 672.32 1032.01C671.66 1033.03 671.08 1033.73 670.59 1034.1C670.09 1034.47 669.49 1034.66 668.79 1034.66L661.24 1033.74H637.47C635.91 1033.74 634.81 1033.56 634.17 1033.2C633.24 1032.68 632.78 1031.9 632.78 1030.85C632.78 1030.22 632.93 1029.74 633.24 1029.44C633.55 1029.13 634.29 1028.7 635.47 1028.13C636.76 1027.52 637.59 1026.66 637.95 1025.55C638.24 1024.62 638.39 1021.91 638.39 1017.42C638.39 1015.33 638.33 1012.33 638.22 1008.41C638.11 1004.65 638.04 1001.81 638.02 999.91C638.02 998.1 637.88 996.85 637.6 996.19C637.32 995.52 636.72 995.04 635.81 994.74C634.31 994.22 633.36 993.8 632.95 993.48C632.22 992.91 631.86 992.27 631.86 991.54C631.86 989.88 633.23 988.63 635.98 987.76C638.31 987.01 641.44 986.64 645.37 986.64C649.77 986.64 653.06 986.87 655.23 987.32C658.04 987.93 659.45 989.16 659.45 990.99C659.45 991.74 659.26 992.29 658.89 992.66C658.52 993.02 657.6 993.51 656.15 994.12C655.29 994.51 654.74 995.16 654.52 996.09C654.28 997.03 654.16 999.06 654.16 1002.19Z" fill="#B41E89"/>
<path d="M690.93 986.61C693.51 986.61 695.95 986.84 698.24 987.29C701.32 987.9 702.87 989.21 702.87 991.2C702.87 991.86 702.72 992.35 702.41 992.68C702.1 993.01 701.33 993.49 700.08 994.13C699.04 994.65 698.35 995.8 698.02 997.56C697.69 999.33 697.53 1002.78 697.53 1007.9C697.53 1016.56 697.75 1021.92 698.18 1023.99C698.34 1024.65 698.58 1025.15 698.91 1025.5C699.24 1025.85 699.81 1026.23 700.63 1026.64C702.13 1027.32 702.88 1028.31 702.88 1029.6C702.88 1031.41 701.5 1032.66 698.73 1033.34C695.74 1034.07 692.07 1034.43 687.74 1034.43C680.35 1034.43 676.65 1033.02 676.65 1030.21C676.65 1029.19 677.38 1028.24 678.83 1027.35C679.94 1026.67 680.6 1025.74 680.8 1024.56C681.23 1021.98 681.45 1016.49 681.45 1008.1C681.45 1002.3 681.16 998.58 680.57 996.94C680.25 996.01 679.49 995.17 678.29 994.42C677.36 993.81 676.74 993.3 676.42 992.89C676.1 992.48 675.94 991.96 675.94 991.33C675.94 990.36 676.41 989.58 677.35 989C678.29 988.42 679.95 987.91 682.33 987.45C685.16 986.9 688.03 986.61 690.93 986.61Z" fill="#B41E89"/>
<path d="M723.89 988.96L740.83 1003.79C742.42 1005.17 743.56 1005.86 744.27 1005.86C745.45 1005.86 746.04 1004.6 746.04 1002.09C746.04 999.23 745.87 997.28 745.53 996.24C745.19 995.2 744.48 994.41 743.39 993.89C742.51 993.46 741.88 993 741.52 992.51C741.16 992.02 740.98 991.39 740.98 990.62C740.98 988.71 742.28 987.49 744.89 986.95C745.96 986.72 747.81 986.61 750.47 986.61C753.89 986.61 756.26 986.81 757.58 987.22C759.67 987.85 760.71 989.06 760.71 990.83C760.71 992.3 759.86 993.41 758.16 994.16C757.48 994.45 757.01 994.72 756.77 994.94C756.53 995.16 756.31 995.51 756.12 995.96C755.51 997.46 755.19 1000.29 755.17 1004.46V1015.55C755.17 1017.25 755.18 1019.58 755.2 1022.52C755.22 1026.51 754.98 1029.39 754.49 1031.16C753.88 1033.36 752.77 1034.46 751.16 1034.46C750.46 1034.46 749.85 1034.31 749.34 1034.02C748.83 1033.73 747.98 1033.05 746.81 1031.98L726.64 1013.92C725.23 1012.65 724.07 1012.01 723.14 1012.01C721.76 1012.01 721.07 1013.93 721.07 1017.76C721.07 1020.91 721.25 1023.07 721.6 1024.22C721.95 1025.37 722.67 1026.23 723.76 1026.77C725.28 1027.52 726.04 1028.49 726.04 1029.7C726.04 1032.85 722.65 1034.43 715.87 1034.43C712.81 1034.43 710.43 1034.03 708.75 1033.22C707.06 1032.42 706.22 1031.28 706.22 1029.8C706.22 1029.03 706.38 1028.45 706.7 1028.07C707.02 1027.69 707.73 1027.16 708.84 1026.51C709.91 1025.88 710.55 1024.75 710.78 1023.14C711.17 1020.22 711.36 1016.01 711.36 1010.52C711.36 1004.67 711.02 1000.41 710.34 997.73C710.09 996.76 709.77 996.03 709.39 995.55C709 995.07 708.37 994.62 707.49 994.19C706.47 993.69 705.76 993.2 705.36 992.73C704.96 992.25 704.76 991.68 704.76 991C704.76 988.82 706.63 987.45 710.37 986.88C711.64 986.7 713.86 986.61 717.04 986.61C718.85 986.61 720.17 986.75 721 987.03C721.77 987.32 722.75 987.96 723.89 988.96Z" fill="#B41E89"/>
<path d="M770.04 987.32H787.52C791.06 987.32 793.64 987.25 795.26 987.1C796.88 986.95 798.46 986.65 800 986.2C800.48 986.06 800.85 986 801.12 986C802.3 986 803.34 986.63 804.25 987.9C805.75 989.96 806.49 992.46 806.49 995.38C806.49 996.85 806.18 998.02 805.55 998.87C804.93 999.72 804.07 1000.15 802.98 1000.15C802.23 1000.15 801.65 1000 801.23 999.69C800.81 999.38 800.25 998.7 799.55 997.63C798.55 996.11 797.29 995.1 795.76 994.59C794.23 994.08 791.72 993.82 788.23 993.82C785.62 993.82 784.04 994.29 783.47 995.21C783.18 995.71 783 996.38 782.94 997.22C782.88 998.06 782.86 1000.2 782.86 1003.65C782.86 1005.01 783.09 1005.86 783.54 1006.18C783.99 1006.51 785.18 1006.67 787.11 1006.67C788.06 1006.67 788.75 1006.47 789.18 1006.08C789.61 1005.68 789.88 1004.97 790 1003.95C790.16 1002.64 790.32 1001.73 790.49 1001.25C790.66 1000.76 790.97 1000.34 791.43 999.97C791.91 999.56 792.46 999.36 793.1 999.36C794.03 999.36 794.82 999.8 795.48 1000.69C795.96 1001.35 796.36 1002.51 796.69 1004.18C797.02 1005.85 797.18 1007.59 797.18 1009.4C797.18 1012.98 796.62 1015.92 795.51 1018.21C794.9 1019.46 793.97 1020.08 792.72 1020.08C791.95 1020.08 791.42 1019.88 791.12 1019.49C790.83 1019.09 790.6 1018.27 790.44 1017.02C790.1 1014.46 788.6 1013.18 785.95 1013.18C784.93 1013.18 784.23 1013.5 783.86 1014.15C783.49 1014.8 783.3 1015.99 783.3 1017.74C783.3 1018.81 783.37 1020.18 783.52 1021.87C783.67 1023.56 783.82 1024.68 783.98 1025.22C784.16 1025.9 784.72 1026.37 785.66 1026.63C786.6 1026.89 788.17 1027.02 790.37 1027.02C793.77 1027.02 796.33 1026.58 798.06 1025.71C799.78 1024.84 801.19 1023.26 802.28 1020.97C802.91 1019.66 803.49 1018.77 804 1018.32C804.51 1017.87 805.17 1017.64 805.99 1017.64C806.94 1017.64 807.73 1018.05 808.35 1018.88C808.97 1019.71 809.29 1020.75 809.29 1021.99C809.29 1023.35 808.94 1025.05 808.24 1027.09C807.54 1029.13 806.68 1030.94 805.66 1032.53C805.14 1033.3 804.71 1033.82 804.37 1034.08C804.03 1034.34 803.6 1034.47 803.08 1034.47C802.65 1034.47 802.03 1034.4 801.21 1034.27C799.76 1034 797.82 1033.83 795.39 1033.76H766.55C765.39 1033.76 764.5 1033.51 763.86 1032.99C763.22 1032.48 762.91 1031.76 762.91 1030.83C762.91 1030.17 763.05 1029.7 763.32 1029.4C763.59 1029.11 764.22 1028.73 765.19 1028.28C765.87 1027.99 766.37 1027.62 766.7 1027.19C767.03 1026.76 767.28 1026.12 767.47 1025.29C768.22 1021.87 768.59 1017.25 768.59 1011.45C768.59 1002.7 768.05 997.18 766.96 994.89C766.73 994.44 766.48 994.12 766.21 993.94C765.94 993.76 765.37 993.54 764.51 993.29C763.22 992.91 762.57 992.04 762.57 990.71C762.57 989.98 762.78 989.34 763.22 988.77C763.65 988.2 764.22 987.83 764.92 987.65C765.79 987.43 767.5 987.32 770.04 987.32Z" fill="#B41E89"/>
<path d="M866.5 986.37C868.83 986.37 871.9 986.95 875.68 988.1C876.13 988.24 876.5 988.3 876.77 988.3C877 988.3 877.68 988.1 878.81 987.69C879.17 987.55 879.56 987.49 879.97 987.49C881.49 987.49 883.09 988.69 884.78 991.1C886.47 993.5 887.31 995.79 887.31 997.97C887.31 999.24 886.93 1000.31 886.17 1001.18C885.41 1002.05 884.49 1002.49 883.4 1002.49C882.49 1002.49 881.76 1002.31 881.19 1001.95C880.62 1001.59 879.38 1000.51 877.45 998.72C874.73 996.18 872.05 994.91 869.42 994.91C868.15 994.91 867.14 995.22 866.38 995.83C865.62 996.44 865.24 997.25 865.24 998.25C865.24 1000.22 866.97 1001.71 870.44 1002.71C875.13 1004.09 878.14 1005.1 879.45 1005.74C885.23 1008.55 888.12 1012.69 888.12 1018.15C888.12 1022.98 886.15 1026.93 882.2 1029.99C878.16 1033.12 872.89 1034.68 866.38 1034.68C863.48 1034.68 860.42 1034.33 857.2 1033.64C853.98 1032.95 851.66 1032.14 850.23 1031.21C849.14 1030.48 848.16 1028.9 847.29 1026.46C846.42 1024.02 845.98 1021.65 845.98 1019.34C845.98 1018.23 846.21 1017.39 846.66 1016.82C847.23 1016.09 847.94 1015.73 848.8 1015.73C849.66 1015.73 850.49 1016.17 851.28 1017.06C851.76 1017.56 852.88 1019.16 854.65 1021.85C855.49 1023.12 856.82 1024.18 858.65 1025.01C860.48 1025.85 862.36 1026.27 864.31 1026.27C865.99 1026.27 867.35 1025.96 868.39 1025.33C869.43 1024.71 869.95 1023.91 869.95 1022.93C869.95 1022.02 869.54 1021.24 868.73 1020.58C867.92 1019.92 866.59 1019.31 864.75 1018.74C861.51 1017.72 859.04 1016.78 857.34 1015.93C855.64 1015.08 854.05 1014.01 852.58 1012.72C849 1009.55 847.21 1005.94 847.21 1001.9C847.21 999.91 847.67 997.96 848.6 996.07C849.53 994.18 850.85 992.54 852.55 991.16C856.36 987.97 861.01 986.37 866.5 986.37Z" fill="#B41E89"/>
<path d="M916.8 986.37C920.11 986.37 923.31 987.1 926.39 988.55C927.84 989.23 928.85 989.57 929.42 989.57C929.83 989.57 930.49 989.47 931.39 989.26C931.68 989.19 932.01 989.16 932.38 989.16C933.56 989.16 934.59 989.7 935.47 990.79C937.65 993.42 938.74 996.69 938.74 1000.58C938.74 1003.32 937.8 1005.33 935.92 1006.6C934.9 1007.28 933.75 1007.62 932.48 1007.62C931.32 1007.62 930.38 1007.37 929.66 1006.87C928.93 1006.37 928.23 1005.49 927.55 1004.22C926.57 1002.43 925.78 1001.14 925.17 1000.36C924.56 999.58 923.81 998.87 922.92 998.23C920.72 996.69 918.42 995.92 916.02 995.92C913.68 995.92 911.83 996.76 910.46 998.45C909.09 1000.14 908.4 1002.4 908.4 1005.24C908.4 1009.14 909.39 1012.71 911.36 1015.95C914.03 1020.28 917.87 1022.45 922.86 1022.45C924.7 1022.45 926.52 1022.14 928.32 1021.53C930.12 1020.92 931.52 1020.12 932.52 1019.15C933.38 1018.33 934.08 1017.93 934.63 1017.93C935.42 1017.93 936.1 1018.3 936.67 1019.04C937.24 1019.78 937.52 1020.67 937.52 1021.71C937.52 1023.03 937.12 1024.5 936.33 1026.13C935.54 1027.76 934.58 1029.04 933.47 1029.97C932.99 1030.36 932.01 1030.7 930.51 1030.99C929.65 1031.15 928.5 1031.57 927.07 1032.25C923.71 1033.86 920.22 1034.66 916.59 1034.66C912.8 1034.66 909.03 1033.81 905.26 1032.11C900.88 1030.14 897.43 1027.11 894.89 1023.03C892.4 1019.06 891.15 1014.91 891.15 1010.58C891.15 1005.55 892.71 1000.96 895.84 996.81C898.56 993.21 902.11 990.45 906.49 988.55C909.83 987.1 913.26 986.37 916.8 986.37Z" fill="#B41E89"/>
<path d="M956.32 986.58C963.39 986.58 966.93 988.04 966.93 990.97C966.93 991.76 966.75 992.41 966.39 992.91C966.03 993.41 965.34 993.96 964.32 994.58C963.44 995.12 962.87 995.84 962.64 996.72C962.4 997.6 962.28 999.4 962.28 1002.09C962.28 1003.68 962.57 1004.65 963.16 1005.01C963.5 1005.24 964.02 1005.37 964.71 1005.42C965.4 1005.46 967.03 1005.49 969.59 1005.49C971.93 1005.49 973.38 1005.37 973.94 1005.12C974.51 1004.87 974.79 1004.25 974.79 1003.25C974.79 1000.26 974.65 998.17 974.38 996.99C974.11 995.81 973.57 995.01 972.78 994.58C971.78 994.01 971.12 993.53 970.81 993.13C970.49 992.73 970.33 992.21 970.33 991.55C970.33 990.62 970.68 989.78 971.38 989.02C972.08 988.26 973 987.74 974.13 987.47C976.49 986.9 979.45 986.62 983.01 986.62C987.18 986.62 990.26 987 992.24 987.76C994.22 988.52 995.22 989.7 995.22 991.31C995.22 992.67 994.52 993.69 993.11 994.37C992.23 994.78 991.65 995.17 991.38 995.54C991.11 995.91 990.89 996.61 990.73 997.63C990.64 998.2 990.53 1000.71 990.39 1005.18C990.25 1009.65 990.19 1013.2 990.19 1015.83C990.19 1020.43 990.36 1023.36 990.7 1024.6C990.88 1025.28 991.09 1025.73 991.31 1025.96C991.54 1026.19 992.25 1026.64 993.45 1027.32C994.31 1027.8 994.74 1028.52 994.74 1029.5C994.74 1031.22 993.71 1032.48 991.66 1033.26C989.61 1034.04 986.28 1034.43 981.68 1034.43C977.64 1034.43 974.66 1034.03 972.73 1033.24C970.98 1032.51 970.11 1031.39 970.11 1029.87C970.11 1028.58 970.78 1027.57 972.12 1026.84C972.78 1026.48 973.22 1026.11 973.46 1025.75C973.7 1025.39 973.93 1024.72 974.16 1023.74C974.57 1021.83 974.77 1019.5 974.77 1016.73C974.77 1015.3 974.56 1014.42 974.14 1014.08C973.72 1013.74 972.63 1013.57 970.86 1013.57C966.8 1013.57 964.22 1013.8 963.11 1014.25C962.66 1014.43 962.37 1014.96 962.26 1015.85C962.12 1016.94 962.06 1018.28 962.06 1019.86C962.06 1022.44 962.42 1024.3 963.15 1025.44C963.4 1025.8 963.99 1026.27 964.92 1026.83C965.87 1027.37 966.35 1028.27 966.35 1029.52C966.35 1031.11 965.25 1032.32 963.05 1033.16C960.85 1034 957.71 1034.42 953.63 1034.42C949.91 1034.42 946.87 1034.03 944.52 1033.26C943.5 1032.92 942.7 1032.44 942.12 1031.81C941.54 1031.19 941.25 1030.5 941.25 1029.75C941.25 1029 941.43 1028.42 941.79 1028.02C942.15 1027.61 942.95 1027.09 944.17 1026.46C944.8 1026.14 945.25 1025.73 945.51 1025.24C945.77 1024.74 945.97 1023.9 946.11 1022.72C946.45 1020.07 946.62 1016.6 946.62 1012.31C946.62 1011.52 946.61 1010.57 946.59 1009.49C946.5 1004.05 946.45 1000.94 946.45 1000.17C946.47 998.22 946.31 996.93 945.96 996.31C945.61 995.69 944.68 995 943.19 994.25C942.19 993.77 941.69 993.06 941.69 992.11C941.69 989.82 943.91 988.23 948.36 987.35C950.95 986.84 953.6 986.58 956.32 986.58Z" fill="#B41E89"/>
<path d="M1023.66 986.37C1029.49 986.37 1034.58 988.04 1038.93 991.37C1041.88 993.66 1044.27 996.63 1046.11 1000.28C1047.9 1003.91 1048.8 1007.54 1048.8 1011.16C1048.8 1016.51 1047.03 1021.3 1043.49 1025.51C1040.5 1029.09 1036.59 1031.67 1031.76 1033.23C1028.79 1034.18 1025.81 1034.66 1022.82 1034.66C1018.9 1034.66 1015.14 1033.84 1011.56 1032.21C1007.23 1030.24 1003.84 1027.26 1001.39 1023.26C999.01 1019.41 997.82 1015.15 997.82 1010.51C997.82 1005.11 999.35 1000.35 1002.41 996.22C1005.13 992.55 1008.79 989.85 1013.4 988.13C1016.48 986.96 1019.9 986.37 1023.66 986.37ZM1020.43 996.13C1018.53 996.13 1017.02 996.98 1015.91 998.68C1015.05 999.95 1014.62 1001.46 1014.62 1003.2C1014.62 1005.76 1015.14 1008.73 1016.18 1012.09C1017.22 1015.45 1018.54 1018.45 1020.13 1021.05C1020.83 1022.16 1021.7 1023.05 1022.73 1023.7C1023.76 1024.36 1024.81 1024.69 1025.88 1024.69C1027.6 1024.69 1028.99 1024.04 1030.05 1022.75C1031.1 1021.46 1031.63 1019.76 1031.63 1017.65C1031.63 1014.91 1031.19 1011.95 1030.3 1008.77C1029.42 1005.6 1028.27 1002.89 1026.86 1000.64C1026 999.26 1025 998.17 1023.87 997.37C1022.73 996.6 1021.59 996.18 1020.43 996.13Z" fill="#B41E89"/>
<path d="M1077.88 986.37C1083.71 986.37 1088.8 988.04 1093.15 991.37C1096.1 993.66 1098.49 996.63 1100.33 1000.28C1102.12 1003.91 1103.02 1007.54 1103.02 1011.16C1103.02 1016.51 1101.25 1021.3 1097.71 1025.51C1094.72 1029.09 1090.81 1031.67 1085.98 1033.23C1083.01 1034.18 1080.03 1034.66 1077.04 1034.66C1073.12 1034.66 1069.36 1033.84 1065.78 1032.21C1061.45 1030.24 1058.06 1027.26 1055.61 1023.26C1053.23 1019.41 1052.04 1015.15 1052.04 1010.51C1052.04 1005.11 1053.57 1000.35 1056.63 996.22C1059.35 992.55 1063.01 989.85 1067.62 988.13C1070.69 986.96 1074.11 986.37 1077.88 986.37ZM1074.65 996.13C1072.75 996.13 1071.24 996.98 1070.13 998.68C1069.27 999.95 1068.84 1001.46 1068.84 1003.2C1068.84 1005.76 1069.36 1008.73 1070.4 1012.09C1071.44 1015.45 1072.76 1018.45 1074.35 1021.05C1075.05 1022.16 1075.92 1023.05 1076.95 1023.7C1077.98 1024.36 1079.03 1024.69 1080.1 1024.69C1081.82 1024.69 1083.21 1024.04 1084.27 1022.75C1085.32 1021.46 1085.85 1019.76 1085.85 1017.65C1085.85 1014.91 1085.41 1011.95 1084.52 1008.77C1083.64 1005.6 1082.49 1002.89 1081.08 1000.64C1080.22 999.26 1079.22 998.17 1078.09 997.37C1076.95 996.6 1075.8 996.18 1074.65 996.13Z" fill="#B41E89"/>
<path d="M1127.84 1002.19V1017.8C1127.84 1021.31 1128.15 1023.58 1128.76 1024.6C1129.51 1025.8 1131.08 1026.4 1133.49 1026.4C1136.07 1026.4 1138.12 1025.83 1139.61 1024.7C1141.1 1023.57 1142.15 1021.8 1142.74 1019.39C1143.08 1017.92 1143.85 1017.18 1145.05 1017.18C1146.25 1017.18 1147.23 1017.72 1147.99 1018.8C1148.75 1019.88 1149.13 1021.28 1149.13 1023C1149.13 1025.81 1148.09 1028.82 1146 1032.01C1145.34 1033.03 1144.76 1033.73 1144.27 1034.1C1143.77 1034.47 1143.17 1034.66 1142.47 1034.66L1134.92 1033.74H1111.15C1109.59 1033.74 1108.49 1033.56 1107.85 1033.2C1106.92 1032.68 1106.46 1031.9 1106.46 1030.85C1106.46 1030.22 1106.61 1029.74 1106.92 1029.44C1107.23 1029.13 1107.97 1028.7 1109.15 1028.13C1110.44 1027.52 1111.27 1026.66 1111.63 1025.55C1111.92 1024.62 1112.07 1021.91 1112.07 1017.42C1112.07 1015.33 1112.01 1012.33 1111.9 1008.41C1111.79 1004.65 1111.72 1001.81 1111.7 999.91C1111.7 998.1 1111.56 996.85 1111.28 996.19C1111 995.52 1110.4 995.04 1109.49 994.74C1107.99 994.22 1107.04 993.8 1106.63 993.48C1105.9 992.91 1105.54 992.27 1105.54 991.54C1105.54 989.88 1106.91 988.63 1109.66 987.76C1111.99 987.01 1115.12 986.64 1119.05 986.64C1123.45 986.64 1126.74 986.87 1128.91 987.32C1131.72 987.93 1133.13 989.16 1133.13 990.99C1133.13 991.74 1132.94 992.29 1132.57 992.66C1132.2 993.02 1131.28 993.51 1129.83 994.12C1128.97 994.51 1128.42 995.16 1128.2 996.09C1127.95 997.03 1127.84 999.06 1127.84 1002.19Z" fill="#B41E89"/>
<defs>
<linearGradient id="paint0_linear_1_3" x1="592.799" y1="575.05" x2="1084.36" y2="575.05" gradientUnits="userSpaceOnUse">
<stop stop-color="#00AEEF"/>
<stop offset="1" stop-color="#1C75BC"/>
</linearGradient>
<linearGradient id="paint1_linear_1_3" x1="95.1212" y1="574.97" x2="592.799" y2="574.97" gradientUnits="userSpaceOnUse">
<stop stop-color="#1C75BC"/>
<stop offset="1" stop-color="#00AEEF"/>
</linearGradient>
<linearGradient id="paint2_linear_1_3" x1="30.3283" y1="639.743" x2="592.799" y2="639.743" gradientUnits="userSpaceOnUse">
<stop stop-color="#FFDE17"/>
<stop offset="1" stop-color="#FFF200"/>
</linearGradient>
<linearGradient id="paint3_linear_1_3" x1="592.799" y1="639.496" x2="1151.59" y2="639.496" gradientUnits="userSpaceOnUse">
<stop stop-color="#FFF200"/>
<stop offset="1" stop-color="#FFDE17"/>
</linearGradient>
</defs>
</svg>
