<svg width="158" height="40" viewBox="0 0 158 40" fill="none" xmlns="http://www.w3.org/2000/svg">
<path d="M105.082 39.0159C105.082 39.0159 105.078 39.0266 105.074 39.0301H105.106L105.078 39.0159H105.082Z" fill="url(#paint0_linear_339_822)"/>
<path d="M85.2749 32.0026H90.7168V19.7197H114.722V15.4641H90.7168V7.99183H115.986V3.73975H85.2749V32.0026Z" fill="white"/>
<path d="M157.694 13.5744V12.845C157.694 11.7882 157.609 10.8061 157.444 9.93438C157.271 9.02348 156.961 8.19087 156.519 7.45788C156.068 6.71066 155.452 6.05595 154.695 5.50799C153.947 4.96714 153.005 4.51881 151.89 4.17366C150.811 3.83919 149.519 3.58656 148.046 3.42289C146.597 3.26277 144.89 3.18091 142.97 3.18091H132.823C130.468 3.18091 128.452 3.31255 126.826 3.56874C125.155 3.83205 123.751 4.24126 122.652 4.78566C121.509 5.34786 120.611 6.07371 119.979 6.93835C119.367 7.77453 118.92 8.76728 118.643 9.881C118.377 10.9556 118.22 12.1796 118.18 13.5246C118.14 14.8269 118.12 16.2894 118.12 17.8728C118.12 19.4562 118.14 20.9186 118.18 22.2209C118.22 23.5659 118.377 24.7899 118.643 25.8645C118.92 26.9818 119.367 27.9709 119.979 28.8071C120.611 29.6718 121.509 30.3976 122.652 30.9598C123.755 31.5042 125.159 31.9134 126.826 32.1767C128.452 32.4329 130.468 32.5646 132.823 32.5646H142.99C144.91 32.5646 146.621 32.4828 148.066 32.3226C149.543 32.159 150.839 31.8992 151.918 31.5505C153.033 31.1911 153.979 30.7179 154.719 30.1521C155.468 29.5793 156.076 28.8925 156.527 28.1026C156.965 27.334 157.275 26.4516 157.444 25.4766C157.609 24.5408 157.69 23.484 157.69 22.3383V17.1397H137.049V21.3918H152.248V22.3383C152.248 23.235 152.204 24.0249 152.115 24.6867C152.035 25.2987 151.882 25.8253 151.66 26.2488C151.455 26.6402 151.181 26.9569 150.819 27.2131C150.449 27.4764 149.934 27.6898 149.298 27.8464C148.605 28.0172 147.744 28.1382 146.738 28.2058C145.695 28.2734 144.435 28.309 142.99 28.309H132.823C131.169 28.309 129.764 28.2663 128.641 28.1809C127.578 28.099 126.697 27.9389 126.029 27.7005C125.421 27.4835 124.978 27.1917 124.668 26.8039C124.338 26.3911 124.089 25.8182 123.928 25.0959C123.755 24.3166 123.65 23.331 123.618 22.1746C123.586 20.9826 123.569 19.5344 123.569 17.8728C123.569 16.2111 123.582 14.7486 123.61 13.5673C123.634 12.4109 123.734 11.4288 123.912 10.6496C124.073 9.93082 124.322 9.35794 124.66 8.94519C124.978 8.55734 125.429 8.26204 126.037 8.04499C126.709 7.80659 127.586 7.64288 128.649 7.5646C129.772 7.4792 131.177 7.43651 132.831 7.43651H142.978C144.834 7.43651 146.412 7.49343 147.671 7.6073C148.835 7.71049 149.769 7.94892 150.449 8.3083C151.077 8.64277 151.519 9.12665 151.797 9.78492C152.103 10.5144 152.26 11.5427 152.26 12.845V13.5744H157.702H157.694Z" fill="white"/>
<path d="M49.6008 3.73975H44.1589V14.7169H49.6008V3.73975Z" fill="url(#paint1_linear_339_822)"/>
<path d="M61.0522 16.3785L74.7213 8.0274C73.2441 7.30153 72.2056 5.96363 72.0325 4.40869L57.4618 13.137C59.2006 13.596 60.5692 14.8271 61.0522 16.3785Z" fill="url(#paint2_linear_339_822)"/>
<path d="M49.6008 20.4883H44.1589V32.0026H49.6008V20.4883Z" fill="url(#paint3_linear_339_822)"/>
<path d="M74.0491 26.8681L61.0642 18.8301C60.5933 20.385 59.2288 21.6233 57.494 22.093L72.0245 30.9315C72.0124 30.807 72.0084 30.6825 72.0084 30.5579C72.0084 29.0599 72.8094 27.7256 74.0491 26.8681Z" fill="url(#paint4_linear_339_822)"/>
<path d="M82.3286 31.9919C82.3286 31.9919 82.3286 31.9991 82.3246 32.0026H82.3488L82.3286 31.9919Z" fill="url(#paint5_linear_339_822)"/>
<path d="M51.2753 15.446H40.794C40.794 15.197 40.786 14.955 40.7779 14.7166C40.7699 14.3039 40.7578 13.9089 40.7457 13.521C40.6974 12.1796 40.5405 10.9556 40.2748 9.881C39.9971 8.76728 39.5503 7.77809 38.9505 6.93835C38.3267 6.07015 37.4291 5.3443 36.2859 4.7821C35.1871 4.2377 33.7824 3.82849 32.1079 3.56874C30.4818 3.30899 28.4652 3.18091 26.1106 3.18091H14.7036C12.3489 3.18091 10.3283 3.30899 8.70621 3.56874C7.03581 3.83205 5.63107 4.24125 4.53222 4.7821C3.38911 5.3443 2.49151 6.07019 1.85958 6.93483C1.24777 7.77101 0.801007 8.76372 0.523278 9.87743C0.257624 10.952 0.100636 12.1796 0.0603858 13.521C0.0201351 14.8269 0 16.2858 0 17.8692C0 19.4526 0.0201351 20.9115 0.0603858 22.2173C0.100636 23.5623 0.253599 24.7863 0.523278 25.8609C0.801007 26.9782 1.25179 27.9674 1.85958 28.8071C2.49151 29.6718 3.38911 30.3976 4.53222 30.9598C5.63509 31.5042 7.03984 31.9134 8.70621 32.1732C10.3323 32.4329 12.3529 32.561 14.7036 32.561H26.1106C28.4652 32.561 30.4818 32.4329 32.1079 32.1732C33.7783 31.9134 35.1831 31.5007 36.2859 30.9598C37.4291 30.3976 38.3267 29.6718 38.9505 28.8036C39.5543 27.9674 39.9971 26.9782 40.2748 25.8609C40.5405 24.7899 40.7015 23.5623 40.7457 22.2209C40.7659 21.6694 40.7779 21.0894 40.794 20.488C40.794 20.2496 40.8021 20.0041 40.8061 19.7586H51.2592C51.2592 19.7586 51.2431 19.7337 51.235 19.7194C50.8768 19.0861 50.6715 18.3744 50.6715 17.6201C50.6715 16.8658 50.8848 16.1114 51.2672 15.4674C51.2672 15.4603 51.2753 15.4532 51.2793 15.446H51.2753ZM35.3562 20.488C35.3481 21.0929 35.336 21.6551 35.3199 22.1711C35.2917 23.3275 35.1831 24.3131 35.01 25.0923C34.849 25.8111 34.5994 26.384 34.2654 26.7967C33.9434 27.1846 33.4966 27.4799 32.8888 27.697C32.2166 27.9354 31.3392 28.099 30.2725 28.1809C29.1495 28.2663 27.7488 28.309 26.1106 28.309H14.7036C13.0493 28.309 11.6405 28.2663 10.5175 28.1809C9.45487 28.1026 8.57339 27.9389 7.90523 27.697C7.29744 27.4799 6.85468 27.1881 6.54073 26.8003C6.21067 26.3875 5.96113 25.8146 5.80013 25.0923C5.62303 24.3131 5.52239 23.3275 5.49019 22.1711C5.45799 20.9826 5.43786 19.5344 5.43786 17.8692C5.43786 16.204 5.44993 14.7487 5.4781 13.5638C5.50225 12.4074 5.60288 11.4253 5.77998 10.646C5.93696 9.92726 6.19058 9.35438 6.52869 8.94162C6.84667 8.55022 7.29744 8.25848 7.90523 8.03787C8.57339 7.79947 9.45487 7.6358 10.5175 7.55396C11.6405 7.46856 13.0493 7.42587 14.7036 7.42587H26.1106C27.7649 7.42587 29.1737 7.46856 30.2926 7.55396C31.3552 7.6358 32.2287 7.79591 32.8928 8.03431C33.4926 8.25136 33.9433 8.5467 34.2613 8.93811C34.5954 9.35086 34.845 9.92014 35.006 10.6425C35.1831 11.4217 35.2877 12.4074 35.3159 13.5638C35.328 13.9232 35.336 14.3074 35.3441 14.7095C35.3441 14.9443 35.3522 15.1898 35.3562 15.4389H25.4706C25.861 16.0901 26.0784 16.8302 26.0784 17.613C26.0784 18.3958 25.8691 19.111 25.4908 19.7515H35.3602C35.3602 20.0005 35.3602 20.2461 35.3562 20.4809V20.488Z" fill="url(#paint6_linear_339_822)"/>
<path d="M60.3277 16.8267C59.9493 15.1864 58.4158 13.9161 56.5159 13.7097C56.3348 13.6884 56.1456 13.6777 55.9565 13.6777C54.7892 13.6777 53.7346 14.0727 52.9417 14.7167C52.672 14.9338 52.4345 15.1793 52.2373 15.4462C52.2293 15.4533 52.2252 15.4604 52.2212 15.4675C51.7623 16.0867 51.4927 16.8267 51.4927 17.6202C51.4927 18.4137 51.7422 19.1111 52.1769 19.7196C52.185 19.7338 52.193 19.7445 52.2051 19.7587C52.3983 20.0291 52.6318 20.2747 52.8934 20.4881C53.6904 21.1571 54.765 21.5627 55.9524 21.5627C56.1577 21.5627 56.363 21.5521 56.5602 21.5236C58.452 21.2959 59.9694 20.0184 60.3277 18.3781C60.384 18.1326 60.4122 17.8764 60.4122 17.6167C60.4122 17.3569 60.38 17.0794 60.3236 16.8232L60.3277 16.8267ZM59.0397 18.1468C58.7861 19.2961 57.7597 20.175 56.4676 20.3601L56.367 20.3743C56.2422 20.3921 56.1054 20.3992 55.9565 20.3992C55.1514 20.3992 54.3867 20.1288 53.8031 19.6413C53.6139 19.4847 53.4529 19.3139 53.3201 19.1289L53.2919 19.0933C52.9779 18.6557 52.8129 18.1433 52.8129 17.6202C52.8129 17.0972 52.9739 16.599 53.2798 16.1614L53.3402 16.0831C53.477 15.8981 53.638 15.7272 53.8312 15.5742C54.4148 15.101 55.1716 14.8377 55.9605 14.8377C56.0933 14.8377 56.2221 14.8448 56.3389 14.859C57.6873 15.0085 58.766 15.8909 59.0397 17.0545C59.0799 17.2359 59.1041 17.4281 59.1041 17.6167C59.1041 17.8052 59.0839 17.9796 59.0437 18.1433L59.0397 18.1468Z" fill="url(#paint7_linear_339_822)"/>
<path d="M77.2933 0C74.834 0 72.8376 1.75777 72.8295 3.93184V3.94608C72.8295 5.55795 73.9243 6.94566 75.4941 7.55767C76.0415 7.77472 76.6533 7.89212 77.2933 7.89212C79.7566 7.89212 81.7571 6.12726 81.7571 3.94608C81.7571 1.7649 79.7566 0 77.2933 0ZM77.2933 6.72502C76.8506 6.72502 76.4239 6.64673 76.0335 6.49373C74.8863 6.04539 74.1498 5.04913 74.1498 3.94608C74.1538 2.40894 75.5666 1.1671 77.2933 1.1671C79.0201 1.1671 80.4369 2.4125 80.4369 3.94608C80.4369 5.47967 79.0241 6.72502 77.2933 6.72502Z" fill="url(#paint8_linear_339_822)"/>
<path d="M77.2932 26.612C76.3514 26.612 75.482 26.8717 74.7615 27.3094C73.5942 28.0174 72.8295 29.2094 72.8295 30.558C72.8295 30.8854 72.8737 31.202 72.9582 31.5045C73.4372 33.2267 75.1962 34.5005 77.2892 34.5005C79.1729 34.5005 80.787 33.4651 81.4391 32.0027C81.5075 31.8532 81.5598 31.7038 81.6081 31.5472C81.7007 31.2305 81.753 30.8996 81.753 30.5545C81.753 28.3769 79.7526 26.6084 77.2892 26.6084L77.2932 26.612ZM80.3362 31.259C80.308 31.3622 80.2638 31.4725 80.2195 31.5757C79.7405 32.6467 78.5933 33.337 77.2932 33.337C75.8402 33.337 74.5884 32.4688 74.2423 31.2234C74.1819 31.0063 74.1497 30.7858 74.1497 30.5545C74.1497 29.64 74.6569 28.786 75.5102 28.2665C76.0375 27.9463 76.6492 27.7755 77.2932 27.7755C79.024 27.7755 80.4368 29.0209 80.4368 30.5545C80.4368 30.7893 80.4046 31.0277 80.3362 31.2554V31.259Z" fill="url(#paint9_linear_339_822)"/>
<path d="M24.5167 15.4462C24.3194 15.1793 24.082 14.9302 23.8123 14.7167C23.0194 14.0692 21.9608 13.6777 20.7975 13.6777C18.3342 13.6777 16.3337 15.4462 16.3337 17.6238C16.3337 19.8014 18.3302 21.5699 20.7975 21.5699C21.9809 21.5699 23.0556 21.1607 23.8566 20.4953C24.1182 20.2782 24.3517 20.0327 24.5449 19.7658C24.9997 19.1503 25.2573 18.4173 25.2573 17.6273C25.2573 16.8374 24.9876 16.076 24.5167 15.4533V15.4462ZM23.438 19.1253C23.2971 19.3175 23.1401 19.4883 22.9549 19.6377C22.3633 20.1323 21.5985 20.4028 20.7935 20.4028C19.0587 20.4028 17.6499 19.1574 17.6499 17.6238C17.6499 16.0902 19.0587 14.8448 20.7935 14.8448C21.5824 14.8448 22.3391 15.1046 22.9187 15.5778C23.1119 15.7344 23.2729 15.9016 23.4098 16.0866C23.7559 16.5457 23.9371 17.0758 23.9371 17.6238C23.9371 18.1717 23.764 18.6841 23.438 19.1289V19.1253Z" fill="url(#paint10_linear_339_822)"/>
<defs>
<linearGradient id="paint0_linear_339_822" x1="105.094" y1="-16.4929" x2="105.094" y2="45.548" gradientUnits="userSpaceOnUse">
<stop stop-color="#00A3DC"/>
<stop offset="1" stop-color="#006CC0"/>
</linearGradient>
<linearGradient id="paint1_linear_339_822" x1="46.8799" y1="-9.72811" x2="46.8799" y2="36.8988" gradientUnits="userSpaceOnUse">
<stop stop-color="#00A3DC"/>
<stop offset="1" stop-color="#006CC0"/>
</linearGradient>
<linearGradient id="paint2_linear_339_822" x1="66.0915" y1="-9.72807" x2="66.0915" y2="36.8987" gradientUnits="userSpaceOnUse">
<stop stop-color="#00A3DC"/>
<stop offset="1" stop-color="#006CC0"/>
</linearGradient>
<linearGradient id="paint3_linear_339_822" x1="46.8799" y1="-9.728" x2="46.8799" y2="36.8987" gradientUnits="userSpaceOnUse">
<stop stop-color="#00A3DC"/>
<stop offset="1" stop-color="#006CC0"/>
</linearGradient>
<linearGradient id="paint4_linear_339_822" x1="65.7695" y1="-9.7281" x2="65.7695" y2="36.8987" gradientUnits="userSpaceOnUse">
<stop stop-color="#00A3DC"/>
<stop offset="1" stop-color="#006CC0"/>
</linearGradient>
<linearGradient id="paint5_linear_339_822" x1="82.3326" y1="-9.76878" x2="82.3326" y2="36.9035" gradientUnits="userSpaceOnUse">
<stop stop-color="#00A3DC"/>
<stop offset="1" stop-color="#006CC0"/>
</linearGradient>
<linearGradient id="paint6_linear_339_822" x1="25.6356" y1="-9.72826" x2="25.6356" y2="36.8985" gradientUnits="userSpaceOnUse">
<stop stop-color="#00A3DC"/>
<stop offset="1" stop-color="#006CC0"/>
</linearGradient>
<linearGradient id="paint7_linear_339_822" x1="55.9565" y1="-9.73175" x2="55.9565" y2="36.9022" gradientUnits="userSpaceOnUse">
<stop stop-color="#00A3DC"/>
<stop offset="1" stop-color="#006CC0"/>
</linearGradient>
<linearGradient id="paint8_linear_339_822" x1="77.2933" y1="-9.73172" x2="77.2933" y2="36.9023" gradientUnits="userSpaceOnUse">
<stop stop-color="#00A3DC"/>
<stop offset="1" stop-color="#006CC0"/>
</linearGradient>
<linearGradient id="paint9_linear_339_822" x1="77.2932" y1="-9.73166" x2="77.2932" y2="36.9023" gradientUnits="userSpaceOnUse">
<stop stop-color="#00A3DC"/>
<stop offset="1" stop-color="#006CC0"/>
</linearGradient>
<linearGradient id="paint10_linear_339_822" x1="20.7935" y1="-9.73177" x2="20.7935" y2="36.9022" gradientUnits="userSpaceOnUse">
<stop stop-color="#00A3DC"/>
<stop offset="1" stop-color="#006CC0"/>
</linearGradient>
</defs>
</svg>
