<svg width="213" height="196" viewBox="0 0 213 196" fill="none" xmlns="http://www.w3.org/2000/svg">
<path d="M3.8172 1.50049C3.8172 1.89845 3.65914 2.28009 3.37775 2.56149C3.09635 2.84289 2.71467 3.00101 2.31671 3.00101C1.91875 3.00101 1.53707 2.84289 1.25568 2.56149C0.974278 2.28009 0.816223 1.89845 0.816223 1.50049C0.816223 1.10266 0.97425 0.721124 1.25555 0.439819C1.53686 0.158515 1.9184 0.000488281 2.31622 0.000488281C2.71405 0.000488281 3.09559 0.158515 3.37689 0.439819C3.6582 0.721124 3.81622 1.10266 3.81622 1.50049H3.8172Z" fill="#333333"/>
<path d="M22.7841 1.50049C22.7841 1.89831 22.6261 2.27985 22.3448 2.56116C22.0635 2.84246 21.6819 3.00049 21.2841 3.00049C20.8863 3.00049 20.5048 2.84246 20.2235 2.56116C19.9422 2.27985 19.7841 1.89831 19.7841 1.50049C19.7841 1.10266 19.9422 0.721124 20.2235 0.439819C20.5048 0.158515 20.8863 0.000488281 21.2841 0.000488281C21.6819 0.000488281 22.0635 0.158515 22.3448 0.439819C22.6261 0.721124 22.7841 1.10266 22.7841 1.50049Z" fill="#333333"/>
<path d="M41.7521 1.50049C41.7521 1.89845 41.5941 2.28009 41.3127 2.56149C41.0313 2.84289 40.6496 3.00101 40.2516 3.00101C39.8537 3.00101 39.472 2.84289 39.1906 2.56149C38.9092 2.28009 38.7512 1.89845 38.7512 1.50049C38.7512 1.10253 38.9092 0.720882 39.1906 0.439484C39.472 0.158085 39.8537 0 40.2516 0C40.6496 0 41.0313 0.158085 41.3127 0.439484C41.5941 0.720882 41.7521 1.10253 41.7521 1.50049V1.50049Z" fill="#333333"/>
<path d="M60.7202 1.50049C60.7202 1.89845 60.562 2.28009 60.2806 2.56149C59.9992 2.84289 59.6176 3.00101 59.2197 3.00101C58.8217 3.00101 58.44 2.84289 58.1586 2.56149C57.8772 2.28009 57.7192 1.89845 57.7192 1.50049C57.7192 1.10266 57.8772 0.721124 58.1585 0.439819C58.4398 0.158515 58.8214 0.000488281 59.2192 0.000488281C59.617 0.000488281 59.9985 0.158515 60.2798 0.439819C60.5611 0.721124 60.7192 1.10266 60.7192 1.50049H60.7202Z" fill="#333333"/>
<path d="M79.6882 1.50049C79.6882 1.89845 79.5301 2.28009 79.2487 2.56149C78.9673 2.84289 78.5856 3.00101 78.1877 3.00101C77.7897 3.00101 77.4081 2.84289 77.1267 2.56149C76.8453 2.28009 76.6872 1.89845 76.6872 1.50049C76.6872 1.10266 76.8452 0.721124 77.1265 0.439819C77.4078 0.158515 77.7894 0.000488281 78.1872 0.000488281C78.585 0.000488281 78.9666 0.158515 79.2479 0.439819C79.5292 0.721124 79.6872 1.10266 79.6872 1.50049H79.6882Z" fill="#333333"/>
<path d="M98.6552 1.50049C98.6552 1.89831 98.4972 2.27985 98.2159 2.56116C97.9346 2.84246 97.553 3.00049 97.1552 3.00049C96.7574 3.00049 96.3758 2.84246 96.0945 2.56116C95.8132 2.27985 95.6552 1.89831 95.6552 1.50049C95.6552 1.10266 95.8132 0.721124 96.0945 0.439819C96.3758 0.158515 96.7574 0.000488281 97.1552 0.000488281C97.553 0.000488281 97.9346 0.158515 98.2159 0.439819C98.4972 0.721124 98.6552 1.10266 98.6552 1.50049Z" fill="#333333"/>
<path d="M117.623 1.50049C117.623 1.89831 117.465 2.27985 117.184 2.56116C116.903 2.84246 116.521 3.00049 116.123 3.00049C115.725 3.00049 115.344 2.84246 115.063 2.56116C114.781 2.27985 114.623 1.89831 114.623 1.50049C114.623 1.10266 114.781 0.721124 115.063 0.439819C115.344 0.158515 115.725 0.000488281 116.123 0.000488281C116.521 0.000488281 116.903 0.158515 117.184 0.439819C117.465 0.721124 117.623 1.10266 117.623 1.50049V1.50049Z" fill="#333333"/>
<path d="M136.592 1.50049C136.592 1.89845 136.434 2.28009 136.153 2.56149C135.871 2.84289 135.49 3.00101 135.092 3.00101C134.694 3.00101 134.312 2.84289 134.031 2.56149C133.749 2.28009 133.591 1.89845 133.591 1.50049C133.591 1.10253 133.749 0.720882 134.031 0.439484C134.312 0.158085 134.694 0 135.092 0C135.49 0 135.871 0.158085 136.153 0.439484C136.434 0.720882 136.592 1.10253 136.592 1.50049Z" fill="#333333"/>
<path d="M155.56 1.50049C155.56 1.89845 155.402 2.28009 155.121 2.56149C154.839 2.84289 154.458 3.00101 154.06 3.00101C153.662 3.00101 153.28 2.84289 152.999 2.56149C152.717 2.28009 152.559 1.89845 152.559 1.50049C152.559 1.10266 152.717 0.721124 152.999 0.439819C153.28 0.158515 153.661 0.000488281 154.059 0.000488281C154.457 0.000488281 154.839 0.158515 155.12 0.439819C155.401 0.721124 155.559 1.10266 155.559 1.50049H155.56Z" fill="#333333"/>
<path d="M174.528 1.50049C174.528 1.89858 174.37 2.28037 174.089 2.56186C173.807 2.84335 173.425 3.0015 173.027 3.0015C172.629 3.0015 172.247 2.84335 171.966 2.56186C171.684 2.28037 171.526 1.89858 171.526 1.50049C171.526 1.10253 171.684 0.720882 171.966 0.439484C172.247 0.158085 172.629 0 173.027 0C173.425 0 173.806 0.158085 174.088 0.439484C174.369 0.720882 174.527 1.10253 174.527 1.50049H174.528Z" fill="#333333"/>
<path d="M193.495 1.50049C193.495 1.89831 193.337 2.27985 193.056 2.56116C192.775 2.84246 192.393 3.00049 191.995 3.00049C191.597 3.00049 191.216 2.84246 190.935 2.56116C190.653 2.27985 190.495 1.89831 190.495 1.50049C190.495 1.10266 190.653 0.721124 190.935 0.439819C191.216 0.158515 191.597 0.000488281 191.995 0.000488281C192.393 0.000488281 192.775 0.158515 193.056 0.439819C193.337 0.721124 193.495 1.10266 193.495 1.50049V1.50049Z" fill="#333333"/>
<path d="M212.463 1.50049C212.463 1.89845 212.305 2.28009 212.024 2.56149C211.742 2.84289 211.361 3.00101 210.963 3.00101C210.565 3.00101 210.183 2.84289 209.902 2.56149C209.62 2.28009 209.462 1.89845 209.462 1.50049C209.462 1.10253 209.62 0.720882 209.902 0.439484C210.183 0.158085 210.565 0 210.963 0C211.361 0 211.742 0.158085 212.024 0.439484C212.305 0.720882 212.463 1.10253 212.463 1.50049V1.50049Z" fill="#333333"/>
<path d="M3.8172 20.7234C3.81713 20.9205 3.77829 21.1156 3.70282 21.2976C3.62735 21.4797 3.51676 21.645 3.37738 21.7843C3.238 21.9236 3.07252 22.0341 2.89044 22.1094C2.70837 22.1848 2.51327 22.2235 2.31622 22.2234C2.11917 22.2234 1.92403 22.1845 1.742 22.109C1.55998 22.0336 1.39466 21.923 1.25537 21.7836C1.11608 21.6442 1.00558 21.4788 0.930237 21.2967C0.85489 21.1146 0.816158 20.9195 0.816223 20.7225C0.816356 20.3246 0.974522 19.9432 1.25592 19.662C1.53732 19.3807 1.91889 19.2228 2.31671 19.223C2.71454 19.2231 3.09599 19.3813 3.3772 19.6627C3.65841 19.9441 3.81636 20.3256 3.81622 20.7234H3.8172Z" fill="#333333"/>
<path d="M22.7841 20.7234C22.784 21.1213 22.6259 21.5028 22.3445 21.784C22.0631 22.0652 21.6815 22.2231 21.2836 22.223C20.8858 22.2228 20.5044 22.0647 20.2231 21.7833C19.9419 21.5019 19.784 21.1203 19.7841 20.7225C19.7843 20.3246 19.9424 19.9432 20.2238 19.662C20.5052 19.3807 20.8868 19.2228 21.2847 19.223C21.6825 19.2231 22.0639 19.3813 22.3452 19.6627C22.6264 19.9441 22.7843 20.3256 22.7841 20.7234V20.7234Z" fill="#333333"/>
<path d="M41.7521 20.7234C41.7521 20.9205 41.7132 21.1156 41.6378 21.2976C41.5623 21.4797 41.4517 21.645 41.3123 21.7843C41.1729 21.9236 41.0075 22.0341 40.8254 22.1094C40.6433 22.1848 40.4482 22.2235 40.2512 22.2234C40.0541 22.2234 39.859 22.1845 39.6769 22.109C39.4949 22.0336 39.3296 21.923 39.1903 21.7836C39.051 21.6442 38.9405 21.4788 38.8652 21.2967C38.7898 21.1146 38.7511 20.9195 38.7512 20.7225C38.7513 20.3245 38.9095 19.9429 39.191 19.6616C39.4725 19.3803 39.8542 19.2223 40.2521 19.2225C40.6501 19.2226 41.0317 19.3808 41.313 19.6623C41.5943 19.9438 41.7523 20.3255 41.7521 20.7234V20.7234Z" fill="#333333"/>
<path d="M60.7202 20.7234C60.7201 20.9205 60.6812 21.1156 60.6057 21.2976C60.5302 21.4797 60.4197 21.645 60.2803 21.7843C60.141 21.9236 59.9755 22.0341 59.7934 22.1094C59.6113 22.1848 59.4162 22.2235 59.2192 22.2234C59.0221 22.2234 58.827 22.1845 58.645 22.109C58.4629 22.0336 58.2976 21.923 58.1583 21.7836C58.019 21.6442 57.9085 21.4788 57.8332 21.2967C57.7578 21.1146 57.7191 20.9195 57.7192 20.7225C57.7193 20.3246 57.8774 19.9432 58.1588 19.662C58.4402 19.3807 58.8218 19.2228 59.2197 19.223C59.6175 19.2231 59.9989 19.3813 60.2802 19.6627C60.5614 19.9441 60.7193 20.3256 60.7192 20.7234H60.7202Z" fill="#333333"/>
<path d="M79.6882 20.7234C79.6882 20.9205 79.6493 21.1156 79.5738 21.2976C79.4983 21.4797 79.3877 21.645 79.2484 21.7843C79.109 21.9236 78.9435 22.0341 78.7615 22.1094C78.5794 22.1848 78.3842 22.2235 78.1872 22.2234C77.9901 22.2234 77.7951 22.1845 77.613 22.109C77.431 22.0336 77.2656 21.923 77.1263 21.7836C76.9871 21.6442 76.8766 21.4788 76.8012 21.2967C76.7259 21.1146 76.6871 20.9195 76.6872 20.7225C76.6873 20.3246 76.8455 19.9432 77.1269 19.662C77.4083 19.3807 77.7899 19.2228 78.1877 19.223C78.5855 19.2231 78.967 19.3813 79.2482 19.6627C79.5294 19.9441 79.6873 20.3256 79.6872 20.7234H79.6882Z" fill="#333333"/>
<path d="M98.6552 20.7234C98.6552 21.1213 98.4972 21.5028 98.2159 21.7841C97.9346 22.0654 97.553 22.2234 97.1552 22.2234C96.7574 22.2234 96.3758 22.0654 96.0945 21.7841C95.8132 21.5028 95.6552 21.1213 95.6552 20.7234C95.6552 20.3256 95.8132 19.9441 96.0945 19.6628C96.3758 19.3815 96.7574 19.2234 97.1552 19.2234C97.553 19.2234 97.9346 19.3815 98.2159 19.6628C98.4972 19.9441 98.6552 20.3256 98.6552 20.7234Z" fill="#333333"/>
<path d="M117.623 20.7234C117.623 21.1213 117.465 21.5028 117.184 21.7841C116.903 22.0654 116.521 22.2234 116.123 22.2234C115.725 22.2234 115.344 22.0654 115.063 21.7841C114.781 21.5028 114.623 21.1213 114.623 20.7234C114.623 20.3256 114.781 19.9441 115.063 19.6628C115.344 19.3815 115.725 19.2234 116.123 19.2234C116.521 19.2234 116.903 19.3815 117.184 19.6628C117.465 19.9441 117.623 20.3256 117.623 20.7234V20.7234Z" fill="#333333"/>
<path d="M136.592 20.7234C136.592 21.1214 136.434 21.503 136.152 21.7843C135.871 22.0656 135.489 22.2236 135.091 22.2234C134.693 22.2233 134.312 22.0651 134.03 21.7836C133.749 21.5021 133.591 21.1204 133.591 20.7225C133.591 20.3245 133.75 19.9429 134.031 19.6616C134.313 19.3803 134.694 19.2223 135.092 19.2225C135.49 19.2226 135.872 19.3808 136.153 19.6623C136.434 19.9438 136.592 20.3255 136.592 20.7234V20.7234Z" fill="#333333"/>
<path d="M155.56 20.7234C155.56 21.1214 155.402 21.503 155.12 21.7843C154.839 22.0656 154.457 22.2236 154.059 22.2234C153.661 22.2233 153.28 22.0651 152.998 21.7836C152.717 21.5021 152.559 21.1204 152.559 20.7225C152.559 20.3246 152.718 19.9432 152.999 19.662C153.28 19.3807 153.662 19.2228 154.06 19.223C154.458 19.2231 154.839 19.3813 155.12 19.6627C155.402 19.9441 155.559 20.3256 155.559 20.7234H155.56Z" fill="#333333"/>
<path d="M174.528 20.7234C174.528 20.9206 174.489 21.1157 174.414 21.2978C174.338 21.4799 174.228 21.6454 174.088 21.7847C173.949 21.924 173.783 22.0345 173.601 22.1099C173.419 22.1853 173.224 22.224 173.027 22.224C172.83 22.2239 172.634 22.185 172.452 22.1095C172.27 22.034 172.105 21.9234 171.966 21.784C171.826 21.6445 171.716 21.479 171.64 21.2969C171.565 21.1148 171.526 20.9196 171.526 20.7225C171.526 20.3245 171.685 19.9429 171.966 19.6616C172.248 19.3803 172.629 19.2223 173.027 19.2225C173.425 19.2226 173.807 19.3808 174.088 19.6623C174.369 19.9438 174.527 20.3255 174.527 20.7234H174.528Z" fill="#333333"/>
<path d="M193.495 20.7234C193.495 20.9204 193.456 21.1155 193.381 21.2975C193.305 21.4794 193.195 21.6447 193.056 21.784C192.916 21.9232 192.751 22.0337 192.569 22.109C192.387 22.1843 192.192 22.223 191.995 22.223C191.798 22.2229 191.603 22.184 191.421 22.1086C191.239 22.0331 191.074 21.9226 190.934 21.7833C190.795 21.6439 190.685 21.4786 190.609 21.2965C190.534 21.1145 190.495 20.9195 190.495 20.7225C190.495 20.3246 190.654 19.9432 190.935 19.662C191.216 19.3807 191.598 19.2228 191.996 19.223C192.394 19.2231 192.775 19.3813 193.056 19.6627C193.337 19.9441 193.495 20.3256 193.495 20.7234V20.7234Z" fill="#333333"/>
<path d="M212.463 20.7234C212.463 21.1214 212.305 21.503 212.023 21.7843C211.742 22.0656 211.36 22.2236 210.962 22.2234C210.564 22.2233 210.183 22.0651 209.901 21.7836C209.62 21.5021 209.462 21.1204 209.462 20.7225C209.462 20.3245 209.621 19.9429 209.902 19.6616C210.184 19.3803 210.565 19.2223 210.963 19.2225C211.361 19.2226 211.743 19.3808 212.024 19.6623C212.305 19.9438 212.463 20.3255 212.463 20.7234V20.7234Z" fill="#333333"/>
<path d="M3.8172 39.9474C3.81713 40.1445 3.77829 40.3396 3.70282 40.5216C3.62735 40.7037 3.51676 40.869 3.37738 41.0083C3.238 41.1476 3.07252 41.2581 2.89044 41.3334C2.70837 41.4088 2.51327 41.4475 2.31622 41.4474C2.11917 41.4474 1.92403 41.4085 1.742 41.333C1.55998 41.2576 1.39466 41.147 1.25537 41.0076C1.11608 40.8682 1.00558 40.7028 0.930237 40.5207C0.85489 40.3386 0.816158 40.1435 0.816223 39.9465C0.816223 39.5486 0.97425 39.1671 1.25555 38.8858C1.53686 38.6045 1.9184 38.4465 2.31622 38.4465C2.71405 38.4465 3.09559 38.6045 3.37689 38.8858C3.6582 39.1671 3.81622 39.5486 3.81622 39.9465L3.8172 39.9474Z" fill="#333333"/>
<path d="M22.7841 39.9474C22.784 40.3453 22.6259 40.7268 22.3445 41.008C22.0631 41.2892 21.6815 41.4471 21.2836 41.447C20.8858 41.4468 20.5044 41.2887 20.2231 41.0073C19.9419 40.7259 19.784 40.3443 19.7841 39.9465C19.7841 39.5486 19.9422 39.1671 20.2235 38.8858C20.5048 38.6045 20.8863 38.4465 21.2841 38.4465C21.6819 38.4465 22.0635 38.6045 22.3448 38.8858C22.6261 39.1671 22.7841 39.5486 22.7841 39.9465V39.9474Z" fill="#333333"/>
<path d="M41.7521 39.9475C41.7521 40.1445 41.7132 40.3396 41.6378 40.5217C41.5623 40.7037 41.4517 40.8691 41.3123 41.0084C41.1729 41.1476 41.0075 41.2581 40.8254 41.3335C40.6433 41.4088 40.4482 41.4475 40.2512 41.4475C40.0541 41.4474 39.859 41.4085 39.6769 41.3331C39.4949 41.2576 39.3296 41.147 39.1903 41.0077C39.051 40.8683 38.9405 40.7028 38.8652 40.5208C38.7898 40.3387 38.7511 40.1436 38.7512 39.9465C38.7512 39.5485 38.9092 39.1669 39.1906 38.8855C39.472 38.6041 39.8537 38.446 40.2516 38.446C40.6496 38.446 41.0313 38.6041 41.3127 38.8855C41.5941 39.1669 41.7521 39.5485 41.7521 39.9465V39.9475Z" fill="#333333"/>
<path d="M60.7202 39.9474C60.7201 40.1445 60.6812 40.3396 60.6057 40.5216C60.5302 40.7037 60.4197 40.869 60.2803 41.0083C60.141 41.1476 59.9755 41.2581 59.7934 41.3334C59.6113 41.4088 59.4162 41.4475 59.2192 41.4474C59.0221 41.4474 58.827 41.4085 58.645 41.333C58.4629 41.2576 58.2976 41.147 58.1583 41.0076C58.019 40.8682 57.9085 40.7028 57.8332 40.5207C57.7578 40.3386 57.7191 40.1435 57.7192 39.9465C57.7192 39.5486 57.8772 39.1671 58.1585 38.8858C58.4398 38.6045 58.8214 38.4465 59.2192 38.4465C59.617 38.4465 59.9985 38.6045 60.2798 38.8858C60.5611 39.1671 60.7192 39.5486 60.7192 39.9465L60.7202 39.9474Z" fill="#333333"/>
<path d="M79.6882 39.9474C79.6882 40.1445 79.6493 40.3396 79.5738 40.5216C79.4983 40.7037 79.3877 40.869 79.2484 41.0083C79.109 41.1476 78.9435 41.2581 78.7615 41.3334C78.5794 41.4088 78.3842 41.4475 78.1872 41.4474C77.9901 41.4474 77.7951 41.4085 77.613 41.333C77.431 41.2576 77.2656 41.147 77.1263 41.0076C76.9871 40.8682 76.8766 40.7028 76.8012 40.5207C76.7259 40.3386 76.6871 40.1435 76.6872 39.9465C76.6872 39.5486 76.8452 39.1671 77.1265 38.8858C77.4078 38.6045 77.7894 38.4465 78.1872 38.4465C78.585 38.4465 78.9666 38.6045 79.2479 38.8858C79.5292 39.1671 79.6872 39.5486 79.6872 39.9465L79.6882 39.9474Z" fill="#333333"/>
<path d="M98.6552 39.9474C98.6552 40.3453 98.4972 40.7268 98.2159 41.0081C97.9346 41.2894 97.553 41.4474 97.1552 41.4474C96.7574 41.4474 96.3758 41.2894 96.0945 41.0081C95.8132 40.7268 95.6552 40.3453 95.6552 39.9474C95.6552 39.5496 95.8132 39.1681 96.0945 38.8868C96.3758 38.6055 96.7574 38.4474 97.1552 38.4474C97.553 38.4474 97.9346 38.6055 98.2159 38.8868C98.4972 39.1681 98.6552 39.5496 98.6552 39.9474V39.9474Z" fill="#333333"/>
<path d="M117.623 39.9474C117.623 40.3453 117.465 40.7268 117.184 41.0081C116.903 41.2894 116.521 41.4474 116.123 41.4474C115.725 41.4474 115.344 41.2894 115.063 41.0081C114.781 40.7268 114.623 40.3453 114.623 39.9474C114.623 39.5496 114.781 39.1681 115.063 38.8868C115.344 38.6055 115.725 38.4474 116.123 38.4474C116.521 38.4474 116.903 38.6055 117.184 38.8868C117.465 39.1681 117.623 39.5496 117.623 39.9474V39.9474Z" fill="#333333"/>
<path d="M136.592 39.9475C136.592 40.3454 136.434 40.7271 136.152 41.0084C135.871 41.2897 135.489 41.4476 135.091 41.4475C134.693 41.4473 134.312 41.2892 134.03 41.0077C133.749 40.7262 133.591 40.3445 133.591 39.9465C133.591 39.5485 133.749 39.1669 134.031 38.8855C134.312 38.6041 134.694 38.446 135.092 38.446C135.49 38.446 135.871 38.6041 136.153 38.8855C136.434 39.1669 136.592 39.5485 136.592 39.9465V39.9475Z" fill="#333333"/>
<path d="M155.56 39.9474C155.56 40.3454 155.402 40.727 155.12 41.0083C154.839 41.2896 154.457 41.4476 154.059 41.4474C153.661 41.4473 153.28 41.2891 152.998 41.0076C152.717 40.7261 152.559 40.3444 152.559 39.9465C152.559 39.5486 152.717 39.1671 152.999 38.8858C153.28 38.6045 153.661 38.4465 154.059 38.4465C154.457 38.4465 154.839 38.6045 155.12 38.8858C155.401 39.1671 155.559 39.5486 155.559 39.9465L155.56 39.9474Z" fill="#333333"/>
<path d="M174.528 39.9475C174.528 40.3456 174.37 40.7273 174.088 41.0087C173.807 41.2901 173.425 41.4481 173.027 41.448C172.629 41.4479 172.247 41.2896 171.966 41.008C171.684 40.7264 171.526 40.3446 171.526 39.9465C171.526 39.5485 171.684 39.1669 171.966 38.8855C172.247 38.6041 172.629 38.446 173.027 38.446C173.425 38.446 173.806 38.6041 174.088 38.8855C174.369 39.1669 174.527 39.5485 174.527 39.9465L174.528 39.9475Z" fill="#333333"/>
<path d="M193.495 39.9474C193.495 40.1444 193.456 40.3395 193.381 40.5215C193.305 40.7034 193.195 40.8687 193.056 41.008C192.916 41.1472 192.751 41.2577 192.569 41.333C192.387 41.4083 192.192 41.447 191.995 41.447C191.798 41.4469 191.603 41.408 191.421 41.3326C191.239 41.2571 191.074 41.1466 190.934 41.0073C190.795 40.8679 190.685 40.7026 190.609 40.5205C190.534 40.3385 190.495 40.1435 190.495 39.9465C190.495 39.5486 190.653 39.1671 190.935 38.8858C191.216 38.6045 191.597 38.4465 191.995 38.4465C192.393 38.4465 192.775 38.6045 193.056 38.8858C193.337 39.1671 193.495 39.5486 193.495 39.9465V39.9474Z" fill="#333333"/>
<path d="M212.463 39.9475C212.463 40.3454 212.305 40.7271 212.023 41.0084C211.742 41.2897 211.36 41.4476 210.962 41.4475C210.564 41.4473 210.183 41.2892 209.901 41.0077C209.62 40.7262 209.462 40.3445 209.462 39.9465C209.462 39.5485 209.62 39.1669 209.902 38.8855C210.183 38.6041 210.565 38.446 210.963 38.446C211.361 38.446 211.742 38.6041 212.024 38.8855C212.305 39.1669 212.463 39.5485 212.463 39.9465V39.9475Z" fill="#333333"/>
<path d="M3.8172 59.1695C3.8172 59.5675 3.65914 59.9491 3.37775 60.2305C3.09635 60.5119 2.71467 60.67 2.31671 60.67C1.91875 60.67 1.53707 60.5119 1.25568 60.2305C0.974278 59.9491 0.816223 59.5675 0.816223 59.1695C0.816223 58.7717 0.97425 58.3901 1.25555 58.1088C1.53686 57.8275 1.9184 57.6695 2.31622 57.6695C2.71405 57.6695 3.09559 57.8275 3.37689 58.1088C3.6582 58.3901 3.81622 58.7717 3.81622 59.1695H3.8172Z" fill="#333333"/>
<path d="M22.7841 59.1695C22.7841 59.5673 22.6261 59.9489 22.3448 60.2302C22.0635 60.5115 21.6819 60.6695 21.2841 60.6695C20.8863 60.6695 20.5048 60.5115 20.2235 60.2302C19.9422 59.9489 19.7841 59.5673 19.7841 59.1695C19.7841 58.7717 19.9422 58.3901 20.2235 58.1088C20.5048 57.8275 20.8863 57.6695 21.2841 57.6695C21.6819 57.6695 22.0635 57.8275 22.3448 58.1088C22.6261 58.3901 22.7841 58.7717 22.7841 59.1695Z" fill="#333333"/>
<path d="M41.7521 59.1695C41.7521 59.5675 41.5941 59.9491 41.3127 60.2305C41.0313 60.5119 40.6496 60.67 40.2516 60.67C39.8537 60.67 39.472 60.5119 39.1906 60.2305C38.9092 59.9491 38.7512 59.5675 38.7512 59.1695C38.7512 58.7715 38.9092 58.3899 39.1906 58.1085C39.472 57.8271 39.8537 57.669 40.2516 57.669C40.6496 57.669 41.0313 57.8271 41.3127 58.1085C41.5941 58.3899 41.7521 58.7715 41.7521 59.1695V59.1695Z" fill="#333333"/>
<path d="M60.7202 59.1695C60.7202 59.5675 60.562 59.9491 60.2806 60.2305C59.9992 60.5119 59.6176 60.67 59.2197 60.67C58.8217 60.67 58.44 60.5119 58.1586 60.2305C57.8772 59.9491 57.7192 59.5675 57.7192 59.1695C57.7192 58.7717 57.8772 58.3901 58.1585 58.1088C58.4398 57.8275 58.8214 57.6695 59.2192 57.6695C59.617 57.6695 59.9985 57.8275 60.2798 58.1088C60.5611 58.3901 60.7192 58.7717 60.7192 59.1695H60.7202Z" fill="#333333"/>
<path d="M79.6882 59.1695C79.6882 59.5675 79.5301 59.9491 79.2487 60.2305C78.9673 60.5119 78.5856 60.67 78.1877 60.67C77.7897 60.67 77.4081 60.5119 77.1267 60.2305C76.8453 59.9491 76.6872 59.5675 76.6872 59.1695C76.6872 58.7717 76.8452 58.3901 77.1265 58.1088C77.4078 57.8275 77.7894 57.6695 78.1872 57.6695C78.585 57.6695 78.9666 57.8275 79.2479 58.1088C79.5292 58.3901 79.6872 58.7717 79.6872 59.1695H79.6882Z" fill="#333333"/>
<path d="M98.6552 59.1695C98.6552 59.5673 98.4972 59.9489 98.2159 60.2302C97.9346 60.5115 97.553 60.6695 97.1552 60.6695C96.7574 60.6695 96.3758 60.5115 96.0945 60.2302C95.8132 59.9489 95.6552 59.5673 95.6552 59.1695C95.6552 58.7717 95.8132 58.3901 96.0945 58.1088C96.3758 57.8275 96.7574 57.6695 97.1552 57.6695C97.553 57.6695 97.9346 57.8275 98.2159 58.1088C98.4972 58.3901 98.6552 58.7717 98.6552 59.1695Z" fill="#333333"/>
<path d="M117.623 59.1695C117.623 59.5673 117.465 59.9489 117.184 60.2302C116.903 60.5115 116.521 60.6695 116.123 60.6695C115.725 60.6695 115.344 60.5115 115.063 60.2302C114.781 59.9489 114.623 59.5673 114.623 59.1695C114.623 58.7717 114.781 58.3901 115.063 58.1088C115.344 57.8275 115.725 57.6695 116.123 57.6695C116.521 57.6695 116.903 57.8275 117.184 58.1088C117.465 58.3901 117.623 58.7717 117.623 59.1695V59.1695Z" fill="#333333"/>
<path d="M136.592 59.1695C136.592 59.5675 136.434 59.9491 136.153 60.2305C135.871 60.5119 135.49 60.67 135.092 60.67C134.694 60.67 134.312 60.5119 134.031 60.2305C133.749 59.9491 133.591 59.5675 133.591 59.1695C133.591 58.7715 133.749 58.3899 134.031 58.1085C134.312 57.8271 134.694 57.669 135.092 57.669C135.49 57.669 135.871 57.8271 136.153 58.1085C136.434 58.3899 136.592 58.7715 136.592 59.1695V59.1695Z" fill="#333333"/>
<path d="M155.56 59.1695C155.56 59.5675 155.402 59.9491 155.121 60.2305C154.839 60.5119 154.458 60.67 154.06 60.67C153.662 60.67 153.28 60.5119 152.999 60.2305C152.717 59.9491 152.559 59.5675 152.559 59.1695C152.559 58.7717 152.717 58.3901 152.999 58.1088C153.28 57.8275 153.661 57.6695 154.059 57.6695C154.457 57.6695 154.839 57.8275 155.12 58.1088C155.401 58.3901 155.559 58.7717 155.559 59.1695H155.56Z" fill="#333333"/>
<path d="M174.528 59.1695C174.528 59.5676 174.37 59.9494 174.089 60.2309C173.807 60.5124 173.425 60.6705 173.027 60.6705C172.629 60.6705 172.247 60.5124 171.966 60.2309C171.684 59.9494 171.526 59.5676 171.526 59.1695C171.526 58.7715 171.684 58.3899 171.966 58.1085C172.247 57.8271 172.629 57.669 173.027 57.669C173.425 57.669 173.806 57.8271 174.088 58.1085C174.369 58.3899 174.527 58.7715 174.527 59.1695H174.528Z" fill="#333333"/>
<path d="M193.495 59.1695C193.495 59.5673 193.337 59.9489 193.056 60.2302C192.775 60.5115 192.393 60.6695 191.995 60.6695C191.597 60.6695 191.216 60.5115 190.935 60.2302C190.653 59.9489 190.495 59.5673 190.495 59.1695C190.495 58.7717 190.653 58.3901 190.935 58.1088C191.216 57.8275 191.597 57.6695 191.995 57.6695C192.393 57.6695 192.775 57.8275 193.056 58.1088C193.337 58.3901 193.495 58.7717 193.495 59.1695V59.1695Z" fill="#333333"/>
<path d="M212.463 59.1695C212.463 59.5675 212.305 59.9491 212.024 60.2305C211.742 60.5119 211.361 60.67 210.963 60.67C210.565 60.67 210.183 60.5119 209.902 60.2305C209.62 59.9491 209.462 59.5675 209.462 59.1695C209.462 58.7715 209.62 58.3899 209.902 58.1085C210.183 57.8271 210.565 57.669 210.963 57.669C211.361 57.669 211.742 57.8271 212.024 58.1085C212.305 58.3899 212.463 58.7715 212.463 59.1695V59.1695Z" fill="#333333"/>
<path d="M3.8172 78.3925C3.8172 78.7903 3.65917 79.1719 3.37787 79.4532C3.09656 79.7345 2.71502 79.8925 2.3172 79.8925C1.91937 79.8925 1.53784 79.7345 1.25653 79.4532C0.975226 79.1719 0.8172 78.7903 0.8172 78.3925C0.8172 77.9947 0.975226 77.6132 1.25653 77.3319C1.53784 77.0506 1.91937 76.8925 2.3172 76.8925C2.71502 76.8925 3.09656 77.0506 3.37787 77.3319C3.65917 77.6132 3.8172 77.9947 3.8172 78.3925Z" fill="#333333"/>
<path d="M22.7841 78.3925C22.7841 78.7903 22.6261 79.1719 22.3448 79.4532C22.0635 79.7345 21.6819 79.8925 21.2841 79.8925C20.8863 79.8925 20.5048 79.7345 20.2235 79.4532C19.9422 79.1719 19.7841 78.7903 19.7841 78.3925C19.7841 77.9947 19.9422 77.6132 20.2235 77.3319C20.5048 77.0506 20.8863 76.8925 21.2841 76.8925C21.6819 76.8925 22.0635 77.0506 22.3448 77.3319C22.6261 77.6132 22.7841 77.9947 22.7841 78.3925Z" fill="#333333"/>
<path d="M41.7521 78.3925C41.7521 78.7903 41.5941 79.1719 41.3128 79.4532C41.0315 79.7345 40.65 79.8925 40.2521 79.8925C39.8543 79.8925 39.4728 79.7345 39.1915 79.4532C38.9102 79.1719 38.7521 78.7903 38.7521 78.3925C38.7521 77.9947 38.9102 77.6132 39.1915 77.3319C39.4728 77.0506 39.8543 76.8925 40.2521 76.8925C40.65 76.8925 41.0315 77.0506 41.3128 77.3319C41.5941 77.6132 41.7521 77.9947 41.7521 78.3925Z" fill="#333333"/>
<path d="M60.7202 78.3925C60.7202 78.7903 60.5621 79.1719 60.2808 79.4532C59.9995 79.7345 59.618 79.8925 59.2202 79.8925C58.8223 79.8925 58.4408 79.7345 58.1595 79.4532C57.8782 79.1719 57.7202 78.7903 57.7202 78.3925C57.7202 77.9947 57.8782 77.6132 58.1595 77.3319C58.4408 77.0506 58.8223 76.8925 59.2202 76.8925C59.618 76.8925 59.9995 77.0506 60.2808 77.3319C60.5621 77.6132 60.7202 77.9947 60.7202 78.3925Z" fill="#333333"/>
<path d="M79.6882 78.3925C79.6882 78.7903 79.5301 79.1719 79.2488 79.4532C78.9675 79.7345 78.586 79.8925 78.1882 79.8925C77.7903 79.8925 77.4088 79.7345 77.1275 79.4532C76.8462 79.1719 76.6882 78.7903 76.6882 78.3925C76.6882 77.9947 76.8462 77.6132 77.1275 77.3319C77.4088 77.0506 77.7903 76.8925 78.1882 76.8925C78.586 76.8925 78.9675 77.0506 79.2488 77.3319C79.5301 77.6132 79.6882 77.9947 79.6882 78.3925Z" fill="#333333"/>
<path d="M98.6552 78.3925C98.6626 78.5939 98.6293 78.7948 98.5574 78.9832C98.4854 79.1715 98.3763 79.3434 98.2364 79.4885C98.0965 79.6337 97.9288 79.7492 97.7433 79.8281C97.5578 79.907 97.3583 79.9477 97.1567 79.9478C96.9551 79.9478 96.7555 79.9072 96.57 79.8285C96.3844 79.7497 96.2166 79.6343 96.0767 79.4892C95.9367 79.3441 95.8274 79.1723 95.7553 78.9841C95.6832 78.7958 95.6499 78.595 95.6572 78.3935C95.6712 78.0054 95.8352 77.6379 96.1147 77.3683C96.3942 77.0986 96.7673 76.9479 97.1556 76.9478C97.544 76.9476 97.9172 77.0981 98.1969 77.3676C98.4766 77.637 98.6409 78.0044 98.6552 78.3925V78.3925Z" fill="#333333"/>
<path d="M117.623 78.3925C117.631 78.5939 117.597 78.7948 117.525 78.9832C117.454 79.1715 117.344 79.3434 117.204 79.4885C117.065 79.6337 116.897 79.7492 116.711 79.8281C116.526 79.907 116.326 79.9477 116.125 79.9478C115.923 79.9478 115.724 79.9072 115.538 79.8285C115.352 79.7497 115.185 79.6343 115.045 79.4892C114.905 79.3441 114.795 79.1723 114.723 78.9841C114.651 78.7958 114.618 78.595 114.625 78.3935C114.639 78.0054 114.803 77.6379 115.083 77.3683C115.362 77.0986 115.735 76.9479 116.124 76.9478C116.512 76.9476 116.885 77.0981 117.165 77.3676C117.445 77.637 117.609 78.0044 117.623 78.3925V78.3925Z" fill="#333333"/>
<path d="M136.592 78.3925C136.592 78.7903 136.434 79.1719 136.153 79.4532C135.872 79.7345 135.49 79.8925 135.092 79.8925C134.694 79.8925 134.313 79.7345 134.032 79.4532C133.75 79.1719 133.592 78.7903 133.592 78.3925C133.592 77.9947 133.75 77.6132 134.032 77.3319C134.313 77.0506 134.694 76.8925 135.092 76.8925C135.49 76.8925 135.872 77.0506 136.153 77.3319C136.434 77.6132 136.592 77.9947 136.592 78.3925V78.3925Z" fill="#333333"/>
<path d="M155.56 78.3925C155.56 78.7903 155.402 79.1719 155.121 79.4532C154.84 79.7345 154.458 79.8925 154.06 79.8925C153.662 79.8925 153.281 79.7345 153 79.4532C152.718 79.1719 152.56 78.7903 152.56 78.3925C152.56 77.9947 152.718 77.6132 153 77.3319C153.281 77.0506 153.662 76.8925 154.06 76.8925C154.458 76.8925 154.84 77.0506 155.121 77.3319C155.402 77.6132 155.56 77.9947 155.56 78.3925V78.3925Z" fill="#333333"/>
<path d="M174.528 78.3925C174.528 78.7903 174.37 79.1719 174.089 79.4532C173.808 79.7345 173.426 79.8925 173.028 79.8925C172.63 79.8925 172.249 79.7345 171.968 79.4532C171.686 79.1719 171.528 78.7903 171.528 78.3925C171.528 77.9947 171.686 77.6132 171.968 77.3319C172.249 77.0506 172.63 76.8925 173.028 76.8925C173.426 76.8925 173.808 77.0506 174.089 77.3319C174.37 77.6132 174.528 77.9947 174.528 78.3925Z" fill="#333333"/>
<path d="M193.495 78.3925C193.495 78.7903 193.337 79.1719 193.056 79.4532C192.775 79.7345 192.393 79.8925 191.995 79.8925C191.597 79.8925 191.216 79.7345 190.935 79.4532C190.653 79.1719 190.495 78.7903 190.495 78.3925C190.495 77.9947 190.653 77.6132 190.935 77.3319C191.216 77.0506 191.597 76.8925 191.995 76.8925C192.393 76.8925 192.775 77.0506 193.056 77.3319C193.337 77.6132 193.495 77.9947 193.495 78.3925V78.3925Z" fill="#333333"/>
<path d="M212.463 78.3925C212.463 78.7903 212.305 79.1719 212.024 79.4532C211.743 79.7345 211.361 79.8925 210.963 79.8925C210.565 79.8925 210.184 79.7345 209.903 79.4532C209.621 79.1719 209.463 78.7903 209.463 78.3925C209.463 77.9947 209.621 77.6132 209.903 77.3319C210.184 77.0506 210.565 76.8925 210.963 76.8925C211.361 76.8925 211.743 77.0506 212.024 77.3319C212.305 77.6132 212.463 77.9947 212.463 78.3925V78.3925Z" fill="#333333"/>
<path d="M3.8172 97.6165C3.81713 97.8136 3.77829 98.0086 3.70282 98.1907C3.62735 98.3727 3.51676 98.5381 3.37738 98.6774C3.238 98.8167 3.07252 98.9272 2.89044 99.0025C2.70837 99.0778 2.51327 99.1166 2.31622 99.1165C2.11917 99.1165 1.92403 99.0776 1.742 99.0021C1.55998 98.9267 1.39466 98.8161 1.25537 98.6767C1.11608 98.5373 1.00558 98.3718 0.930237 98.1898C0.85489 98.0077 0.816158 97.8126 0.816223 97.6155C0.816223 97.2177 0.97425 96.8362 1.25555 96.5549C1.53686 96.2736 1.9184 96.1155 2.31622 96.1155C2.71405 96.1155 3.09559 96.2736 3.37689 96.5549C3.6582 96.8362 3.81622 97.2177 3.81622 97.6155L3.8172 97.6165Z" fill="#333333"/>
<path d="M22.7841 97.6165C22.784 98.0143 22.6259 98.3959 22.3445 98.6771C22.0631 98.9583 21.6815 99.1162 21.2836 99.116C20.8858 99.1159 20.5044 98.9577 20.2231 98.6763C19.9419 98.3949 19.784 98.0134 19.7841 97.6155C19.7841 97.2177 19.9422 96.8362 20.2235 96.5549C20.5048 96.2736 20.8863 96.1155 21.2841 96.1155C21.6819 96.1155 22.0635 96.2736 22.3448 96.5549C22.6261 96.8362 22.7841 97.2177 22.7841 97.6155V97.6165Z" fill="#333333"/>
<path d="M41.7521 97.6165C41.7521 97.8136 41.7132 98.0086 41.6378 98.1907C41.5623 98.3727 41.4517 98.5381 41.3123 98.6774C41.1729 98.8167 41.0075 98.9272 40.8254 99.0025C40.6433 99.0778 40.4482 99.1166 40.2512 99.1165C40.0541 99.1165 39.859 99.0776 39.6769 99.0021C39.4949 98.9267 39.3296 98.8161 39.1903 98.6767C39.051 98.5373 38.9405 98.3718 38.8652 98.1898C38.7898 98.0077 38.7511 97.8126 38.7512 97.6155C38.7512 97.2176 38.9092 96.8359 39.1906 96.5545C39.472 96.2731 39.8537 96.1151 40.2516 96.1151C40.6496 96.1151 41.0313 96.2731 41.3127 96.5545C41.5941 96.8359 41.7521 97.2176 41.7521 97.6155V97.6165Z" fill="#333333"/>
<path d="M60.7202 97.6165C60.7201 97.8136 60.6812 98.0086 60.6057 98.1907C60.5302 98.3727 60.4197 98.5381 60.2803 98.6774C60.141 98.8167 59.9755 98.9272 59.7934 99.0025C59.6113 99.0778 59.4162 99.1166 59.2192 99.1165C59.0221 99.1165 58.827 99.0776 58.645 99.0021C58.4629 98.9267 58.2976 98.8161 58.1583 98.6767C58.019 98.5373 57.9085 98.3718 57.8332 98.1898C57.7578 98.0077 57.7191 97.8126 57.7192 97.6155C57.7192 97.2177 57.8772 96.8362 58.1585 96.5549C58.4398 96.2736 58.8214 96.1155 59.2192 96.1155C59.617 96.1155 59.9985 96.2736 60.2798 96.5549C60.5611 96.8362 60.7192 97.2177 60.7192 97.6155L60.7202 97.6165Z" fill="#333333"/>
<path d="M79.6882 97.6165C79.6882 97.8136 79.6493 98.0086 79.5738 98.1907C79.4983 98.3727 79.3877 98.5381 79.2484 98.6774C79.109 98.8167 78.9435 98.9272 78.7615 99.0025C78.5794 99.0778 78.3842 99.1166 78.1872 99.1165C77.9901 99.1165 77.7951 99.0776 77.613 99.0021C77.431 98.9267 77.2656 98.8161 77.1263 98.6767C76.9871 98.5373 76.8766 98.3718 76.8012 98.1898C76.7259 98.0077 76.6871 97.8126 76.6872 97.6155C76.6872 97.2177 76.8452 96.8362 77.1265 96.5549C77.4078 96.2736 77.7894 96.1155 78.1872 96.1155C78.585 96.1155 78.9666 96.2736 79.2479 96.5549C79.5292 96.8362 79.6872 97.2177 79.6872 97.6155L79.6882 97.6165Z" fill="#333333"/>
<path d="M98.6552 97.6165C98.6552 98.0143 98.4972 98.3959 98.2159 98.6772C97.9346 98.9585 97.553 99.1165 97.1552 99.1165C96.7574 99.1165 96.3758 98.9585 96.0945 98.6772C95.8132 98.3959 95.6552 98.0143 95.6552 97.6165C95.6552 97.2187 95.8132 96.8372 96.0945 96.5558C96.3758 96.2745 96.7574 96.1165 97.1552 96.1165C97.553 96.1165 97.9346 96.2745 98.2159 96.5558C98.4972 96.8372 98.6552 97.2187 98.6552 97.6165Z" fill="#333333"/>
<path d="M117.623 97.6165C117.623 98.0143 117.465 98.3959 117.184 98.6772C116.903 98.9585 116.521 99.1165 116.123 99.1165C115.725 99.1165 115.344 98.9585 115.063 98.6772C114.781 98.3959 114.623 98.0143 114.623 97.6165C114.623 97.2187 114.781 96.8372 115.063 96.5558C115.344 96.2745 115.725 96.1165 116.123 96.1165C116.521 96.1165 116.903 96.2745 117.184 96.5558C117.465 96.8372 117.623 97.2187 117.623 97.6165V97.6165Z" fill="#333333"/>
<path d="M136.592 97.6165C136.592 98.0145 136.434 98.3961 136.152 98.6774C135.871 98.9587 135.489 99.1166 135.091 99.1165C134.693 99.1164 134.312 98.9582 134.03 98.6767C133.749 98.3952 133.591 98.0135 133.591 97.6155C133.591 97.2176 133.749 96.8359 134.031 96.5545C134.312 96.2731 134.694 96.1151 135.092 96.1151C135.49 96.1151 135.871 96.2731 136.153 96.5545C136.434 96.8359 136.592 97.2176 136.592 97.6155V97.6165Z" fill="#333333"/>
<path d="M155.56 97.6165C155.56 98.0145 155.402 98.3961 155.12 98.6774C154.839 98.9587 154.457 99.1166 154.059 99.1165C153.661 99.1164 153.28 98.9582 152.998 98.6767C152.717 98.3952 152.559 98.0135 152.559 97.6155C152.559 97.2177 152.717 96.8362 152.999 96.5549C153.28 96.2736 153.661 96.1155 154.059 96.1155C154.457 96.1155 154.839 96.2736 155.12 96.5549C155.401 96.8362 155.559 97.2177 155.559 97.6155L155.56 97.6165Z" fill="#333333"/>
<path d="M174.528 97.6165C174.528 98.0146 174.37 98.3963 174.088 98.6777C173.807 98.9591 173.425 99.1171 173.027 99.117C172.629 99.1169 172.247 98.9586 171.966 98.6771C171.684 98.3955 171.526 98.0136 171.526 97.6155C171.526 97.2176 171.684 96.8359 171.966 96.5545C172.247 96.2731 172.629 96.1151 173.027 96.1151C173.425 96.1151 173.806 96.2731 174.088 96.5545C174.369 96.8359 174.527 97.2176 174.527 97.6155L174.528 97.6165Z" fill="#333333"/>
<path d="M193.495 97.6165C193.495 97.8135 193.456 98.0085 193.381 98.1905C193.305 98.3725 193.195 98.5378 193.056 98.6771C192.916 98.8163 192.751 98.9267 192.569 99.002C192.387 99.0773 192.192 99.1161 191.995 99.116C191.798 99.116 191.603 99.0771 191.421 99.0016C191.239 98.9262 191.074 98.8157 190.934 98.6763C190.795 98.537 190.685 98.3716 190.609 98.1896C190.534 98.0076 190.495 97.8125 190.495 97.6155C190.495 97.2177 190.653 96.8362 190.935 96.5549C191.216 96.2736 191.597 96.1155 191.995 96.1155C192.393 96.1155 192.775 96.2736 193.056 96.5549C193.337 96.8362 193.495 97.2177 193.495 97.6155V97.6165Z" fill="#333333"/>
<path d="M212.463 97.6165C212.463 98.0145 212.305 98.3961 212.023 98.6774C211.742 98.9587 211.36 99.1166 210.962 99.1165C210.564 99.1164 210.183 98.9582 209.901 98.6767C209.62 98.3952 209.462 98.0135 209.462 97.6155C209.462 97.2176 209.62 96.8359 209.902 96.5545C210.183 96.2731 210.565 96.1151 210.963 96.1151C211.361 96.1151 211.742 96.2731 212.024 96.5545C212.305 96.8359 212.463 97.2176 212.463 97.6155V97.6165Z" fill="#333333"/>
<path d="M3.8172 116.84C3.8172 117.237 3.65917 117.619 3.37787 117.9C3.09656 118.182 2.71502 118.34 2.3172 118.34C1.91937 118.34 1.53784 118.182 1.25653 117.9C0.975226 117.619 0.8172 117.237 0.8172 116.84C0.8172 116.442 0.975226 116.06 1.25653 115.779C1.53784 115.498 1.91937 115.34 2.3172 115.34C2.71502 115.34 3.09656 115.498 3.37787 115.779C3.65917 116.06 3.8172 116.442 3.8172 116.84V116.84Z" fill="#333333"/>
<path d="M22.7841 116.84C22.7841 117.237 22.6261 117.619 22.3448 117.9C22.0635 118.182 21.6819 118.34 21.2841 118.34C20.8863 118.34 20.5048 118.182 20.2235 117.9C19.9422 117.619 19.7841 117.237 19.7841 116.84C19.7841 116.442 19.9422 116.06 20.2235 115.779C20.5048 115.498 20.8863 115.34 21.2841 115.34C21.6819 115.34 22.0635 115.498 22.3448 115.779C22.6261 116.06 22.7841 116.442 22.7841 116.84V116.84Z" fill="#333333"/>
<path d="M41.7521 116.84C41.7521 117.237 41.5941 117.619 41.3128 117.9C41.0315 118.182 40.65 118.34 40.2521 118.34C39.8543 118.34 39.4728 118.182 39.1915 117.9C38.9102 117.619 38.7521 117.237 38.7521 116.84C38.7521 116.442 38.9102 116.06 39.1915 115.779C39.4728 115.498 39.8543 115.34 40.2521 115.34C40.65 115.34 41.0315 115.498 41.3128 115.779C41.5941 116.06 41.7521 116.442 41.7521 116.84V116.84Z" fill="#333333"/>
<path d="M60.7202 116.84C60.7202 117.237 60.5621 117.619 60.2808 117.9C59.9995 118.182 59.618 118.34 59.2202 118.34C58.8223 118.34 58.4408 118.182 58.1595 117.9C57.8782 117.619 57.7202 117.237 57.7202 116.84C57.7202 116.442 57.8782 116.06 58.1595 115.779C58.4408 115.498 58.8223 115.34 59.2202 115.34C59.618 115.34 59.9995 115.498 60.2808 115.779C60.5621 116.06 60.7202 116.442 60.7202 116.84V116.84Z" fill="#333333"/>
<path d="M79.6882 116.84C79.6882 117.237 79.5301 117.619 79.2488 117.9C78.9675 118.182 78.586 118.34 78.1882 118.34C77.7903 118.34 77.4088 118.182 77.1275 117.9C76.8462 117.619 76.6882 117.237 76.6882 116.84C76.6882 116.442 76.8462 116.06 77.1275 115.779C77.4088 115.498 77.7903 115.34 78.1882 115.34C78.586 115.34 78.9675 115.498 79.2488 115.779C79.5301 116.06 79.6882 116.442 79.6882 116.84V116.84Z" fill="#333333"/>
<path d="M98.6552 116.84C98.6625 117.041 98.6292 117.242 98.5572 117.43C98.4852 117.618 98.376 117.79 98.236 117.935C98.0961 118.081 97.9284 118.196 97.7428 118.275C97.5573 118.354 97.3577 118.394 97.1562 118.394C96.9546 118.394 96.7551 118.354 96.5695 118.275C96.384 118.196 96.2162 118.081 96.0763 117.935C95.9364 117.79 95.8272 117.618 95.7552 117.43C95.6831 117.242 95.6498 117.041 95.6572 116.84C95.6714 116.451 95.8355 116.084 96.1151 115.814C96.3946 115.545 96.7678 115.394 97.1562 115.394C97.5445 115.394 97.9177 115.545 98.1973 115.814C98.4769 116.084 98.641 116.451 98.6552 116.84V116.84Z" fill="#333333"/>
<path d="M117.623 116.84C117.631 117.041 117.597 117.242 117.525 117.43C117.453 117.618 117.344 117.79 117.204 117.935C117.064 118.081 116.896 118.196 116.711 118.275C116.525 118.354 116.326 118.394 116.124 118.394C115.923 118.394 115.723 118.354 115.538 118.275C115.352 118.196 115.184 118.081 115.044 117.935C114.904 117.79 114.795 117.618 114.723 117.43C114.651 117.242 114.618 117.041 114.625 116.84C114.639 116.451 114.804 116.084 115.083 115.814C115.363 115.545 115.736 115.394 116.124 115.394C116.513 115.394 116.886 115.545 117.165 115.814C117.445 116.084 117.609 116.451 117.623 116.84V116.84Z" fill="#333333"/>
<path d="M136.592 116.84C136.592 117.237 136.434 117.619 136.153 117.9C135.872 118.182 135.49 118.34 135.092 118.34C134.694 118.34 134.313 118.182 134.032 117.9C133.75 117.619 133.592 117.237 133.592 116.84C133.592 116.442 133.75 116.06 134.032 115.779C134.313 115.498 134.694 115.34 135.092 115.34C135.49 115.34 135.872 115.498 136.153 115.779C136.434 116.06 136.592 116.442 136.592 116.84V116.84Z" fill="#333333"/>
<path d="M155.56 116.84C155.56 117.237 155.402 117.619 155.121 117.9C154.84 118.182 154.458 118.34 154.06 118.34C153.662 118.34 153.281 118.182 153 117.9C152.718 117.619 152.56 117.237 152.56 116.84C152.56 116.442 152.718 116.06 153 115.779C153.281 115.498 153.662 115.34 154.06 115.34C154.458 115.34 154.84 115.498 155.121 115.779C155.402 116.06 155.56 116.442 155.56 116.84V116.84Z" fill="#333333"/>
<path d="M174.528 116.84C174.528 117.237 174.37 117.619 174.089 117.9C173.808 118.182 173.426 118.34 173.028 118.34C172.63 118.34 172.249 118.182 171.968 117.9C171.686 117.619 171.528 117.237 171.528 116.84C171.528 116.442 171.686 116.06 171.968 115.779C172.249 115.498 172.63 115.34 173.028 115.34C173.426 115.34 173.808 115.498 174.089 115.779C174.37 116.06 174.528 116.442 174.528 116.84V116.84Z" fill="#333333"/>
<path d="M193.495 116.84C193.495 117.237 193.337 117.619 193.056 117.9C192.775 118.182 192.393 118.34 191.995 118.34C191.597 118.34 191.216 118.182 190.935 117.9C190.653 117.619 190.495 117.237 190.495 116.84C190.495 116.442 190.653 116.06 190.935 115.779C191.216 115.498 191.597 115.34 191.995 115.34C192.393 115.34 192.775 115.498 193.056 115.779C193.337 116.06 193.495 116.442 193.495 116.84V116.84Z" fill="#333333"/>
<path d="M212.463 116.84C212.463 117.237 212.305 117.619 212.024 117.9C211.743 118.182 211.361 118.34 210.963 118.34C210.565 118.34 210.184 118.182 209.903 117.9C209.621 117.619 209.463 117.237 209.463 116.84C209.463 116.442 209.621 116.06 209.903 115.779C210.184 115.498 210.565 115.34 210.963 115.34C211.361 115.34 211.743 115.498 212.024 115.779C212.305 116.06 212.463 116.442 212.463 116.84V116.84Z" fill="#333333"/>
<path d="M3.8172 136.063C3.81713 136.26 3.77829 136.455 3.70282 136.637C3.62735 136.819 3.51676 136.984 3.37738 137.123C3.238 137.263 3.07252 137.373 2.89044 137.448C2.70837 137.524 2.51327 137.563 2.31622 137.562C2.11917 137.562 1.92403 137.524 1.742 137.448C1.55998 137.373 1.39466 137.262 1.25537 137.123C1.11608 136.983 1.00558 136.818 0.930237 136.636C0.85489 136.454 0.816158 136.259 0.816223 136.062C0.816356 135.664 0.974522 135.282 1.25592 135.001C1.53732 134.72 1.91889 134.562 2.31671 134.562C2.71454 134.562 3.09599 134.72 3.3772 135.002C3.65841 135.283 3.81636 135.665 3.81622 136.063H3.8172Z" fill="#333333"/>
<path d="M22.7841 136.063C22.784 136.46 22.6259 136.842 22.3445 137.123C22.0631 137.404 21.6815 137.562 21.2836 137.562C20.8858 137.562 20.5044 137.404 20.2231 137.122C19.9419 136.841 19.784 136.459 19.7841 136.062C19.7843 135.664 19.9424 135.282 20.2238 135.001C20.5052 134.72 20.8868 134.562 21.2847 134.562C21.6825 134.562 22.0639 134.72 22.3452 135.002C22.6264 135.283 22.7843 135.665 22.7841 136.063V136.063Z" fill="#333333"/>
<path d="M41.7521 136.063C41.7521 136.26 41.7132 136.455 41.6378 136.637C41.5623 136.819 41.4517 136.984 41.3123 137.123C41.1729 137.263 41.0075 137.373 40.8254 137.448C40.6433 137.524 40.4482 137.563 40.2512 137.562C40.0541 137.562 39.859 137.524 39.6769 137.448C39.4949 137.373 39.3296 137.262 39.1903 137.123C39.051 136.983 38.9405 136.818 38.8652 136.636C38.7898 136.454 38.7511 136.259 38.7512 136.062C38.7513 135.664 38.9095 135.282 39.191 135.001C39.4725 134.719 39.8542 134.561 40.2521 134.562C40.6501 134.562 41.0317 134.72 41.313 135.001C41.5943 135.283 41.7523 135.665 41.7521 136.063V136.063Z" fill="#333333"/>
<path d="M60.7202 136.063C60.7201 136.26 60.6812 136.455 60.6057 136.637C60.5302 136.819 60.4197 136.984 60.2803 137.123C60.141 137.263 59.9755 137.373 59.7934 137.448C59.6113 137.524 59.4162 137.563 59.2192 137.562C59.0221 137.562 58.827 137.524 58.645 137.448C58.4629 137.373 58.2976 137.262 58.1583 137.123C58.019 136.983 57.9085 136.818 57.8332 136.636C57.7578 136.454 57.7191 136.259 57.7192 136.062C57.7193 135.664 57.8774 135.282 58.1588 135.001C58.4402 134.72 58.8218 134.562 59.2197 134.562C59.6175 134.562 59.9989 134.72 60.2802 135.002C60.5614 135.283 60.7193 135.665 60.7192 136.063H60.7202Z" fill="#333333"/>
<path d="M79.6882 136.063C79.6882 136.26 79.6493 136.455 79.5738 136.637C79.4983 136.819 79.3877 136.984 79.2484 137.123C79.109 137.263 78.9435 137.373 78.7615 137.448C78.5794 137.524 78.3842 137.563 78.1872 137.562C77.9901 137.562 77.7951 137.524 77.613 137.448C77.431 137.373 77.2656 137.262 77.1263 137.123C76.9871 136.983 76.8766 136.818 76.8012 136.636C76.7259 136.454 76.6871 136.259 76.6872 136.062C76.6873 135.664 76.8455 135.282 77.1269 135.001C77.4083 134.72 77.7899 134.562 78.1877 134.562C78.5855 134.562 78.967 134.72 79.2482 135.002C79.5294 135.283 79.6873 135.665 79.6872 136.063H79.6882Z" fill="#333333"/>
<path d="M98.6552 136.062C98.6552 136.46 98.4972 136.842 98.2159 137.123C97.9346 137.404 97.553 137.562 97.1552 137.562C96.7574 137.562 96.3758 137.404 96.0945 137.123C95.8132 136.842 95.6552 136.46 95.6552 136.062C95.6552 135.665 95.8132 135.283 96.0945 135.002C96.3758 134.721 96.7574 134.562 97.1552 134.562C97.553 134.562 97.9346 134.721 98.2159 135.002C98.4972 135.283 98.6552 135.665 98.6552 136.062Z" fill="#333333"/>
<path d="M117.623 136.062C117.623 136.46 117.465 136.842 117.184 137.123C116.903 137.404 116.521 137.562 116.123 137.562C115.725 137.562 115.344 137.404 115.063 137.123C114.781 136.842 114.623 136.46 114.623 136.062C114.623 135.665 114.781 135.283 115.063 135.002C115.344 134.721 115.725 134.562 116.123 134.562C116.521 134.562 116.903 134.721 117.184 135.002C117.465 135.283 117.623 135.665 117.623 136.062V136.062Z" fill="#333333"/>
<path d="M136.592 136.063C136.592 136.46 136.434 136.842 136.152 137.123C135.871 137.405 135.489 137.563 135.091 137.562C134.693 137.562 134.312 137.404 134.03 137.123C133.749 136.841 133.591 136.459 133.591 136.062C133.591 135.864 133.63 135.669 133.706 135.487C133.781 135.305 133.892 135.14 134.031 135.001C134.171 134.861 134.336 134.751 134.518 134.676C134.7 134.6 134.895 134.561 135.092 134.562C135.289 134.562 135.484 134.6 135.666 134.676C135.848 134.751 136.014 134.862 136.153 135.001C136.292 135.141 136.403 135.306 136.478 135.488C136.554 135.67 136.592 135.865 136.592 136.063V136.063Z" fill="#333333"/>
<path d="M155.56 136.063C155.56 136.46 155.402 136.842 155.12 137.123C154.839 137.405 154.457 137.563 154.059 137.562C153.661 137.562 153.28 137.404 152.998 137.123C152.717 136.841 152.559 136.459 152.559 136.062C152.559 135.664 152.718 135.282 152.999 135.001C153.28 134.72 153.662 134.562 154.06 134.562C154.458 134.562 154.839 134.72 155.12 135.002C155.402 135.283 155.559 135.665 155.559 136.063H155.56Z" fill="#333333"/>
<path d="M174.528 136.063C174.528 136.461 174.37 136.842 174.088 137.124C173.807 137.405 173.425 137.563 173.027 137.563C172.629 137.563 172.247 137.405 171.966 137.123C171.684 136.841 171.526 136.46 171.526 136.062C171.526 135.864 171.565 135.669 171.641 135.487C171.716 135.305 171.827 135.14 171.966 135.001C172.105 134.861 172.271 134.751 172.453 134.676C172.635 134.6 172.83 134.561 173.027 134.562C173.224 134.562 173.419 134.6 173.601 134.676C173.783 134.751 173.949 134.862 174.088 135.001C174.227 135.141 174.338 135.306 174.413 135.488C174.489 135.67 174.527 135.865 174.527 136.063H174.528Z" fill="#333333"/>
<path d="M193.495 136.063C193.495 136.259 193.456 136.455 193.381 136.637C193.305 136.818 193.195 136.984 193.056 137.123C192.916 137.262 192.751 137.373 192.569 137.448C192.387 137.523 192.192 137.562 191.995 137.562C191.798 137.562 191.603 137.523 191.421 137.448C191.239 137.372 191.074 137.262 190.934 137.122C190.795 136.983 190.685 136.818 190.609 136.636C190.534 136.454 190.495 136.259 190.495 136.062C190.495 135.664 190.654 135.282 190.935 135.001C191.216 134.72 191.598 134.562 191.996 134.562C192.394 134.562 192.775 134.72 193.056 135.002C193.337 135.283 193.495 135.665 193.495 136.063V136.063Z" fill="#333333"/>
<path d="M212.463 136.063C212.463 136.46 212.305 136.842 212.023 137.123C211.742 137.405 211.36 137.563 210.962 137.562C210.564 137.562 210.183 137.404 209.901 137.123C209.62 136.841 209.462 136.459 209.462 136.062C209.462 135.864 209.501 135.669 209.577 135.487C209.652 135.305 209.763 135.14 209.902 135.001C210.041 134.861 210.207 134.751 210.389 134.676C210.571 134.6 210.766 134.561 210.963 134.562C211.16 134.562 211.355 134.6 211.537 134.676C211.719 134.751 211.885 134.862 212.024 135.001C212.163 135.141 212.274 135.306 212.349 135.488C212.425 135.67 212.463 135.865 212.463 136.063V136.063Z" fill="#333333"/>
<path d="M3.8172 155.286C3.81713 155.483 3.77829 155.678 3.70282 155.86C3.62735 156.042 3.51676 156.207 3.37738 156.346C3.238 156.486 3.07252 156.596 2.89044 156.672C2.70837 156.747 2.51327 156.786 2.31622 156.786C2.11917 156.785 1.92403 156.747 1.742 156.671C1.55998 156.596 1.39466 156.485 1.25537 156.346C1.11608 156.206 1.00558 156.041 0.930237 155.859C0.85489 155.677 0.816158 155.482 0.816223 155.285C0.816223 154.887 0.97425 154.505 1.25555 154.224C1.53686 153.943 1.9184 153.785 2.31622 153.785C2.71405 153.785 3.09559 153.943 3.37689 154.224C3.6582 154.505 3.81622 154.887 3.81622 155.285L3.8172 155.286Z" fill="#333333"/>
<path d="M22.7841 155.286C22.784 155.683 22.6259 156.065 22.3445 156.346C22.0631 156.627 21.6815 156.785 21.2836 156.785C20.8858 156.785 20.5044 156.627 20.2231 156.345C19.9419 156.064 19.784 155.682 19.7841 155.285C19.7841 154.887 19.9422 154.505 20.2235 154.224C20.5048 153.943 20.8863 153.785 21.2841 153.785C21.6819 153.785 22.0635 153.943 22.3448 154.224C22.6261 154.505 22.7841 154.887 22.7841 155.285V155.286Z" fill="#333333"/>
<path d="M41.7521 155.286C41.7521 155.483 41.7132 155.678 41.6378 155.86C41.5623 156.042 41.4517 156.207 41.3123 156.346C41.1729 156.486 41.0075 156.596 40.8254 156.672C40.6433 156.747 40.4482 156.786 40.2512 156.786C40.0541 156.785 39.859 156.747 39.6769 156.671C39.4949 156.596 39.3296 156.485 39.1903 156.346C39.051 156.206 38.9405 156.041 38.8652 155.859C38.7898 155.677 38.7511 155.482 38.7512 155.285C38.7512 154.887 38.9092 154.505 39.1906 154.224C39.472 153.942 39.8537 153.784 40.2516 153.784C40.6496 153.784 41.0313 153.942 41.3127 154.224C41.5941 154.505 41.7521 154.887 41.7521 155.285V155.286Z" fill="#333333"/>
<path d="M60.7202 155.286C60.7201 155.483 60.6812 155.678 60.6057 155.86C60.5302 156.042 60.4197 156.207 60.2803 156.346C60.141 156.486 59.9755 156.596 59.7934 156.672C59.6113 156.747 59.4162 156.786 59.2192 156.786C59.0221 156.785 58.827 156.747 58.645 156.671C58.4629 156.596 58.2976 156.485 58.1583 156.346C58.019 156.206 57.9085 156.041 57.8332 155.859C57.7578 155.677 57.7191 155.482 57.7192 155.285C57.7192 154.887 57.8772 154.505 58.1585 154.224C58.4398 153.943 58.8214 153.785 59.2192 153.785C59.617 153.785 59.9985 153.943 60.2798 154.224C60.5611 154.505 60.7192 154.887 60.7192 155.285L60.7202 155.286Z" fill="#333333"/>
<path d="M79.6882 155.286C79.6882 155.483 79.6493 155.678 79.5738 155.86C79.4983 156.042 79.3877 156.207 79.2484 156.346C79.109 156.486 78.9435 156.596 78.7615 156.672C78.5794 156.747 78.3842 156.786 78.1872 156.786C77.9901 156.785 77.7951 156.747 77.613 156.671C77.431 156.596 77.2656 156.485 77.1263 156.346C76.9871 156.206 76.8766 156.041 76.8012 155.859C76.7259 155.677 76.6871 155.482 76.6872 155.285C76.6872 154.887 76.8452 154.505 77.1265 154.224C77.4078 153.943 77.7894 153.785 78.1872 153.785C78.585 153.785 78.9666 153.943 79.2479 154.224C79.5292 154.505 79.6872 154.887 79.6872 155.285L79.6882 155.286Z" fill="#333333"/>
<path d="M98.6552 155.286C98.6552 155.683 98.4972 156.065 98.2159 156.346C97.9346 156.627 97.553 156.786 97.1552 156.786C96.7574 156.786 96.3758 156.627 96.0945 156.346C95.8132 156.065 95.6552 155.683 95.6552 155.286C95.6552 154.888 95.8132 154.506 96.0945 154.225C96.3758 153.944 96.7574 153.786 97.1552 153.786C97.553 153.786 97.9346 153.944 98.2159 154.225C98.4972 154.506 98.6552 154.888 98.6552 155.286Z" fill="#333333"/>
<path d="M117.623 155.286C117.623 155.683 117.465 156.065 117.184 156.346C116.903 156.627 116.521 156.786 116.123 156.786C115.725 156.786 115.344 156.627 115.063 156.346C114.781 156.065 114.623 155.683 114.623 155.286C114.623 154.888 114.781 154.506 115.063 154.225C115.344 153.944 115.725 153.786 116.123 153.786C116.521 153.786 116.903 153.944 117.184 154.225C117.465 154.506 117.623 154.888 117.623 155.286V155.286Z" fill="#333333"/>
<path d="M136.592 155.286C136.592 155.683 136.434 156.065 136.152 156.346C135.871 156.628 135.489 156.786 135.091 156.786C134.693 156.785 134.312 156.627 134.03 156.346C133.749 156.064 133.591 155.683 133.591 155.285C133.591 154.887 133.749 154.505 134.031 154.224C134.312 153.942 134.694 153.784 135.092 153.784C135.49 153.784 135.871 153.942 136.153 154.224C136.434 154.505 136.592 154.887 136.592 155.285V155.286Z" fill="#333333"/>
<path d="M155.56 155.286C155.56 155.683 155.402 156.065 155.12 156.346C154.839 156.628 154.457 156.786 154.059 156.786C153.661 156.785 153.28 156.627 152.998 156.346C152.717 156.064 152.559 155.683 152.559 155.285C152.559 154.887 152.717 154.505 152.999 154.224C153.28 153.943 153.661 153.785 154.059 153.785C154.457 153.785 154.839 153.943 155.12 154.224C155.401 154.505 155.559 154.887 155.559 155.285L155.56 155.286Z" fill="#333333"/>
<path d="M174.528 155.286C174.528 155.483 174.489 155.678 174.414 155.86C174.338 156.042 174.228 156.207 174.088 156.347C173.949 156.486 173.783 156.597 173.601 156.672C173.419 156.747 173.224 156.786 173.027 156.786C172.83 156.786 172.634 156.747 172.452 156.672C172.27 156.596 172.105 156.485 171.966 156.346C171.826 156.207 171.716 156.041 171.64 155.859C171.565 155.677 171.526 155.482 171.526 155.285C171.526 154.887 171.684 154.505 171.966 154.224C172.247 153.942 172.629 153.784 173.027 153.784C173.425 153.784 173.806 153.942 174.088 154.224C174.369 154.505 174.527 154.887 174.527 155.285L174.528 155.286Z" fill="#333333"/>
<path d="M193.495 155.286C193.495 155.483 193.456 155.678 193.381 155.859C193.305 156.041 193.195 156.207 193.056 156.346C192.916 156.485 192.751 156.596 192.569 156.671C192.387 156.746 192.192 156.785 191.995 156.785C191.798 156.785 191.603 156.746 191.421 156.671C191.239 156.595 191.074 156.485 190.934 156.345C190.795 156.206 190.685 156.041 190.609 155.859C190.534 155.677 190.495 155.482 190.495 155.285C190.495 154.887 190.653 154.505 190.935 154.224C191.216 153.943 191.597 153.785 191.995 153.785C192.393 153.785 192.775 153.943 193.056 154.224C193.337 154.505 193.495 154.887 193.495 155.285V155.286Z" fill="#333333"/>
<path d="M212.463 155.286C212.463 155.683 212.305 156.065 212.023 156.346C211.742 156.628 211.36 156.786 210.962 156.786C210.564 156.785 210.183 156.627 209.901 156.346C209.62 156.064 209.462 155.683 209.462 155.285C209.462 154.887 209.62 154.505 209.902 154.224C210.183 153.942 210.565 153.784 210.963 153.784C211.361 153.784 211.742 153.942 212.024 154.224C212.305 154.505 212.463 154.887 212.463 155.285V155.286Z" fill="#333333"/>
<path d="M3.8172 174.508C3.8172 174.905 3.65917 175.287 3.37787 175.568C3.09656 175.849 2.71502 176.008 2.3172 176.008C1.91937 176.008 1.53784 175.849 1.25653 175.568C0.975226 175.287 0.8172 174.905 0.8172 174.508C0.8172 174.11 0.975226 173.728 1.25653 173.447C1.53784 173.166 1.91937 173.008 2.3172 173.008C2.71502 173.008 3.09656 173.166 3.37787 173.447C3.65917 173.728 3.8172 174.11 3.8172 174.508Z" fill="#333333"/>
<path d="M22.7841 174.508C22.7841 174.905 22.6261 175.287 22.3448 175.568C22.0635 175.849 21.6819 176.008 21.2841 176.008C20.8863 176.008 20.5048 175.849 20.2235 175.568C19.9422 175.287 19.7841 174.905 19.7841 174.508C19.7841 174.11 19.9422 173.728 20.2235 173.447C20.5048 173.166 20.8863 173.008 21.2841 173.008C21.6819 173.008 22.0635 173.166 22.3448 173.447C22.6261 173.728 22.7841 174.11 22.7841 174.508Z" fill="#333333"/>
<path d="M41.7521 174.508C41.7521 174.905 41.5941 175.287 41.3128 175.568C41.0315 175.849 40.65 176.008 40.2521 176.008C39.8543 176.008 39.4728 175.849 39.1915 175.568C38.9102 175.287 38.7521 174.905 38.7521 174.508C38.7521 174.11 38.9102 173.728 39.1915 173.447C39.4728 173.166 39.8543 173.008 40.2521 173.008C40.65 173.008 41.0315 173.166 41.3128 173.447C41.5941 173.728 41.7521 174.11 41.7521 174.508Z" fill="#333333"/>
<path d="M60.7202 174.508C60.7202 174.905 60.5621 175.287 60.2808 175.568C59.9995 175.849 59.618 176.008 59.2202 176.008C58.8223 176.008 58.4408 175.849 58.1595 175.568C57.8782 175.287 57.7202 174.905 57.7202 174.508C57.7202 174.11 57.8782 173.728 58.1595 173.447C58.4408 173.166 58.8223 173.008 59.2202 173.008C59.618 173.008 59.9995 173.166 60.2808 173.447C60.5621 173.728 60.7202 174.11 60.7202 174.508Z" fill="#333333"/>
<path d="M79.6882 174.508C79.6882 174.905 79.5301 175.287 79.2488 175.568C78.9675 175.849 78.586 176.008 78.1882 176.008C77.7903 176.008 77.4088 175.849 77.1275 175.568C76.8462 175.287 76.6882 174.905 76.6882 174.508C76.6882 174.11 76.8462 173.728 77.1275 173.447C77.4088 173.166 77.7903 173.008 78.1882 173.008C78.586 173.008 78.9675 173.166 79.2488 173.447C79.5301 173.728 79.6882 174.11 79.6882 174.508Z" fill="#333333"/>
<path d="M98.6551 174.508C98.6626 174.709 98.6294 174.91 98.5575 175.098C98.4857 175.287 98.3766 175.458 98.2367 175.604C98.0969 175.749 97.9292 175.864 97.7438 175.943C97.5583 176.022 97.3587 176.063 97.1572 176.063C96.9556 176.063 96.756 176.023 96.5704 175.944C96.3848 175.865 96.217 175.75 96.077 175.605C95.937 175.46 95.8277 175.288 95.7555 175.1C95.6834 174.912 95.6499 174.711 95.6572 174.51C95.6711 174.121 95.8349 173.754 96.1143 173.484C96.3937 173.214 96.7669 173.064 97.1552 173.063C97.5435 173.063 97.9168 173.213 98.1966 173.483C98.4763 173.752 98.6407 174.119 98.6551 174.508V174.508Z" fill="#333333"/>
<path d="M117.623 174.508C117.631 174.709 117.598 174.91 117.526 175.098C117.454 175.287 117.345 175.458 117.205 175.604C117.065 175.749 116.897 175.864 116.712 175.943C116.526 176.022 116.327 176.063 116.125 176.063C115.924 176.063 115.724 176.023 115.538 175.944C115.353 175.865 115.185 175.75 115.045 175.605C114.905 175.46 114.796 175.288 114.724 175.1C114.651 174.912 114.618 174.711 114.625 174.51C114.639 174.121 114.803 173.754 115.082 173.484C115.362 173.214 115.735 173.064 116.123 173.063C116.512 173.063 116.885 173.213 117.165 173.483C117.444 173.752 117.609 174.119 117.623 174.508Z" fill="#333333"/>
<path d="M136.592 174.508C136.592 174.905 136.434 175.287 136.153 175.568C135.872 175.849 135.49 176.008 135.092 176.008C134.694 176.008 134.313 175.849 134.032 175.568C133.75 175.287 133.592 174.905 133.592 174.508C133.592 174.11 133.75 173.728 134.032 173.447C134.313 173.166 134.694 173.008 135.092 173.008C135.49 173.008 135.872 173.166 136.153 173.447C136.434 173.728 136.592 174.11 136.592 174.508V174.508Z" fill="#333333"/>
<path d="M155.56 174.508C155.56 174.905 155.402 175.287 155.121 175.568C154.84 175.849 154.458 176.008 154.06 176.008C153.662 176.008 153.281 175.849 153 175.568C152.718 175.287 152.56 174.905 152.56 174.508C152.56 174.11 152.718 173.728 153 173.447C153.281 173.166 153.662 173.008 154.06 173.008C154.458 173.008 154.84 173.166 155.121 173.447C155.402 173.728 155.56 174.11 155.56 174.508V174.508Z" fill="#333333"/>
<path d="M174.528 174.508C174.528 174.905 174.37 175.287 174.089 175.568C173.808 175.849 173.426 176.008 173.028 176.008C172.63 176.008 172.249 175.849 171.968 175.568C171.686 175.287 171.528 174.905 171.528 174.508C171.528 174.11 171.686 173.728 171.968 173.447C172.249 173.166 172.63 173.008 173.028 173.008C173.426 173.008 173.808 173.166 174.089 173.447C174.37 173.728 174.528 174.11 174.528 174.508Z" fill="#333333"/>
<path d="M193.495 174.508C193.495 174.905 193.337 175.287 193.056 175.568C192.775 175.849 192.393 176.008 191.995 176.008C191.597 176.008 191.216 175.849 190.935 175.568C190.653 175.287 190.495 174.905 190.495 174.508C190.495 174.11 190.653 173.728 190.935 173.447C191.216 173.166 191.597 173.008 191.995 173.008C192.393 173.008 192.775 173.166 193.056 173.447C193.337 173.728 193.495 174.11 193.495 174.508V174.508Z" fill="#333333"/>
<path d="M212.463 174.508C212.463 174.905 212.305 175.287 212.024 175.568C211.743 175.849 211.361 176.008 210.963 176.008C210.565 176.008 210.184 175.849 209.903 175.568C209.621 175.287 209.463 174.905 209.463 174.508C209.463 174.11 209.621 173.728 209.903 173.447C210.184 173.166 210.565 173.008 210.963 173.008C211.361 173.008 211.743 173.166 212.024 173.447C212.305 173.728 212.463 174.11 212.463 174.508V174.508Z" fill="#333333"/>
<path d="M3.8172 193.732C3.81713 193.929 3.77829 194.124 3.70282 194.306C3.62735 194.488 3.51676 194.653 3.37738 194.792C3.238 194.932 3.07252 195.042 2.89044 195.117C2.70837 195.193 2.51327 195.232 2.31622 195.232C2.11917 195.231 1.92403 195.193 1.742 195.117C1.55998 195.042 1.39466 194.931 1.25537 194.792C1.11608 194.652 1.00558 194.487 0.930237 194.305C0.85489 194.123 0.816158 193.928 0.816223 193.731C0.816223 193.333 0.97425 192.951 1.25555 192.67C1.53686 192.389 1.9184 192.231 2.31622 192.231C2.71405 192.231 3.09559 192.389 3.37689 192.67C3.6582 192.951 3.81622 193.333 3.81622 193.731L3.8172 193.732Z" fill="#333333"/>
<path d="M22.7841 193.732C22.784 194.129 22.6259 194.511 22.3445 194.792C22.0631 195.073 21.6815 195.231 21.2836 195.231C20.8858 195.231 20.5044 195.073 20.2231 194.791C19.9419 194.51 19.784 194.128 19.7841 193.731C19.7841 193.333 19.9422 192.951 20.2235 192.67C20.5048 192.389 20.8863 192.231 21.2841 192.231C21.6819 192.231 22.0635 192.389 22.3448 192.67C22.6261 192.951 22.7841 193.333 22.7841 193.731V193.732Z" fill="#333333"/>
<path d="M41.7521 193.732C41.7521 193.929 41.7132 194.124 41.6378 194.306C41.5623 194.488 41.4517 194.653 41.3123 194.792C41.1729 194.932 41.0075 195.042 40.8254 195.117C40.6433 195.193 40.4482 195.232 40.2512 195.232C40.0541 195.231 39.859 195.193 39.6769 195.117C39.4949 195.042 39.3296 194.931 39.1903 194.792C39.051 194.652 38.9405 194.487 38.8652 194.305C38.7898 194.123 38.7511 193.928 38.7512 193.731C38.7512 193.333 38.9092 192.951 39.1906 192.669C39.472 192.388 39.8537 192.23 40.2516 192.23C40.6496 192.23 41.0313 192.388 41.3127 192.669C41.5941 192.951 41.7521 193.333 41.7521 193.731V193.732Z" fill="#333333"/>
<path d="M60.7202 193.732C60.7201 193.929 60.6812 194.124 60.6057 194.306C60.5302 194.488 60.4197 194.653 60.2803 194.792C60.141 194.932 59.9755 195.042 59.7934 195.117C59.6113 195.193 59.4162 195.232 59.2192 195.232C59.0221 195.231 58.827 195.193 58.645 195.117C58.4629 195.042 58.2976 194.931 58.1583 194.792C58.019 194.652 57.9085 194.487 57.8332 194.305C57.7578 194.123 57.7191 193.928 57.7192 193.731C57.7192 193.333 57.8772 192.951 58.1585 192.67C58.4398 192.389 58.8214 192.231 59.2192 192.231C59.617 192.231 59.9985 192.389 60.2798 192.67C60.5611 192.951 60.7192 193.333 60.7192 193.731L60.7202 193.732Z" fill="#333333"/>
<path d="M79.6882 193.732C79.6882 193.929 79.6493 194.124 79.5738 194.306C79.4983 194.488 79.3877 194.653 79.2484 194.792C79.109 194.932 78.9435 195.042 78.7615 195.117C78.5794 195.193 78.3842 195.232 78.1872 195.232C77.9901 195.231 77.7951 195.193 77.613 195.117C77.431 195.042 77.2656 194.931 77.1263 194.792C76.9871 194.652 76.8766 194.487 76.8012 194.305C76.7259 194.123 76.6871 193.928 76.6872 193.731C76.6872 193.333 76.8452 192.951 77.1265 192.67C77.4078 192.389 77.7894 192.231 78.1872 192.231C78.585 192.231 78.9666 192.389 79.2479 192.67C79.5292 192.951 79.6872 193.333 79.6872 193.731L79.6882 193.732Z" fill="#333333"/>
<path d="M98.6552 193.732C98.6552 194.129 98.4972 194.511 98.2159 194.792C97.9346 195.073 97.553 195.232 97.1552 195.232C96.7574 195.232 96.3758 195.073 96.0945 194.792C95.8132 194.511 95.6552 194.129 95.6552 193.732C95.6552 193.334 95.8132 192.952 96.0945 192.671C96.3758 192.39 96.7574 192.232 97.1552 192.232C97.553 192.232 97.9346 192.39 98.2159 192.671C98.4972 192.952 98.6552 193.334 98.6552 193.732V193.732Z" fill="#333333"/>
<path d="M117.623 193.732C117.623 194.129 117.465 194.511 117.184 194.792C116.903 195.073 116.521 195.232 116.123 195.232C115.725 195.232 115.344 195.073 115.063 194.792C114.781 194.511 114.623 194.129 114.623 193.732C114.623 193.334 114.781 192.952 115.063 192.671C115.344 192.39 115.725 192.232 116.123 192.232C116.521 192.232 116.903 192.39 117.184 192.671C117.465 192.952 117.623 193.334 117.623 193.732V193.732Z" fill="#333333"/>
<path d="M136.592 193.732C136.592 194.129 136.434 194.511 136.152 194.792C135.871 195.074 135.489 195.232 135.091 195.232C134.693 195.231 134.312 195.073 134.03 194.792C133.749 194.51 133.591 194.128 133.591 193.731C133.591 193.333 133.749 192.951 134.031 192.669C134.312 192.388 134.694 192.23 135.092 192.23C135.49 192.23 135.871 192.388 136.153 192.669C136.434 192.951 136.592 193.333 136.592 193.731V193.732Z" fill="#333333"/>
<path d="M155.56 193.732C155.56 194.129 155.402 194.511 155.12 194.792C154.839 195.074 154.457 195.232 154.059 195.232C153.661 195.231 153.28 195.073 152.998 194.792C152.717 194.51 152.559 194.128 152.559 193.731C152.559 193.333 152.717 192.951 152.999 192.67C153.28 192.389 153.661 192.231 154.059 192.231C154.457 192.231 154.839 192.389 155.12 192.67C155.401 192.951 155.559 193.333 155.559 193.731L155.56 193.732Z" fill="#333333"/>
<path d="M174.528 193.732C174.528 194.13 174.37 194.511 174.088 194.793C173.807 195.074 173.425 195.232 173.027 195.232C172.629 195.232 172.247 195.074 171.966 194.792C171.684 194.51 171.526 194.129 171.526 193.731C171.526 193.333 171.684 192.951 171.966 192.669C172.247 192.388 172.629 192.23 173.027 192.23C173.425 192.23 173.806 192.388 174.088 192.669C174.369 192.951 174.527 193.333 174.527 193.731L174.528 193.732Z" fill="#333333"/>
<path d="M193.495 193.732C193.495 193.928 193.456 194.124 193.381 194.305C193.305 194.487 193.195 194.653 193.056 194.792C192.916 194.931 192.751 195.042 192.569 195.117C192.387 195.192 192.192 195.231 191.995 195.231C191.798 195.231 191.603 195.192 191.421 195.117C191.239 195.041 191.074 194.931 190.934 194.791C190.795 194.652 190.685 194.487 190.609 194.305C190.534 194.123 190.495 193.928 190.495 193.731C190.495 193.333 190.653 192.951 190.935 192.67C191.216 192.389 191.597 192.231 191.995 192.231C192.393 192.231 192.775 192.389 193.056 192.67C193.337 192.951 193.495 193.333 193.495 193.731V193.732Z" fill="#333333"/>
<path d="M212.463 193.732C212.463 194.129 212.305 194.511 212.023 194.792C211.742 195.074 211.36 195.232 210.962 195.232C210.564 195.231 210.183 195.073 209.901 194.792C209.62 194.51 209.462 194.128 209.462 193.731C209.462 193.333 209.62 192.951 209.902 192.669C210.183 192.388 210.565 192.23 210.963 192.23C211.361 192.23 211.742 192.388 212.024 192.669C212.305 192.951 212.463 193.333 212.463 193.731V193.732Z" fill="#333333"/>
</svg>
