<svg width="1512" height="241" viewBox="0 0 1512 241" fill="none" xmlns="http://www.w3.org/2000/svg">
<g clip-path="url(#clip0_14_306)">
<path d="M-334.103 135.254L-332.858 136.052L-331.613 136.847L-330.368 137.641L-329.123 138.431L-327.878 139.219L-326.633 140.005L-325.388 140.788L-324.144 141.568L-322.899 142.345L-321.654 143.119L-320.409 143.89L-319.164 144.658L-317.919 145.423L-316.674 146.184L-315.429 146.941L-314.185 147.695L-312.94 148.445L-311.695 149.192L-310.45 149.934L-309.205 150.673L-307.96 151.407L-306.715 152.138L-305.47 152.864L-304.226 153.585L-302.981 154.303L-301.736 155.015L-300.491 155.723L-299.246 156.426L-298.001 157.125L-296.756 157.818L-295.512 158.507L-294.267 159.19L-293.022 159.868L-291.777 160.541L-290.532 161.208L-289.287 161.87L-288.042 162.527L-286.797 163.178L-285.553 163.823L-284.308 164.463L-283.063 165.096L-281.818 165.724L-280.573 166.345L-279.328 166.961L-278.083 167.57L-276.838 168.173L-275.594 168.77L-274.349 169.36L-273.104 169.943L-271.859 170.521L-270.614 171.091L-269.369 171.655L-268.124 172.212L-266.879 172.762L-265.635 173.305L-264.39 173.841L-263.145 174.37L-261.9 174.892L-260.655 175.407L-259.41 175.914L-258.165 176.414L-256.92 176.907L-255.676 177.392L-254.431 177.869L-253.186 178.339L-251.941 178.802L-250.696 179.256L-249.451 179.703L-248.206 180.142L-246.962 180.573L-245.717 180.996L-244.472 181.411L-243.227 181.819L-241.982 182.217L-240.737 182.608L-239.492 182.991L-238.247 183.365L-237.003 183.731L-235.758 184.089L-234.513 184.438L-233.268 184.779L-232.023 185.111L-230.778 185.435L-229.533 185.75L-228.288 186.057L-227.044 186.355L-225.799 186.644L-224.554 186.924L-223.309 187.196L-222.064 187.459L-220.819 187.713L-219.574 187.958L-218.329 188.195L-217.085 188.422L-215.84 188.64L-214.595 188.85L-213.35 189.05L-212.105 189.241L-210.86 189.424L-209.615 189.597L-208.37 189.761L-207.126 189.916L-205.881 190.062L-204.636 190.198L-203.391 190.326L-202.146 190.444L-200.901 190.553L-199.656 190.652L-198.412 190.743L-197.167 190.824L-195.922 190.896L-194.677 190.959L-193.432 191.012L-192.187 191.056L-190.942 191.091L-189.697 191.116L-188.453 191.132L-187.208 191.139L-185.963 191.136L-184.718 191.125L-183.473 191.104L-182.228 191.073L-180.983 191.033L-179.738 190.984L-178.494 190.926L-177.249 190.858L-176.004 190.781L-174.759 190.695L-173.514 190.6L-172.269 190.495L-171.024 190.381L-169.779 190.258L-168.535 190.126L-167.29 189.984L-166.045 189.833L-164.8 189.673L-163.555 189.504L-162.31 189.326L-161.065 189.139L-159.82 188.943L-158.576 188.738L-157.331 188.524L-156.086 188.3L-154.841 188.068L-153.596 187.827L-152.351 187.577L-151.106 187.318L-149.862 187.051L-148.617 186.774L-147.372 186.489L-146.127 186.195L-144.882 185.892L-143.637 185.581L-142.392 185.261L-141.147 184.933L-139.903 184.596L-138.658 184.251L-137.413 183.897L-136.168 183.535L-134.923 183.164L-133.678 182.785L-132.433 182.398L-131.188 182.003L-129.944 181.6L-128.699 181.188L-127.454 180.769L-126.209 180.341L-124.964 179.906L-123.719 179.463L-122.474 179.012L-121.229 178.553L-119.985 178.087L-118.74 177.612L-117.495 177.131L-116.25 176.642L-115.005 176.145L-113.76 175.641L-112.515 175.13L-111.27 174.611L-110.026 174.085L-108.781 173.552L-107.536 173.013L-106.291 172.466L-105.046 171.912L-103.801 171.351L-102.556 170.784L-101.312 170.21L-100.067 169.629L-98.8218 169.042L-97.5769 168.448L-96.332 167.848L-95.0872 167.242L-93.8423 166.629L-92.5974 166.01L-91.3526 165.386L-90.1077 164.755L-88.8628 164.118L-87.6179 163.476L-86.3731 162.827L-85.1282 162.173L-83.8833 161.514L-82.6384 160.849L-81.3936 160.178L-80.1487 159.503L-78.9038 158.822L-77.659 158.136L-76.4141 157.444L-75.1692 156.748L-73.9243 156.047L-72.6795 155.341L-71.4346 154.631L-70.1897 153.916L-68.9449 153.196L-67.7 152.472L-66.4551 151.744L-65.2102 151.011L-63.9654 150.275L-62.7205 149.534L-61.4756 148.789L-60.2308 148.041L-58.9859 147.289L-57.741 146.533L-56.4961 145.773L-55.2513 145.01L-54.0064 144.244L-52.7615 143.474L-51.5167 142.702L-50.2718 141.926L-49.0269 141.147L-47.782 140.366L-46.5372 139.581L-45.2923 138.794L-44.0474 138.005L-42.8026 137.213L-41.5577 136.418L-40.3128 135.622L-39.0679 134.823L-37.8231 134.022L-36.5782 133.219L-35.3333 132.415L-34.0885 131.609L-32.8436 130.801L-31.5987 129.991L-30.3538 129.18L-29.109 128.368L-27.8641 127.555L-26.6192 126.74L-25.3743 125.925L-24.1295 125.108L-22.8846 124.291L-21.6397 123.473L-20.3949 122.655L-19.15 121.836L-17.9051 121.016L-16.6602 120.197L-15.4154 119.377L-14.1705 118.557L-12.9256 117.738L-11.6808 116.918L-10.4359 116.099L-9.19102 115.28L-7.94614 114.462L-6.70127 113.644L-5.4564 112.827L-4.21153 112.01L-2.96666 111.195L-1.72179 110.38L-0.476914 109.567L0.767958 108.755L2.01283 107.944L3.2577 107.135L4.50257 106.327L5.74744 105.521L6.99232 104.716L8.23719 103.914L9.48206 103.113L10.7269 102.315L11.9718 101.518L13.2167 100.724L14.4615 99.9321L15.7064 99.1427L16.9513 98.3559L18.1962 97.5718L19.441 96.7905L20.6859 96.012L21.9308 95.2364L23.1756 94.464L24.4205 93.6947L25.6654 92.9287L26.9103 92.166L28.1551 91.4068L29.4 90.6512L30.6449 89.8992L31.8898 89.151L33.1346 88.4066L34.3795 87.6662L35.6244 86.9299L36.8692 86.1976L38.1141 85.4697L39.359 84.746L40.6039 84.0268L41.8487 83.3121L43.0936 82.602L44.3385 81.8966L45.5833 81.1959L46.8282 80.5002L48.0731 79.8095L49.318 79.1237L50.5628 78.4432L51.8077 77.7679L53.0526 77.0979L54.2974 76.4333L55.5423 75.7742L56.7872 75.1207L58.0321 74.4729L59.2769 73.8308L60.5218 73.1946L61.7667 72.5642L63.0115 71.9399L64.2564 71.3216L65.5013 70.7095L66.7462 70.1037L67.991 69.5041L69.2359 68.9109L70.4808 68.3242L71.7256 67.7441L72.9705 67.1706L74.2154 66.6037L75.4603 66.0436L76.7051 65.4904L77.95 64.9441L79.1949 64.4047L80.4397 63.8724L81.6846 63.3473L82.9295 62.8293L84.1744 62.3185L85.4192 61.8151L86.6641 61.3191L87.909 60.8305L89.1539 60.3494L90.3987 59.8759L91.6436 59.41L92.8885 58.9519L94.1333 58.5015L95.3782 58.0588L96.6231 57.6241L97.868 57.1973L99.1128 56.7785L100.358 56.3677L101.603 55.965L102.847 55.5704L104.092 55.184L105.337 54.8059L106.582 54.436L107.827 54.0745L109.072 53.7214L110.317 53.3767L111.562 53.0405L112.806 52.7128L114.051 52.3936L115.296 52.0831L116.541 51.7812L117.786 51.488L119.031 51.2034L120.276 50.9277L121.521 50.6607L122.765 50.4026L124.01 50.1533L125.255 49.9129L126.5 49.6815L127.745 49.4589L128.99 49.2454L130.235 49.0409L131.479 48.8454L132.724 48.6589L133.969 48.4816L135.214 48.3133L136.459 48.1542L137.704 48.0042L138.949 47.8635L140.194 47.7318L141.438 47.6094L142.683 47.4962L143.928 47.3923L145.173 47.2976L146.418 47.2121L147.663 47.1359L148.908 47.069L150.153 47.0114L151.397 46.9631L152.642 46.9241L153.887 46.8943L155.132 46.874L156.377 46.8628L157.622 46.8611L158.867 46.8686L160.112 46.8855L161.356 46.9116L162.601 46.9471L163.846 46.9919L165.091 47.046L166.336 47.1094L167.581 47.182L168.826 47.264L170.071 47.3551L171.315 47.4556L172.56 47.5653L173.805 47.6842L175.05 47.8123L176.295 47.9496L177.54 48.0961L178.785 48.2517L180.029 48.4165L181.274 48.5904L182.519 48.7734L183.764 48.9654L185.009 49.1665L186.254 49.3766L187.499 49.5957L188.744 49.8238L189.988 50.0608L191.233 50.3067L192.478 50.5615L193.723 50.8251L194.968 51.0975L196.213 51.3787L197.458 51.6686L198.703 51.9672L199.947 52.2745L201.192 52.5903L202.437 52.9148L203.682 53.2478L204.927 53.5893L206.172 53.9392L207.417 54.2975L208.662 54.6642L209.906 55.0391L211.151 55.4224L212.396 55.8139L213.641 56.2135L214.886 56.6212L216.131 57.037L217.376 57.4608L218.621 57.8925L219.865 58.3321L221.11 58.7796L222.355 59.2348L223.6 59.6977L224.845 60.1683L226.09 60.6466L227.335 61.1323L228.579 61.6255L229.824 62.1261L231.069 62.6341L232.314 63.1493L233.559 63.6718L234.804 64.2014L236.049 64.738L237.294 65.2817L238.538 65.8324L239.783 66.3898L241.028 66.9541L242.273 67.5251L243.518 68.1028L244.763 68.687L246.008 69.2777L247.253 69.8748L248.497 70.4783L249.742 71.088L250.987 71.7039L252.232 72.326L253.477 72.9541L254.722 73.5881L255.967 74.2279L257.212 74.8736L258.456 75.5249L259.701 76.1819L260.946 76.8444L262.191 77.5123L263.436 78.1857L264.681 78.8642L265.926 79.548L267.171 80.2368L268.415 80.9307L269.66 81.6294L270.905 82.333L272.15 83.0413L273.395 83.7543L274.64 84.4718L275.885 85.1938L277.129 85.9202L278.374 86.6508L279.619 87.3856L280.864 88.1245L282.109 88.8674L283.354 89.6141L284.599 90.3647L285.844 91.1189L287.088 91.8768L288.333 92.6381L289.578 93.4029L290.823 94.1709L292.068 94.9422L293.313 95.7165L294.558 96.4939L295.803 97.2742L297.047 98.0573L298.292 98.8431L299.537 99.6315L300.782 100.422L302.027 101.216L303.272 102.011L304.517 102.809L305.762 103.609L307.006 104.411L308.251 105.215L309.496 106.02L310.741 106.827L311.986 107.636L313.231 108.446L314.476 109.258L315.721 110.071L316.965 110.885L318.21 111.7L319.455 112.516L320.7 113.333L321.945 114.15L323.19 114.969L324.435 115.787L325.679 116.606L326.924 117.426L328.169 118.245L329.414 119.065L330.659 119.885L331.904 120.705L333.149 121.524L334.394 122.343L335.638 123.162L336.883 123.98L338.128 124.797L339.373 125.614L340.618 126.43L341.863 127.245L343.108 128.059L344.353 128.871L345.597 129.683L346.842 130.493L348.087 131.301L349.332 132.108L350.577 132.914L351.822 133.717L353.067 134.519L354.312 135.318L355.556 136.116L356.801 136.911L358.046 137.704L359.291 138.494L360.536 139.282L361.781 140.068L363.026 140.85L364.271 141.63L365.515 142.407L366.76 143.181L368.005 143.952L369.25 144.719L370.495 145.483L371.74 146.244L372.985 147.001L374.229 147.755L375.474 148.505L376.719 149.251L377.964 149.993L379.209 150.732L380.454 151.466L381.699 152.196L382.944 152.921L384.188 153.643L385.433 154.359L386.678 155.072L387.923 155.779L389.168 156.482L390.413 157.18L391.658 157.873L392.903 158.561L394.147 159.244L395.392 159.922L396.637 160.594L397.882 161.261L399.127 161.923L400.372 162.579L401.617 163.23L402.862 163.874L404.106 164.513L405.351 165.146L406.596 165.773L407.841 166.394L409.086 167.009L410.331 167.618L411.576 168.221L412.821 168.817L414.065 169.406L415.31 169.99L416.555 170.566L417.8 171.136L419.045 171.699L420.29 172.256L421.535 172.805L422.779 173.348L424.024 173.883L425.269 174.412L426.514 174.933L427.759 175.447L429.004 175.954L430.249 176.453L431.494 176.945L432.738 177.43L433.983 177.907L435.228 178.376L436.473 178.838L437.718 179.292L438.963 179.738L440.208 180.177L441.453 180.607L442.697 181.03L443.942 181.444L445.187 181.851L446.432 182.249L447.677 182.639L448.922 183.021L450.167 183.395L451.412 183.76L452.656 184.117L453.901 184.466L455.146 184.806L456.391 185.137L457.636 185.46L458.881 185.775L460.126 186.081L461.37 186.378L462.615 186.667L463.86 186.946L465.105 187.217L466.35 187.48L467.595 187.733L468.84 187.977L470.085 188.213L471.329 188.44L472.574 188.657L473.819 188.866L475.064 189.066L476.309 189.256L477.554 189.438L478.799 189.61L480.044 189.774L481.288 189.928L482.533 190.073L483.778 190.209L485.023 190.335L486.268 190.453L487.513 190.561L488.758 190.66L490.003 190.75L491.247 190.83L492.492 190.901L493.737 190.963L494.982 191.016L496.227 191.059L497.472 191.093L498.717 191.118L499.962 191.133L501.206 191.139L502.451 191.136L503.696 191.123L504.941 191.101L506.186 191.07L507.431 191.03L508.676 190.98L509.92 190.921L511.165 190.852L512.41 190.775L513.655 190.688L514.9 190.592L516.145 190.486L517.39 190.372L518.635 190.248L519.879 190.115L521.124 189.972L522.369 189.821L523.614 189.66L524.859 189.491L526.104 189.312L527.349 189.124L528.594 188.927L529.838 188.721L531.083 188.506L532.328 188.282L533.573 188.049L534.818 187.807L536.063 187.557L537.308 187.297L538.553 187.029L539.797 186.752L541.042 186.466L542.287 186.171L543.532 185.868L544.777 185.556L546.022 185.235L547.267 184.906L548.512 184.569L549.756 184.223L551.001 183.868L552.246 183.505L553.491 183.134L554.736 182.755L555.981 182.367L557.226 181.971L558.47 181.567L559.715 181.155L560.96 180.735L562.205 180.307L563.45 179.871L564.695 179.427L565.94 178.976L567.185 178.516L568.429 178.049L569.674 177.574L570.919 177.092L572.164 176.602L573.409 176.105L574.654 175.6L575.899 175.089L577.144 174.569L578.388 174.043L579.633 173.51L580.878 172.969L582.123 172.422L583.368 171.867L584.613 171.306L585.858 170.738L587.103 170.164L588.347 169.583L589.592 168.995L590.837 168.401L592.082 167.8L593.327 167.193L594.572 166.58L595.817 165.961L597.062 165.336L598.306 164.704L599.551 164.067L600.796 163.424L602.041 162.775L603.286 162.121L604.531 161.461L605.776 160.796L607.02 160.125L608.265 159.449L609.51 158.767L610.755 158.081L612 157.389L613.245 156.693L614.49 155.991L615.735 155.285L616.979 154.574L618.224 153.859L619.469 153.139L620.714 152.414L621.959 151.686L623.204 150.953L624.449 150.216L625.694 149.475L626.938 148.73L628.183 147.981L629.428 147.229L630.673 146.472L631.918 145.713L633.163 144.949L634.408 144.183L635.653 143.413L636.897 142.64L638.142 141.864L639.387 141.085L640.632 140.303L641.877 139.519L643.122 138.731L644.367 137.942L645.612 137.15L646.856 136.355L648.101 135.558L649.346 134.759L650.591 133.958L651.836 133.155L653.081 132.351L654.326 131.544L655.57 130.736L656.815 129.927L658.06 129.116L659.305 128.303L660.55 127.49L661.795 126.675L663.04 125.86L664.285 125.043L665.529 124.226L666.774 123.408L668.019 122.589L669.264 121.77L670.509 120.951L671.754 120.132L672.999 119.312L674.244 118.492L675.488 117.672L676.733 116.853L677.978 116.034L679.223 115.215L680.468 114.396L681.713 113.579L682.958 112.762L684.203 111.945L685.447 111.13L686.692 110.316L687.937 109.502L689.182 108.69L690.427 107.88L691.672 107.07L692.917 106.263L694.162 105.457L695.406 104.652L696.651 103.85L697.896 103.049L699.141 102.251L700.386 101.455L701.631 100.661L702.876 99.8691L704.12 99.08L705.365 98.2934L706.61 97.5094L707.855 96.7283L709.1 95.9501L710.345 95.1747L711.59 94.4025L712.835 93.6335L714.079 92.8677L715.324 92.1054L716.569 91.3465L717.814 90.5911L719.059 89.8394L720.304 89.0915L721.549 88.3475L722.794 87.6074L724.038 86.8714L725.283 86.1395L726.528 85.4118L727.773 84.6885L729.018 83.9697L730.263 83.2553L731.508 82.5456L732.753 81.8406L733.997 81.1403L735.242 80.445L736.487 79.7546L737.732 79.0694L738.977 78.3892L740.222 77.7143L741.467 77.0448L742.712 76.3806L743.956 75.7219L745.201 75.0689L746.446 74.4215L747.691 73.7799L748.936 73.1441L750.181 72.5143L751.426 71.8904L752.67 71.2726L753.915 70.661L755.16 70.0557L756.405 69.4566L757.65 68.864L758.895 68.2778L760.14 67.6981L761.385 67.1251L762.629 66.5588L763.874 65.9993L765.119 65.4466L766.364 64.9008L767.609 64.362L768.854 63.8303L770.099 63.3057L771.344 62.7883L772.588 62.2781L773.833 61.7753L775.078 61.2798L776.323 60.7919L777.568 60.3114L778.813 59.8385L780.058 59.3733L781.303 58.9157L782.547 58.4659L783.792 58.0239L785.037 57.5898L786.282 57.1636L787.527 56.7454L788.772 56.3353L790.017 55.9332L791.262 55.5393L792.506 55.1536L793.751 54.7761L794.996 54.4069L796.241 54.0461L797.486 53.6936L798.731 53.3496L799.976 53.014L801.22 52.687L802.465 52.3686L803.71 52.0587L804.955 51.7575L806.2 51.4649L807.445 51.1811L808.69 50.9061L809.935 50.6398L811.179 50.3824L812.424 50.1338L813.669 49.8941L814.914 49.6634L816.159 49.4416L817.404 49.2288L818.649 49.0249L819.894 48.8302L821.138 48.6445L822.383 48.4678L823.628 48.3003L824.873 48.1419L826.118 47.9927L827.363 47.8526L828.608 47.7217L829.853 47.6001L831.097 47.4876L832.342 47.3844L833.587 47.2904L834.832 47.2057L836.077 47.1302L837.322 47.0641L838.567 47.0072L839.812 46.9596L841.056 46.9213L842.301 46.8924L843.546 46.8727L844.791 46.8624L846.036 46.8613L847.281 46.8696L848.526 46.8872L849.77 46.9141L851.015 46.9504L852.26 46.9959L853.505 47.0507L854.75 47.1148L855.995 47.1882L857.24 47.2709L858.485 47.3628L859.729 47.464L860.974 47.5744L862.219 47.6941L863.464 47.8229L864.709 47.9609L865.954 48.1082L867.199 48.2645L868.444 48.43L869.688 48.6046L870.933 48.7884L872.178 48.9811L873.423 49.1829L874.668 49.3938L875.913 49.6136L877.158 49.8424L878.403 50.0801L879.647 50.3267L880.892 50.5821L882.137 50.8465L883.382 51.1196L884.627 51.4014L885.872 51.692L887.117 51.9913L888.362 52.2993L889.606 52.6159L890.851 52.941L892.096 53.2747L893.341 53.6168L894.586 53.9674L895.831 54.3264L897.076 54.6938L898.32 55.0694L899.565 55.4533L900.81 55.8454L902.055 56.2457L903.3 56.654L904.545 57.0705L905.79 57.4949L907.035 57.9272L908.279 58.3675L909.524 58.8156L910.769 59.2714L912.014 59.735L913.259 60.2062L914.504 60.685L915.749 61.1713L916.994 61.6651L918.238 62.1663L919.483 62.6749L920.728 63.1907L921.973 63.7137L923.218 64.2439L924.463 64.7811L925.708 65.3254L926.953 65.8765L928.197 66.4345L929.442 66.9993L930.687 67.5709L931.932 68.1491L933.177 68.7338L934.422 69.325L935.667 69.9227L936.912 70.5266L938.156 71.1369L939.401 71.7533L940.646 72.3758L941.891 73.0044L943.136 73.6389L944.381 74.2792L945.626 74.9253L946.87 75.5771L948.115 76.2345L949.36 76.8974L950.605 77.5658L951.85 78.2395L953.095 78.9185L954.34 79.6027L955.585 80.292L956.829 80.9862L958.074 81.6853L959.319 82.3893L960.564 83.098L961.809 83.8113L963.054 84.5292L964.299 85.2516L965.544 85.9782L966.788 86.7092L968.033 87.4443L969.278 88.1835L970.523 88.9267L971.768 89.6738L973.013 90.4246L974.258 91.1791L975.503 91.9373L976.747 92.6989L977.992 93.4639L979.237 94.2323L980.482 95.0038L981.727 95.7784L982.972 96.556L984.217 97.3365L985.462 98.1198L986.706 98.9058L987.951 99.6944L989.196 100.486L990.441 101.279L991.686 102.075L992.931 102.873L994.176 103.673L995.42 104.475L996.665 105.279L997.91 106.084L999.155 106.892L1000.4 107.701L1001.64 108.511L1002.89 109.323L1004.13 110.136L1005.38 110.95L1006.62 111.765L1007.87 112.581L1009.11 113.398L1010.36 114.216L1011.6 115.034L1012.85 115.853L1014.09 116.672L1015.34 117.491L1016.58 118.311L1017.83 119.131L1019.07 119.95L1020.32 120.77L1021.56 121.589L1022.81 122.408L1024.05 123.227L1025.3 124.045L1026.54 124.862L1027.79 125.679L1029.03 126.495L1030.28 127.31L1031.52 128.124L1032.77 128.936L1034.01 129.747L1035.26 130.557L1036.5 131.366L1037.75 132.173L1038.99 132.978L1040.24 133.781L1041.48 134.582L1042.73 135.382L1043.97 136.179L1045.22 136.974L1046.46 137.767L1047.71 138.557L1048.95 139.345L1050.19 140.13L1051.44 140.912L1052.68 141.692L1053.93 142.469L1055.17 143.242L1056.42 144.013L1057.66 144.78L1058.91 145.544L1060.15 146.305L1061.4 147.062L1062.64 147.815L1063.89 148.565L1065.13 149.31L1066.38 150.052L1067.62 150.79L1068.87 151.524L1070.11 152.254L1071.36 152.979L1072.6 153.7L1073.85 154.416L1075.09 155.128L1076.34 155.835L1077.58 156.538L1078.83 157.236L1080.07 157.928L1081.32 158.616L1082.56 159.298L1083.81 159.976L1085.05 160.648L1086.3 161.314L1087.54 161.976L1088.79 162.631L1090.03 163.281L1091.28 163.925L1092.52 164.564L1093.77 165.197L1095.01 165.823L1096.26 166.444L1097.5 167.058L1098.74 167.666L1099.99 168.268L1101.23 168.864L1102.48 169.453L1103.72 170.036L1104.97 170.612L1106.21 171.181L1107.46 171.744L1108.7 172.3L1109.95 172.849L1111.19 173.391L1112.44 173.926L1113.68 174.454L1114.93 174.974L1116.17 175.488L1117.42 175.994L1118.66 176.493L1119.91 176.984L1121.15 177.468L1122.4 177.945L1123.64 178.413L1124.89 178.875L1126.13 179.328L1127.38 179.774L1128.62 180.211L1129.87 180.641L1131.11 181.063L1132.36 181.477L1133.6 181.883L1134.85 182.28L1136.09 182.67L1137.34 183.051L1138.58 183.424L1139.83 183.789L1141.07 184.145L1142.32 184.493L1143.56 184.832L1144.81 185.163L1146.05 185.486L1147.29 185.8L1148.54 186.105L1149.78 186.401L1151.03 186.689L1152.27 186.968L1153.52 187.239L1154.76 187.5L1156.01 187.753L1157.25 187.997L1158.5 188.231L1159.74 188.457L1160.99 188.674L1162.23 188.882L1163.48 189.081L1164.72 189.271L1165.97 189.452L1167.21 189.624L1168.46 189.786L1169.7 189.94L1170.95 190.084L1172.19 190.219L1173.44 190.345L1174.68 190.462L1175.93 190.569L1177.17 190.667L1178.42 190.756L1179.66 190.836L1180.91 190.906L1182.15 190.968L1183.4 191.02L1184.64 191.062L1185.89 191.095L1187.13 191.119L1188.38 191.134L1189.62 191.139L1190.87 191.135L1192.11 191.122L1193.36 191.099L1194.6 191.067L1195.84 191.026L1197.09 190.976L1198.33 190.916L1199.58 190.847L1200.82 190.768L1202.07 190.681L1203.31 190.584L1204.56 190.477L1205.8 190.362L1207.05 190.237L1208.29 190.104L1209.54 189.961L1210.78 189.808L1212.03 189.647L1213.27 189.477L1214.52 189.297L1215.76 189.109L1217.01 188.911L1218.25 188.704L1219.5 188.489L1220.74 188.264L1221.99 188.03L1223.23 187.788L1224.48 187.536L1225.72 187.276L1226.97 187.007L1228.21 186.729L1229.46 186.443L1230.7 186.147L1231.95 185.843L1233.19 185.531L1234.44 185.21L1235.68 184.88L1236.93 184.542L1238.17 184.195L1239.42 183.84L1240.66 183.476L1241.91 183.104L1243.15 182.724L1244.39 182.336L1245.64 181.939L1246.88 181.535L1248.13 181.122L1249.37 180.701L1250.62 180.273L1251.86 179.836L1253.11 179.391L1254.35 178.939L1255.6 178.479L1256.84 178.011L1258.09 177.536L1259.33 177.053L1260.58 176.563L1261.82 176.065L1263.07 175.56L1264.31 175.047L1265.56 174.528L1266.8 174.001L1268.05 173.467L1269.29 172.926L1270.54 172.378L1271.78 171.823L1273.03 171.261L1274.27 170.693L1275.52 170.118L1276.76 169.536L1278.01 168.948L1279.25 168.353L1280.5 167.752L1281.74 167.145L1282.99 166.531L1284.23 165.911L1285.48 165.285L1286.72 164.654L1287.97 164.016L1289.21 163.373L1290.46 162.723L1291.7 162.069L1292.94 161.408L1294.19 160.742L1295.43 160.071L1296.68 159.394L1297.92 158.713L1299.17 158.026L1300.41 157.334L1301.66 156.637L1302.9 155.935L1304.15 155.229L1305.39 154.517L1306.64 153.802L1307.88 153.081L1309.13 152.357L1310.37 151.628L1311.62 150.894L1312.86 150.157L1314.11 149.416L1315.35 148.67L1316.6 147.921L1317.84 147.168L1319.09 146.412L1320.33 145.652L1321.58 144.888L1322.82 144.122L1324.07 143.352L1325.31 142.578L1326.56 141.802L1327.8 141.023L1329.05 140.241L1330.29 139.456L1331.54 138.669L1332.78 137.879L1334.03 137.086L1335.27 136.292L1336.52 135.495L1337.76 134.695L1339.01 133.894L1340.25 133.091L1341.49 132.286L1342.74 131.48L1343.98 130.672L1345.23 129.862L1346.47 129.051L1347.72 128.238L1348.96 127.425L1350.21 126.61L1351.45 125.795L1352.7 124.978L1353.94 124.161L1355.19 123.343L1356.43 122.524L1357.68 121.705L1358.92 120.886L1360.17 120.066L1361.41 119.247L1362.66 118.427L1363.9 117.607L1365.15 116.788L1366.39 115.968L1367.64 115.149L1368.88 114.331L1370.13 113.513L1371.37 112.696L1372.62 111.88L1373.86 111.065L1375.11 110.251L1376.35 109.438L1377.6 108.626L1378.84 107.815L1380.09 107.006L1381.33 106.198L1382.58 105.393L1383.82 104.588L1385.07 103.786L1386.31 102.986L1387.56 102.187L1388.8 101.391L1390.04 100.598L1391.29 99.8061L1392.53 99.0172L1393.78 98.2308L1395.02 97.4471L1396.27 96.6662L1397.51 95.8881L1398.76 95.1131L1400 94.3411L1401.25 93.5724L1402.49 92.8069L1403.74 92.0447L1404.98 91.2861L1406.23 90.5311L1407.47 89.7797L1408.72 89.0321L1409.96 88.2884L1411.21 87.5486L1412.45 86.8129L1413.7 86.0813L1414.94 85.354L1416.19 84.6311L1417.43 83.9126L1418.68 83.1986L1419.92 82.4892L1421.17 81.7846L1422.41 81.0847L1423.66 80.3898L1424.9 79.6998L1426.15 79.015L1427.39 78.3352L1428.64 77.6608L1429.88 76.9916L1431.13 76.3279L1432.37 75.6697L1433.62 75.0171L1434.86 74.3702L1436.11 73.729L1437.35 73.0937L1438.59 72.4643L1439.84 71.8409L1441.08 71.2237L1442.33 70.6126L1443.57 70.0077L1444.82 69.4091L1446.06 68.817L1447.31 68.2313L1448.55 67.6522L1449.8 67.0798L1451.04 66.514L1452.29 65.955L1453.53 65.4029L1454.78 64.8576L1456.02 64.3194L1457.27 63.7882L1458.51 63.2642L1459.76 62.7474L1461 62.2378L1462.25 61.7356L1463.49 61.2407L1464.74 60.7533L1465.98 60.2734L1467.23 59.8011L1468.47 59.3365L1469.72 58.8795L1470.96 58.4304L1472.21 57.989L1473.45 57.5555L1474.7 57.13L1475.94 56.7125L1477.19 56.3029L1478.43 55.9015L1479.68 55.5083L1480.92 55.1232L1482.17 54.7463L1483.41 54.3779L1484.66 54.0177L1485.9 53.6659L1487.14 53.3225L1488.39 52.9877L1489.63 52.6613L1490.88 52.3435L1492.12 52.0344L1493.37 51.7338L1494.61 51.442L1495.86 51.1589L1497.1 50.8845L1498.35 50.619L1499.59 50.3623L1500.84 50.1144L1502.08 49.8754L1503.33 49.6454L1504.57 49.4243L1505.82 49.2122L1507.06 49.0091L1508.31 48.815L1509.55 48.6301L1510.8 48.4541L1512.04 48.2874L1513.29 48.1297L1514.53 47.9812L1515.78 47.8419L1517.02 47.7117L1518.27 47.5908L1519.51 47.479L1520.76 47.3765L1522 47.2833L1523.25 47.1993L1524.49 47.1246L1525.74 47.0592L1526.98 47.0031L1528.23 46.9562L1529.47 46.9187L1530.72 46.8905L1531.96 46.8716L1533.21 46.862L1534.45 46.8617L1535.69 46.8707L1536.94 46.889L1538.18 46.9167L1539.43 46.9536L1540.67 46.9999L1541.92 47.0555L1543.16 47.1203L1544.41 47.1945L1545.65 47.2779L1546.9 47.3705L1548.14 47.4725L1549.39 47.5836L1550.63 47.704L1551.88 47.8335L1553.12 47.9724L1554.37 48.1203L1555.61 48.2774L1556.86 48.4436" stroke="#01C4C2" stroke-width="67" stroke-miterlimit="10" stroke-linecap="round" stroke-linejoin="round"/>
</g>
<defs>
<clipPath id="clip0_14_306">
<rect width="1512" height="241" fill="white"/>
</clipPath>
</defs>
</svg>
