<svg width="1512" height="167" viewBox="0 0 1512 167" fill="none" xmlns="http://www.w3.org/2000/svg">
<path d="M-334.103 99.4319L-332.858 100.23L-331.613 101.025L-330.368 101.818L-329.123 102.609L-327.878 103.397L-326.633 104.183L-325.388 104.965L-324.144 105.745L-322.899 106.523L-321.654 107.297L-320.409 108.068L-319.164 108.836L-317.919 109.6L-316.674 110.361L-315.429 111.119L-314.185 111.873L-312.94 112.623L-311.695 113.369L-310.45 114.112L-309.205 114.85L-307.96 115.585L-306.715 116.315L-305.47 117.041L-304.226 117.763L-302.981 118.48L-301.736 119.193L-300.491 119.901L-299.246 120.604L-298.001 121.302L-296.756 121.996L-295.512 122.684L-294.267 123.367L-293.022 124.046L-291.777 124.718L-290.532 125.386L-289.287 126.048L-288.042 126.705L-286.797 127.355L-285.553 128.001L-284.308 128.64L-283.063 129.274L-281.818 129.901L-280.573 130.523L-279.328 131.138L-278.083 131.747L-276.838 132.35L-275.594 132.947L-274.349 133.537L-273.104 134.121L-271.859 134.698L-270.614 135.268L-269.369 135.832L-268.124 136.389L-266.879 136.939L-265.635 137.482L-264.39 138.018L-263.145 138.547L-261.9 139.069L-260.655 139.584L-259.41 140.091L-258.165 140.591L-256.92 141.084L-255.676 141.569L-254.431 142.047L-253.186 142.517L-251.941 142.979L-250.696 143.434L-249.451 143.881L-248.206 144.32L-246.962 144.751L-245.717 145.174L-244.472 145.589L-243.227 145.996L-241.982 146.395L-240.737 146.786L-239.492 147.168L-238.247 147.543L-237.003 147.909L-235.758 148.266L-234.513 148.616L-233.268 148.956L-232.023 149.289L-230.778 149.613L-229.533 149.928L-228.288 150.234L-227.044 150.532L-225.799 150.821L-224.554 151.102L-223.309 151.374L-222.064 151.637L-220.819 151.891L-219.574 152.136L-218.329 152.372L-217.085 152.599L-215.84 152.818L-214.595 153.027L-213.35 153.228L-212.105 153.419L-210.86 153.601L-209.615 153.774L-208.37 153.938L-207.126 154.093L-205.881 154.239L-204.636 154.376L-203.391 154.503L-202.146 154.621L-200.901 154.73L-199.656 154.83L-198.412 154.92L-197.167 155.001L-195.922 155.073L-194.677 155.136L-193.432 155.189L-192.187 155.233L-190.942 155.268L-189.697 155.294L-188.453 155.31L-187.208 155.316L-185.963 155.314L-184.718 155.302L-183.473 155.281L-182.228 155.251L-180.983 155.211L-179.738 155.162L-178.494 155.103L-177.249 155.036L-176.004 154.959L-174.759 154.873L-173.514 154.777L-172.269 154.672L-171.024 154.559L-169.779 154.435L-168.535 154.303L-167.29 154.161L-166.045 154.011L-164.8 153.851L-163.555 153.682L-162.31 153.504L-161.065 153.317L-159.82 153.121L-158.576 152.915L-157.331 152.701L-156.086 152.478L-154.841 152.246L-153.596 152.005L-152.351 151.755L-151.106 151.496L-149.862 151.228L-148.617 150.952L-147.372 150.666L-146.127 150.372L-144.882 150.07L-143.637 149.759L-142.392 149.439L-141.147 149.11L-139.903 148.774L-138.658 148.428L-137.413 148.074L-136.168 147.712L-134.923 147.342L-133.678 146.963L-132.433 146.576L-131.188 146.181L-129.944 145.777L-128.699 145.366L-127.454 144.946L-126.209 144.519L-124.964 144.084L-123.719 143.64L-122.474 143.189L-121.229 142.73L-119.985 142.264L-118.74 141.79L-117.495 141.308L-116.25 140.819L-115.005 140.322L-113.76 139.818L-112.515 139.307L-111.27 138.788L-110.026 138.263L-108.781 137.73L-107.536 137.19L-106.291 136.643L-105.046 136.089L-103.801 135.529L-102.556 134.961L-101.312 134.387L-100.067 133.807L-98.8218 133.219L-97.5769 132.626L-96.332 132.026L-95.0872 131.419L-93.8423 130.807L-92.5974 130.188L-91.3526 129.563L-90.1077 128.932L-88.8628 128.296L-87.6179 127.653L-86.3731 127.005L-85.1282 126.351L-83.8833 125.691L-82.6384 125.026L-81.3936 124.356L-80.1487 123.68L-78.9038 122.999L-77.659 122.313L-76.4141 121.622L-75.1692 120.926L-73.9243 120.225L-72.6795 119.519L-71.4346 118.808L-70.1897 118.093L-68.9449 117.374L-67.7 116.65L-66.4551 115.921L-65.2102 115.189L-63.9654 114.452L-62.7205 113.712L-61.4756 112.967L-60.2308 112.218L-58.9859 111.466L-57.741 110.71L-56.4961 109.951L-55.2513 109.188L-54.0064 108.421L-52.7615 107.652L-51.5167 106.879L-50.2718 106.103L-49.0269 105.325L-47.782 104.543L-46.5372 103.759L-45.2923 102.972L-44.0474 102.182L-42.8026 101.39L-41.5577 100.596L-40.3128 99.7992L-39.0679 99.0005L-37.8231 98.1997L-36.5782 97.3969L-35.3333 96.5923L-34.0885 95.786L-32.8436 94.9781L-31.5987 94.1686L-30.3538 93.3577L-29.109 92.5455L-27.8641 91.7321L-26.6192 90.9176L-25.3743 90.1021L-24.1295 89.2857L-22.8846 88.4685L-21.6397 87.6506L-20.3949 86.8321L-19.15 86.0132L-17.9051 85.1939L-16.6602 84.3744L-15.4154 83.5546L-14.1705 82.7349L-12.9256 81.9152L-11.6808 81.0956L-10.4359 80.2764L-9.19102 79.4575L-7.94614 78.639L-6.70127 77.8212L-5.4564 77.0041L-4.21153 76.1878L-2.96666 75.3723L-1.72179 74.5579L-0.476914 73.7446L0.767958 72.9324L2.01283 72.1217L3.2577 71.3123L4.50257 70.5045L5.74744 69.6983L6.99232 68.8939L8.23719 68.0913L9.48206 67.2906L10.7269 66.4921L11.9718 65.6956L13.2167 64.9014L14.4615 64.1096L15.7064 63.3202L16.9513 62.5334L18.1962 61.7493L19.441 60.968L20.6859 60.1894L21.9308 59.4139L23.1756 58.6414L24.4205 57.8722L25.6654 57.1061L26.9103 56.3435L28.1551 55.5843L29.4 54.8287L30.6449 54.0767L31.8898 53.3285L33.1346 52.5841L34.3795 51.8437L35.6244 51.1074L36.8692 50.3751L38.1141 49.6471L39.359 48.9235L40.6039 48.2043L41.8487 47.4896L43.0936 46.7795L44.3385 46.074L45.5833 45.3734L46.8282 44.6777L48.0731 43.987L49.318 43.3012L50.5628 42.6207L51.8077 41.9454L53.0526 41.2754L54.2974 40.6108L55.5423 39.9517L56.7872 39.2982L58.0321 38.6504L59.2769 38.0083L60.5218 37.3721L61.7667 36.7417L63.0115 36.1174L64.2564 35.4991L65.5013 34.887L66.7462 34.2812L67.991 33.6816L69.2359 33.0884L70.4808 32.5017L71.7256 31.9216L72.9705 31.3481L74.2154 30.7812L75.4603 30.2211L76.7051 29.6679L77.95 29.1216L79.1949 28.5822L80.4397 28.0499L81.6846 27.5247L82.9295 27.0067L84.1744 26.496L85.4192 25.9926L86.6641 25.4965L87.909 25.008L89.1539 24.5269L90.3987 24.0534L91.6436 23.5875L92.8885 23.1293L94.1333 22.6789L95.3782 22.2363L96.6231 21.8016L97.868 21.3748L99.1128 20.956L100.358 20.5451L101.603 20.1425L102.847 19.7479L104.092 19.3615L105.337 18.9834L106.582 18.6135L107.827 18.252L109.072 17.8989L110.317 17.5542L111.562 17.218L112.806 16.8902L114.051 16.5711L115.296 16.2606L116.541 15.9587L117.786 15.6654L119.031 15.3809L120.276 15.1052L121.521 14.8382L122.765 14.5801L124.01 14.3308L125.255 14.0904L126.5 13.8589L127.745 13.6364L128.99 13.4229L130.235 13.2184L131.479 13.0229L132.724 12.8364L133.969 12.6591L135.214 12.4908L136.459 12.3317L137.704 12.1817L138.949 12.0409L140.194 11.9093L141.438 11.7869L142.683 11.6737L143.928 11.5697L145.173 11.475L146.418 11.3896L147.663 11.3134L148.908 11.2465L150.153 11.1889L151.397 11.1406L152.642 11.1015L153.887 11.0718L155.132 11.0514L156.377 11.0403L157.622 11.0386L158.867 11.0461L160.112 11.063L161.356 11.0891L162.601 11.1246L163.846 11.1694L165.091 11.2235L166.336 11.2869L167.581 11.3595L168.826 11.4415L170.071 11.5326L171.315 11.6331L172.56 11.7428L173.805 11.8617L175.05 11.9898L176.295 12.1271L177.54 12.2736L178.785 12.4292L180.029 12.594L181.274 12.7679L182.519 12.9509L183.764 13.1429L185.009 13.344L186.254 13.5541L187.499 13.7732L188.744 14.0013L189.988 14.2383L191.233 14.4842L192.478 14.7389L193.723 15.0026L194.968 15.275L196.213 15.5562L197.458 15.8461L198.703 16.1447L199.947 16.452L201.192 16.7678L202.437 17.0923L203.682 17.4253L204.927 17.7668L206.172 18.1167L207.417 18.475L208.662 18.8417L209.906 19.2166L211.151 19.5999L212.396 19.9913L213.641 20.391L214.886 20.7987L216.131 21.2145L217.376 21.6383L218.621 22.07L219.865 22.5096L221.11 22.9571L222.355 23.4123L223.6 23.8752L224.845 24.3458L226.09 24.8241L227.335 25.3098L228.579 25.803L229.824 26.3036L231.069 26.8116L232.314 27.3268L233.559 27.8493L234.804 28.3789L236.049 28.9155L237.294 29.4592L238.538 30.0098L239.783 30.5673L241.028 31.1316L242.273 31.7026L243.518 32.2803L244.763 32.8644L246.008 33.4552L247.253 34.0523L248.497 34.6558L249.742 35.2655L250.987 35.8814L252.232 36.5035L253.477 37.1316L254.722 37.7656L255.967 38.4054L257.212 39.0511L258.456 39.7024L259.701 40.3594L260.946 41.0219L262.191 41.6898L263.436 42.3632L264.681 43.0417L265.926 43.7255L267.171 44.4143L268.415 45.1081L269.66 45.8069L270.905 46.5105L272.15 47.2188L273.395 47.9318L274.64 48.6493L275.885 49.3713L277.129 50.0977L278.374 50.8283L279.619 51.5631L280.864 52.3019L282.109 53.0448L283.354 53.7916L284.599 54.5421L285.844 55.2964L287.088 56.0542L288.333 56.8156L289.578 57.5803L290.823 58.3484L292.068 59.1197L293.313 59.894L294.558 60.6714L295.803 61.4517L297.047 62.2348L298.292 63.0206L299.537 63.809L300.782 64.5999L302.027 65.3932L303.272 66.1888L304.517 66.9866L305.762 67.7864L307.006 68.5883L308.251 69.3921L309.496 70.1976L310.741 71.0048L311.986 71.8136L313.231 72.6238L314.476 73.4354L315.721 74.2483L316.965 75.0623L318.21 75.8774L319.455 76.6934L320.7 77.5102L321.945 78.3278L323.19 79.146L324.435 79.9648L325.679 80.7839L326.924 81.6033L328.169 82.423L329.414 83.2427L330.659 84.0625L331.904 84.8821L333.149 85.7015L334.394 86.5206L335.638 87.3393L336.883 88.1574L338.128 88.9749L339.373 89.7916L340.618 90.6074L341.863 91.4223L343.108 92.2362L344.353 93.0489L345.597 93.8602L346.842 94.6703L348.087 95.4788L349.332 96.2857L350.577 97.091L351.822 97.8945L353.067 98.696L354.312 99.4956L355.556 100.293L356.801 101.088L358.046 101.881L359.291 102.672L360.536 103.46L361.781 104.245L363.026 105.028L364.271 105.808L365.515 106.584L366.76 107.358L368.005 108.129L369.25 108.897L370.495 109.661L371.74 110.422L372.985 111.179L374.229 111.933L375.474 112.683L376.719 113.429L377.964 114.171L379.209 114.909L380.454 115.643L381.699 116.373L382.944 117.099L384.188 117.82L385.433 118.537L386.678 119.249L387.923 119.957L389.168 120.66L390.413 121.358L391.658 122.051L392.903 122.739L394.147 123.422L395.392 124.099L396.637 124.772L397.882 125.439L399.127 126.101L400.372 126.757L401.617 127.407L402.862 128.052L404.106 128.691L405.351 129.324L406.596 129.951L407.841 130.572L409.086 131.187L410.331 131.796L411.576 132.398L412.821 132.994L414.065 133.584L415.31 134.167L416.555 134.744L417.8 135.314L419.045 135.877L420.29 136.433L421.535 136.983L422.779 137.525L424.024 138.061L425.269 138.589L426.514 139.111L427.759 139.625L429.004 140.132L430.249 140.631L431.494 141.123L432.738 141.608L433.983 142.085L435.228 142.554L436.473 143.016L437.718 143.47L438.963 143.916L440.208 144.354L441.453 144.785L442.697 145.207L443.942 145.622L445.187 146.028L446.432 146.426L447.677 146.817L448.922 147.199L450.167 147.572L451.412 147.938L452.656 148.295L453.901 148.643L455.146 148.983L456.391 149.315L457.636 149.638L458.881 149.952L460.126 150.258L461.37 150.556L462.615 150.844L463.86 151.124L465.105 151.395L466.35 151.657L467.595 151.91L468.84 152.155L470.085 152.39L471.329 152.617L472.574 152.835L473.819 153.043L475.064 153.243L476.309 153.434L477.554 153.615L478.799 153.788L480.044 153.951L481.288 154.105L482.533 154.25L483.778 154.386L485.023 154.513L486.268 154.63L487.513 154.738L488.758 154.837L490.003 154.927L491.247 155.008L492.492 155.079L493.737 155.141L494.982 155.193L496.227 155.237L497.472 155.27L498.717 155.295L499.962 155.311L501.206 155.317L502.451 155.313L503.696 155.301L504.941 155.279L506.186 155.248L507.431 155.207L508.676 155.157L509.92 155.098L511.165 155.03L512.41 154.952L513.655 154.865L514.9 154.769L516.145 154.664L517.39 154.549L518.635 154.425L519.879 154.292L521.124 154.15L522.369 153.998L523.614 153.838L524.859 153.668L526.104 153.489L527.349 153.301L528.594 153.105L529.838 152.899L531.083 152.684L532.328 152.46L533.573 152.227L534.818 151.985L536.063 151.734L537.308 151.475L538.553 151.206L539.797 150.929L541.042 150.643L542.287 150.349L543.532 150.045L544.777 149.733L546.022 149.413L547.267 149.084L548.512 148.746L549.756 148.4L551.001 148.046L552.246 147.683L553.491 147.312L554.736 146.932L555.981 146.545L557.226 146.149L558.47 145.745L559.715 145.333L560.96 144.913L562.205 144.485L563.45 144.048L564.695 143.605L565.94 143.153L567.185 142.694L568.429 142.227L569.674 141.752L570.919 141.269L572.164 140.78L573.409 140.282L574.654 139.778L575.899 139.266L577.144 138.747L578.388 138.221L579.633 137.687L580.878 137.147L582.123 136.599L583.368 136.045L584.613 135.484L585.858 134.916L587.103 134.341L588.347 133.76L589.592 133.172L590.837 132.578L592.082 131.978L593.327 131.371L594.572 130.758L595.817 130.138L597.062 129.513L598.306 128.882L599.551 128.245L600.796 127.602L602.041 126.953L603.286 126.298L604.531 125.638L605.776 124.973L607.02 124.302L608.265 123.626L609.51 122.945L610.755 122.258L612 121.567L613.245 120.87L614.49 120.169L615.735 119.463L616.979 118.752L618.224 118.036L619.469 117.316L620.714 116.592L621.959 115.863L623.204 115.13L624.449 114.393L625.694 113.652L626.938 112.907L628.183 112.159L629.428 111.406L630.673 110.65L631.918 109.89L633.163 109.127L634.408 108.36L635.653 107.59L636.897 106.818L638.142 106.042L639.387 105.263L640.632 104.481L641.877 103.696L643.122 102.909L644.367 102.119L645.612 101.327L646.856 100.532L648.101 99.7356L649.346 98.9367L650.591 98.1357L651.836 97.3329L653.081 96.5281L654.326 95.7217L655.57 94.9136L656.815 94.104L658.06 93.2931L659.305 92.4807L660.55 91.6672L661.795 90.8526L663.04 90.037L664.285 89.2206L665.529 88.4033L666.774 87.5854L668.019 86.7669L669.264 85.9479L670.509 85.1286L671.754 84.309L672.999 83.4893L674.244 82.6696L675.488 81.8499L676.733 81.0303L677.978 80.2111L679.223 79.3922L680.468 78.5739L681.713 77.7561L682.958 76.939L684.203 76.1227L685.447 75.3073L686.692 74.493L687.937 73.6798L689.182 72.8678L690.427 72.0571L691.672 71.2479L692.917 70.4402L694.162 69.6341L695.406 68.8299L696.651 68.0274L697.896 67.2269L699.141 66.4285L700.386 65.6322L701.631 64.8382L702.876 64.0466L704.12 63.2575L705.365 62.4709L706.61 61.6869L707.855 60.9058L709.1 60.1275L710.345 59.3522L711.59 58.58L712.835 57.811L714.079 57.0452L715.324 56.2829L716.569 55.5239L717.814 54.7686L719.059 54.0169L720.304 53.269L721.549 52.525L722.794 51.7849L724.038 51.0489L725.283 50.317L726.528 49.5893L727.773 48.866L729.018 48.1472L730.263 47.4328L731.508 46.7231L732.753 46.0181L733.997 45.3178L735.242 44.6225L736.487 43.9321L737.732 43.2468L738.977 42.5667L740.222 41.8918L741.467 41.2222L742.712 40.5581L743.956 39.8994L745.201 39.2464L746.446 38.599L747.691 37.9574L748.936 37.3216L750.181 36.6917L751.426 36.0679L752.67 35.4501L753.915 34.8385L755.16 34.2331L756.405 33.6341L757.65 33.0414L758.895 32.4553L760.14 31.8756L761.385 31.3026L762.629 30.7363L763.874 30.1768L765.119 29.6241L766.364 29.0783L767.609 28.5395L768.854 28.0078L770.099 27.4832L771.344 26.9658L772.588 26.4556L773.833 25.9528L775.078 25.4573L776.323 24.9694L777.568 24.4889L778.813 24.016L780.058 23.5507L781.303 23.0932L782.547 22.6434L783.792 22.2014L785.037 21.7673L786.282 21.3411L787.527 20.9229L788.772 20.5128L790.017 20.1107L791.262 19.7168L792.506 19.331L793.751 18.9536L794.996 18.5844L796.241 18.2236L797.486 17.8711L798.731 17.5271L799.976 17.1915L801.22 16.8645L802.465 16.546L803.71 16.2362L804.955 15.935L806.2 15.6424L807.445 15.3586L808.69 15.0836L809.935 14.8173L811.179 14.5599L812.424 14.3113L813.669 14.0716L814.914 13.8409L816.159 13.6191L817.404 13.4063L818.649 13.2024L819.894 13.0077L821.138 12.822L822.383 12.6453L823.628 12.4778L824.873 12.3194L826.118 12.1702L827.363 12.0301L828.608 11.8992L829.853 11.7776L831.097 11.6651L832.342 11.5619L833.587 11.4679L834.832 11.3832L836.077 11.3077L837.322 11.2416L838.567 11.1847L839.812 11.1371L841.056 11.0988L842.301 11.0699L843.546 11.0502L844.791 11.0399L846.036 11.0388L847.281 11.0471L848.526 11.0647L849.77 11.0916L851.015 11.1278L852.26 11.1734L853.505 11.2282L854.75 11.2923L855.995 11.3657L857.24 11.4484L858.485 11.5403L859.729 11.6415L860.974 11.7519L862.219 11.8715L863.464 12.0004L864.709 12.1384L865.954 12.2857L867.199 12.442L868.444 12.6075L869.688 12.7821L870.933 12.9659L872.178 13.1586L873.423 13.3604L874.668 13.5713L875.913 13.7911L877.158 14.0198L878.403 14.2576L879.647 14.5042L880.892 14.7596L882.137 15.024L883.382 15.2971L884.627 15.5789L885.872 15.8695L887.117 16.1688L888.362 16.4768L889.606 16.7934L890.851 17.1185L892.096 17.4522L893.341 17.7943L894.586 18.1449L895.831 18.5039L897.076 18.8713L898.32 19.2469L899.565 19.6308L900.81 20.0229L902.055 20.4232L903.3 20.8315L904.545 21.248L905.79 21.6724L907.035 22.1047L908.279 22.545L909.524 22.9931L910.769 23.4489L912.014 23.9125L913.259 24.3837L914.504 24.8625L915.749 25.3488L916.994 25.8426L918.238 26.3438L919.483 26.8524L920.728 27.3682L921.973 27.8912L923.218 28.4214L924.463 28.9586L925.708 29.5028L926.953 30.054L928.197 30.612L929.442 31.1768L930.687 31.7484L931.932 32.3266L933.177 32.9113L934.422 33.5025L935.667 34.1001L936.912 34.7041L938.156 35.3144L939.401 35.9308L940.646 36.5533L941.891 37.1819L943.136 37.8163L944.381 38.4567L945.626 39.1028L946.87 39.7546L948.115 40.412L949.36 41.0749L950.605 41.7433L951.85 42.417L953.095 43.096L954.34 43.7802L955.585 44.4694L956.829 45.1637L958.074 45.8628L959.319 46.5668L960.564 47.2755L961.809 47.9888L963.054 48.7067L964.299 49.429L965.544 50.1557L966.788 50.8867L968.033 51.6218L969.278 52.361L970.523 53.1042L971.768 53.8512L973.013 54.6021L974.258 55.3566L975.503 56.1148L976.747 56.8764L977.992 57.6414L979.237 58.4098L980.482 59.1813L981.727 59.9559L982.972 60.7335L984.217 61.514L985.462 62.2973L986.706 63.0833L987.951 63.8719L989.196 64.663L990.441 65.4565L991.686 66.2523L992.931 67.0502L994.176 67.8503L995.42 68.6523L996.665 69.4562L997.91 70.2618L999.155 71.0692L1000.4 71.8781L1001.64 72.6884L1002.89 73.5002L1004.13 74.3131L1005.38 75.1272L1006.62 75.9424L1007.87 76.7584L1009.11 77.5754L1010.36 78.393L1011.6 79.2113L1012.85 80.03L1014.09 80.8492L1015.34 81.6687L1016.58 82.4883L1017.83 83.3081L1019.07 84.1278L1020.32 84.9474L1021.56 85.7668L1022.81 86.5859L1024.05 87.4045L1025.3 88.2225L1026.54 89.0399L1027.79 89.8566L1029.03 90.6724L1030.28 91.4872L1031.52 92.301L1032.77 93.1136L1034.01 93.9248L1035.26 94.7348L1036.5 95.5432L1037.75 96.35L1038.99 97.1551L1040.24 97.9584L1041.48 98.7598L1042.73 99.5592L1043.97 100.356L1045.22 101.152L1046.46 101.944L1047.71 102.735L1048.95 103.522L1050.19 104.308L1051.44 105.09L1052.68 105.87L1053.93 106.646L1055.17 107.42L1056.42 108.19L1057.66 108.958L1058.91 109.722L1060.15 110.482L1061.4 111.239L1062.64 111.993L1063.89 112.742L1065.13 113.488L1066.38 114.23L1067.62 114.968L1068.87 115.702L1070.11 116.431L1071.36 117.157L1072.6 117.877L1073.85 118.594L1075.09 119.306L1076.34 120.013L1077.58 120.715L1078.83 121.413L1080.07 122.106L1081.32 122.793L1082.56 123.476L1083.81 124.153L1085.05 124.825L1086.3 125.492L1087.54 126.153L1088.79 126.809L1090.03 127.459L1091.28 128.103L1092.52 128.741L1093.77 129.374L1095.01 130.001L1096.26 130.621L1097.5 131.236L1098.74 131.844L1099.99 132.446L1101.23 133.042L1102.48 133.631L1103.72 134.213L1104.97 134.789L1106.21 135.359L1107.46 135.921L1108.7 136.477L1109.95 137.026L1111.19 137.568L1112.44 138.103L1113.68 138.631L1114.93 139.152L1116.17 139.665L1117.42 140.172L1118.66 140.67L1119.91 141.162L1121.15 141.646L1122.4 142.122L1123.64 142.591L1124.89 143.052L1126.13 143.505L1127.38 143.951L1128.62 144.389L1129.87 144.819L1131.11 145.24L1132.36 145.654L1133.6 146.06L1134.85 146.458L1136.09 146.847L1137.34 147.229L1138.58 147.602L1139.83 147.966L1141.07 148.323L1142.32 148.671L1143.56 149.01L1144.81 149.341L1146.05 149.663L1147.29 149.977L1148.54 150.282L1149.78 150.579L1151.03 150.867L1152.27 151.146L1153.52 151.416L1154.76 151.678L1156.01 151.93L1157.25 152.174L1158.5 152.409L1159.74 152.635L1160.99 152.852L1162.23 153.06L1163.48 153.259L1164.72 153.449L1165.97 153.629L1167.21 153.801L1168.46 153.964L1169.7 154.117L1170.95 154.261L1172.19 154.397L1173.44 154.522L1174.68 154.639L1175.93 154.747L1177.17 154.845L1178.42 154.934L1179.66 155.014L1180.91 155.084L1182.15 155.145L1183.4 155.197L1184.64 155.24L1185.89 155.273L1187.13 155.297L1188.38 155.311L1189.62 155.317L1190.87 155.313L1192.11 155.299L1193.36 155.277L1194.6 155.245L1195.84 155.204L1197.09 155.153L1198.33 155.093L1199.58 155.024L1200.82 154.946L1202.07 154.858L1203.31 154.761L1204.56 154.655L1205.8 154.54L1207.05 154.415L1208.29 154.281L1209.54 154.138L1210.78 153.986L1212.03 153.825L1213.27 153.654L1214.52 153.475L1215.76 153.286L1217.01 153.088L1218.25 152.882L1219.5 152.666L1220.74 152.441L1221.99 152.208L1223.23 151.965L1224.48 151.714L1225.72 151.454L1226.97 151.185L1228.21 150.907L1229.46 150.62L1230.7 150.325L1231.95 150.021L1233.19 149.708L1234.44 149.387L1235.68 149.057L1236.93 148.719L1238.17 148.372L1239.42 148.017L1240.66 147.654L1241.91 147.282L1243.15 146.902L1244.39 146.513L1245.64 146.117L1246.88 145.712L1248.13 145.299L1249.37 144.879L1250.62 144.45L1251.86 144.013L1253.11 143.569L1254.35 143.117L1255.6 142.657L1256.84 142.189L1258.09 141.714L1259.33 141.231L1260.58 140.74L1261.82 140.243L1263.07 139.737L1264.31 139.225L1265.56 138.705L1266.8 138.178L1268.05 137.644L1269.29 137.103L1270.54 136.555L1271.78 136L1273.03 135.439L1274.27 134.87L1275.52 134.295L1276.76 133.713L1278.01 133.125L1279.25 132.53L1280.5 131.929L1281.74 131.322L1282.99 130.708L1284.23 130.089L1285.48 129.463L1286.72 128.831L1287.97 128.194L1289.21 127.55L1290.46 126.901L1291.7 126.246L1292.94 125.586L1294.19 124.92L1295.43 124.249L1296.68 123.572L1297.92 122.89L1299.17 122.203L1300.41 121.511L1301.66 120.814L1302.9 120.113L1304.15 119.406L1305.39 118.695L1306.64 117.979L1307.88 117.259L1309.13 116.534L1310.37 115.805L1311.62 115.072L1312.86 114.334L1314.11 113.593L1315.35 112.848L1316.6 112.099L1317.84 111.346L1319.09 110.589L1320.33 109.829L1321.58 109.066L1322.82 108.299L1324.07 107.529L1325.31 106.756L1326.56 105.98L1327.8 105.2L1329.05 104.418L1330.29 103.634L1331.54 102.846L1332.78 102.056L1334.03 101.264L1335.27 100.469L1336.52 99.6721L1337.76 98.8729L1339.01 98.0719L1340.25 97.2688L1341.49 96.4639L1342.74 95.6574L1343.98 94.8491L1345.23 94.0394L1346.47 93.2284L1347.72 92.4159L1348.96 91.6024L1350.21 90.7877L1351.45 89.972L1352.7 89.1555L1353.94 88.3382L1355.19 87.5202L1356.43 86.7016L1357.68 85.8826L1358.92 85.0633L1360.17 84.2437L1361.41 83.424L1362.66 82.6042L1363.9 81.7845L1365.15 80.965L1366.39 80.1458L1367.64 79.327L1368.88 78.5087L1370.13 77.6909L1371.37 76.8739L1372.62 76.0577L1373.86 75.2424L1375.11 74.4282L1376.35 73.615L1377.6 72.8031L1378.84 71.9926L1380.09 71.1835L1381.33 70.3759L1382.58 69.57L1383.82 68.7658L1385.07 67.9635L1386.31 67.1632L1387.56 66.365L1388.8 65.5689L1390.04 64.7751L1391.29 63.9836L1392.53 63.1947L1393.78 62.4083L1395.02 61.6246L1396.27 60.8437L1397.51 60.0656L1398.76 59.2906L1400 58.5186L1401.25 57.7499L1402.49 56.9843L1403.74 56.2222L1404.98 55.4636L1406.23 54.7085L1407.47 53.9572L1408.72 53.2096L1409.96 52.4658L1411.21 51.7261L1412.45 50.9904L1413.7 50.2588L1414.94 49.5315L1416.19 48.8086L1417.43 48.0901L1418.68 47.3761L1419.92 46.6667L1421.17 45.9621L1422.41 45.2622L1423.66 44.5673L1424.9 43.8773L1426.15 43.1924L1427.39 42.5127L1428.64 41.8383L1429.88 41.1691L1431.13 40.5054L1432.37 39.8472L1433.62 39.1946L1434.86 38.5477L1436.11 37.9065L1437.35 37.2712L1438.59 36.6418L1439.84 36.0184L1441.08 35.4012L1442.33 34.7901L1443.57 34.1852L1444.82 33.5866L1446.06 32.9945L1447.31 32.4088L1448.55 31.8297L1449.8 31.2573L1451.04 30.6915L1452.29 30.1325L1453.53 29.5804L1454.78 29.0351L1456.02 28.4969L1457.27 27.9657L1458.51 27.4417L1459.76 26.9249L1461 26.4153L1462.25 25.913L1463.49 25.4182L1464.74 24.9308L1465.98 24.4509L1467.23 23.9786L1468.47 23.514L1469.72 23.057L1470.96 22.6078L1472.21 22.1665L1473.45 21.733L1474.7 21.3075L1475.94 20.8899L1477.19 20.4804L1478.43 20.079L1479.68 19.6858L1480.92 19.3007L1482.17 18.9238L1483.41 18.5553L1484.66 18.1952L1485.9 17.8434L1487.14 17.5L1488.39 17.1652L1489.63 16.8388L1490.88 16.521L1492.12 16.2119L1493.37 15.9113L1494.61 15.6195L1495.86 15.3364L1497.1 15.062L1498.35 14.7965L1499.59 14.5397L1500.84 14.2919L1502.08 14.0529L1503.33 13.8229L1504.57 13.6018L1505.82 13.3897L1507.06 13.1866L1508.31 12.9925L1509.55 12.8076L1510.8 12.6316L1512.04 12.4649L1513.29 12.3072L1514.53 12.1587L1515.78 12.0193L1517.02 11.8892L1518.27 11.7683L1519.51 11.6565L1520.76 11.554L1522 11.4608L1523.25 11.3768L1524.49 11.3021L1525.74 11.2367L1526.98 11.1806L1528.23 11.1337L1529.47 11.0962L1530.72 11.068L1531.96 11.0491L1533.21 11.0394L1534.45 11.0391L1535.69 11.0482L1536.94 11.0665L1538.18 11.0942L1539.43 11.1311L1540.67 11.1774L1541.92 11.233L1543.16 11.2978L1544.41 11.372L1545.65 11.4553L1546.9 11.548L1548.14 11.65L1549.39 11.7611L1550.63 11.8815L1551.88 12.011L1553.12 12.1498L1554.37 12.2978L1555.61 12.4549L1556.86 12.6211" stroke="#01C4C2" stroke-width="22" stroke-miterlimit="10" stroke-linecap="round" stroke-linejoin="round"/>
</svg>
