<svg width="45" height="45" viewBox="0 0 45 45" fill="none" xmlns="http://www.w3.org/2000/svg">
<path d="M14.0817 11.1682C13.2772 10.3637 11.9728 10.3637 11.1682 11.1682C10.3637 11.9727 10.3637 13.2771 11.1682 14.0816L19.423 22.3364L11.1682 30.5912C10.3637 31.3957 10.3637 32.7001 11.1682 33.5047C11.9728 34.3092 13.2772 34.3092 14.0817 33.5047L22.3365 25.2499L30.5912 33.5047C31.3958 34.3092 32.7002 34.3092 33.5047 33.5047C34.3092 32.7001 34.3092 31.3957 33.5047 30.5912L25.2499 22.3364L33.5047 14.0816C34.3092 13.2771 34.3092 11.9727 33.5047 11.1682C32.7002 10.3637 31.3958 10.3637 30.5912 11.1682L22.3365 19.423L14.0817 11.1682Z" fill="white"/>
</svg>
