<svg width="56" height="57" viewBox="0 0 56 57" fill="none" xmlns="http://www.w3.org/2000/svg">
<g clip-path="url(#clip0_63_136)">
<rect y="0.5" width="56" height="56" rx="28" fill="white"/>
<path d="M7.57005 -5.96026C-8.40562 -16.084 -8.72875 11.8285 -8.72875 11.8285L-6.29149 14.651C-6.29149 14.651 23.5457 4.16344 7.57005 -5.96026Z" fill="url(#paint0_linear_63_136)"/>
<path d="M61.684 45.7004C45.7083 35.5767 45.3852 63.4891 45.3852 63.4891L47.8225 66.3117C47.8225 66.3117 77.6597 55.8241 61.684 45.7004Z" fill="url(#paint1_linear_63_136)"/>
<g clip-path="url(#clip1_63_136)">
<path opacity="0.7" d="M18.3214 28.8525V36.9637C18.3214 36.9891 18.3113 37.0134 18.2934 37.0313C18.2755 37.0493 18.2511 37.0594 18.2258 37.0594C18.2004 37.0594 18.1761 37.0493 18.1582 37.0313C18.1402 37.0134 18.1302 36.9891 18.1302 36.9637V28.8525C18.1303 28.8365 18.1345 28.8207 18.1423 28.8067L15.7571 25.6958V37.6691H20.6944V25.6958L18.3092 28.8067C18.317 28.8207 18.3212 28.8365 18.3214 28.8525Z" fill="#FD2965"/>
<path opacity="0.7" d="M15.7571 23.915V25.3813L18.2258 28.6015L20.6944 25.3813V23.915H15.7571Z" fill="#FD2965"/>
<path opacity="0.7" d="M9.91628 19.3306L15.7571 28.5025L18.1302 32.229V28.8524C18.1303 28.8364 18.1345 28.8206 18.1423 28.8066L15.7571 25.6957L11.3614 19.9618C11.3537 19.9519 11.348 19.9405 11.3447 19.9283C11.3414 19.9162 11.3405 19.9035 11.3421 19.891C11.3453 19.8658 11.3583 19.8428 11.3785 19.8272C11.3986 19.8116 11.424 19.8047 11.4493 19.8079C11.4745 19.8111 11.4975 19.8242 11.5131 19.8443L15.7571 25.3815L18.2258 28.6017L20.6944 25.3815L24.9389 19.8455C24.9466 19.8355 24.9562 19.8272 24.9672 19.8209C24.9781 19.8147 24.9902 19.8106 25.0027 19.8091C25.0152 19.8075 25.0278 19.8084 25.04 19.8117C25.0521 19.815 25.0635 19.8207 25.0735 19.8284C25.0834 19.8361 25.0918 19.8457 25.098 19.8567C25.1043 19.8676 25.1083 19.8797 25.1099 19.8922C25.1115 19.9047 25.1106 19.9174 25.1073 19.9295C25.1039 19.9417 25.0983 19.953 25.0905 19.963L20.6944 25.6957L18.3092 28.8066C18.317 28.8206 18.3212 28.8364 18.3214 28.8524V32.229L20.6944 28.5025L26.5353 19.3306H9.91628Z" fill="#6228F1"/>
</g>
<g clip-path="url(#clip2_63_136)">
<path opacity="0.7" d="M32.3299 19.3306H27.7453V25.0613H33.4761V37.669H40.353V25.0613H46.0837V19.3306H32.3299ZM44.9376 20.5723H34.7178V36.5228C34.7178 36.5482 34.7078 36.5725 34.6898 36.5904C34.6719 36.6084 34.6476 36.6184 34.6222 36.6184C34.5969 36.6184 34.5725 36.6084 34.5546 36.5904C34.5367 36.5725 34.5266 36.5482 34.5266 36.5228V20.5723H28.8915C28.8661 20.5723 28.8418 20.5623 28.8239 20.5443C28.8059 20.5264 28.7958 20.5021 28.7958 20.4767C28.7958 20.4514 28.8059 20.427 28.8239 20.4091C28.8418 20.3912 28.8661 20.3811 28.8915 20.3811H44.9376C44.9629 20.3811 44.9873 20.3912 45.0052 20.4091C45.0231 20.427 45.0332 20.4514 45.0332 20.4767C45.0332 20.5021 45.0231 20.5264 45.0052 20.5443C44.9873 20.5623 44.9629 20.5723 44.9376 20.5723Z" fill="#FA991A"/>
<path opacity="0.7" d="M34.7178 25.6981V36.5228C34.7178 36.5482 34.7077 36.5725 34.6898 36.5904C34.6719 36.6084 34.6476 36.6184 34.6222 36.6184C34.5969 36.6184 34.5725 36.6084 34.5546 36.5904C34.5367 36.5725 34.5266 36.5482 34.5266 36.5228V25.1887L32.7954 20.5723H32.3299V37.669H39.2068L34.7178 25.6981ZM32.3299 19.3306V20.3811H32.7241L32.3299 19.3306Z" fill="#F9D611"/>
</g>
</g>
<defs>
<linearGradient id="paint0_linear_63_136" x1="6.2875" y1="17.9863" x2="-2.7944" y2="-1.00344" gradientUnits="userSpaceOnUse">
<stop stop-color="#FA709A"/>
<stop offset="1" stop-color="#FFE13F"/>
</linearGradient>
<linearGradient id="paint1_linear_63_136" x1="60.4014" y1="69.647" x2="51.3195" y2="50.6572" gradientUnits="userSpaceOnUse">
<stop stop-color="#FA709A"/>
<stop offset="1" stop-color="#FFE13F"/>
</linearGradient>
<clipPath id="clip0_63_136">
<rect y="0.5" width="56" height="56" rx="28" fill="white"/>
</clipPath>
<clipPath id="clip1_63_136">
<rect width="16.6194" height="18.3384" fill="white" transform="translate(9.91628 19.3306)"/>
</clipPath>
<clipPath id="clip2_63_136">
<rect width="18.3384" height="18.3384" fill="white" transform="translate(27.7453 19.3306)"/>
</clipPath>
</defs>
</svg>
