<svg width="996" height="973" viewBox="0 0 996 973" fill="none" xmlns="http://www.w3.org/2000/svg">
<path d="M949.333 260.46C908.082 179.609 767.005 74.0053 684.916 62.4552C649.441 57.5051 644.903 82.253 679.966 89.6781C746.38 104.116 872.607 201.471 898.594 258.397C961.295 396.175 943.145 519.514 827.231 745.98C671.303 1050.41 155.67 969.558 85.1317 629.653C8.40676 260.872 275.297 -42.7348 591.69 53.3792C644.491 69.4669 639.953 41.8307 586.74 24.0929C515.376 0.580029 450.2 -5.60757 393.687 5.53011C103.282 62.8685 -60.8947 349.561 22.0191 653.166C79.77 863.957 380.899 1015.76 632.115 960.892C762.467 932.429 846.619 866.432 901.895 749.28C1010.8 516.214 1021.93 402.775 949.333 260.46Z" fill="white" fill-opacity="0.2"/>
<path d="M170.933 436.6C136.695 788.468 531.88 952.233 689.045 651.516C712.971 605.727 723.692 590.052 751.742 560.352C848.681 457.638 865.594 387.511 817.331 290.572C706.779 68.2294 213.421 1.81756 170.933 436.6ZM715.854 554.164C690.279 581.802 678.733 599.123 656.045 643.261C487.742 970.379 103.282 696.062 233.222 341.307C291.797 181.254 423.799 98.3445 586.327 156.095C814.856 237.359 865.594 391.637 715.854 554.164Z" fill="white" fill-opacity="0.2"/>
<path d="M510.838 329.758C653.978 337.183 638.72 403.184 573.544 414.321C525.693 422.572 521.976 425.047 490.213 470.835C465.875 505.898 437.412 514.148 414.312 491.873C378.836 457.635 376.361 387.509 420.499 348.32C439.062 331.82 430.812 326.874 404.824 338.424C335.111 368.95 321.498 512.911 432.462 525.698C479.488 531.061 516.201 510.435 536.001 467.535C548.377 440.722 557.864 434.122 590.865 428.759C675.429 415.147 678.316 347.083 595.402 319.445C550.439 304.595 481.138 300.882 465.875 312.02C450.2 323.57 452.675 326.458 510.838 329.758Z" fill="white" fill-opacity="0.2"/>
</svg>
