<svg width="64" height="64" viewBox="0 0 64 64" fill="none" xmlns="http://www.w3.org/2000/svg">
<path d="M29.9991 5.3335C18.7502 5.34446 12.93 5.54571 9.23762 9.23811C5.54522 12.9305 5.34397 18.7507 5.33301 29.9996H18.4357C17.4998 28.8306 16.8005 27.4516 16.4192 25.9262C14.9838 20.1849 20.1844 14.9843 25.9258 16.4197C27.4511 16.801 28.8301 17.5003 29.9991 18.4362V5.3335Z" fill="white"/>
<path d="M5.33301 33.9995C5.34397 45.2483 5.54522 51.0683 9.23762 54.7608C12.93 58.4531 18.7502 58.6544 29.9991 58.6654V37.6624C27.9199 41.8152 23.6258 44.6662 18.6657 44.6662C17.5611 44.6662 16.6657 43.7707 16.6657 42.6662C16.6657 41.5616 17.5611 40.6662 18.6657 40.6662C22.7638 40.6662 26.1976 37.8216 27.1005 33.9995H5.33301Z" fill="white"/>
<path d="M33.999 58.6654C45.2478 58.6544 51.0678 58.4531 54.7604 54.7608C58.4526 51.0683 58.654 45.2483 58.6649 33.9995H36.8974C37.8004 37.8216 41.2342 40.6662 45.3324 40.6662C46.4369 40.6662 47.3324 41.5616 47.3324 42.6662C47.3324 43.7707 46.4369 44.6662 45.3324 44.6662C40.3721 44.6662 36.078 41.8152 33.999 37.6624V58.6654Z" fill="white"/>
<path d="M58.6649 29.9996C58.654 18.7507 58.4526 12.9305 54.7604 9.23811C51.0678 5.54571 45.2478 5.34446 33.999 5.3335V18.4362C35.1681 17.5003 36.547 16.801 38.0721 16.4197C43.8137 14.9843 49.0142 20.1849 47.5788 25.9262C47.1974 27.4516 46.4982 28.8306 45.5622 29.9996H58.6649Z" fill="white"/>
<path d="M24.9556 20.3003C27.9197 21.0413 29.9992 23.7045 29.9992 26.7597V29.9997H26.7592C23.704 29.9997 21.0408 27.9202 20.2998 24.9561C19.5968 22.1443 22.1438 19.5973 24.9556 20.3003Z" fill="white"/>
<path d="M33.999 26.7597V29.9997H37.2388C40.294 29.9997 42.9572 27.9202 43.6982 24.9561C44.4012 22.1443 41.8542 19.5973 39.0425 20.3003C36.0782 21.0413 33.999 23.7045 33.999 26.7597Z" fill="white"/>
</svg>
