<svg width="216" height="216" viewBox="0 0 216 216" fill="none" xmlns="http://www.w3.org/2000/svg">
<path d="M193.737 111.413L203.924 112.278L203.475 112.642L203.834 108.433L205.221 108.551L204.437 117.75L203.05 117.632L203.409 113.423L203.791 113.841L193.603 112.976L193.737 111.413Z" fill="#700A54"/>
<path d="M192.564 124.132L203.33 127.221L201.998 131.849C201.661 133.017 201.161 133.867 200.498 134.398C199.834 134.929 199.052 135.065 198.149 134.806C197.268 134.553 196.682 134.041 196.394 133.271C196.115 132.503 196.125 131.601 196.423 130.566L196.805 130.975C196.459 132.174 195.954 133.023 195.29 133.52C194.632 134.03 193.847 134.155 192.935 133.893C192.012 133.628 191.386 133.083 191.058 132.256C190.737 131.443 190.767 130.375 191.148 129.053L192.564 124.132ZM193.341 126.003L192.371 129.37C192.135 130.19 192.107 130.848 192.286 131.343C192.473 131.852 192.879 132.196 193.505 132.375C194.13 132.555 194.647 132.475 195.055 132.138C195.46 131.81 195.78 131.236 196.016 130.416L196.986 127.049L193.341 126.003ZM198.155 127.384L197.292 130.382C197.076 131.131 197.061 131.742 197.246 132.217C197.429 132.702 197.807 133.027 198.381 133.192C198.965 133.359 199.464 133.286 199.876 132.971C200.286 132.667 200.598 132.141 200.814 131.393L201.676 128.394L198.155 127.384Z" fill="#700A54"/>
<path d="M186.954 141.502L197.103 146.239L196.431 147.674L186.282 142.936L186.954 141.502Z" fill="#700A54"/>
<path d="M183.547 149.541L192.705 155.989L191.791 157.283L184.726 152.309L187.969 162.693L187.119 163.895L177.962 157.447L178.866 156.167L185.918 161.132L182.698 150.744L183.547 149.541ZM190.567 160.374C191.072 159.66 191.62 159.217 192.211 159.046C192.795 158.884 193.374 158.998 193.947 159.388L193.292 160.316C192.946 160.085 192.593 160.02 192.235 160.12C191.886 160.227 191.57 160.48 191.287 160.881C191.01 161.273 190.88 161.651 190.897 162.015C190.916 162.394 191.093 162.708 191.427 162.956L190.781 163.871C190.22 163.463 189.921 162.952 189.884 162.339C189.841 161.735 190.069 161.08 190.567 160.374Z" fill="#700A54"/>
<path d="M166.867 170.884L173.594 179.838L165.871 185.621L159.144 176.666L160.399 175.726L166.54 183.901L165.983 183.798L171.811 179.435L171.74 180.007L165.599 171.833L166.867 170.884Z" fill="#700A54"/>
<path d="M145.087 185.14C145.874 184.811 146.663 184.638 147.453 184.62C148.234 184.606 148.969 184.732 149.659 184.998C150.354 185.275 150.973 185.675 151.516 186.199C152.06 186.724 152.49 187.364 152.808 188.122C153.126 188.879 153.281 189.635 153.273 190.39C153.266 191.144 153.115 191.861 152.821 192.538C152.531 193.226 152.107 193.842 151.549 194.388C150.991 194.933 150.314 195.372 149.516 195.705C148.729 196.034 147.95 196.204 147.179 196.214C146.403 196.238 145.667 196.111 144.973 195.835C144.273 195.573 143.656 195.177 143.122 194.649C142.579 194.125 142.146 193.479 141.824 192.711C141.503 191.944 141.346 191.183 141.353 190.429C141.351 189.678 141.499 188.957 141.799 188.265C142.093 187.588 142.519 186.976 143.077 186.431C143.629 185.9 144.299 185.469 145.087 185.14ZM145.637 186.454C145.066 186.692 144.581 187.011 144.181 187.409C143.772 187.811 143.464 188.263 143.258 188.766C143.047 189.282 142.943 189.822 142.949 190.386C142.944 190.955 143.061 191.524 143.301 192.095C143.54 192.665 143.864 193.148 144.273 193.544C144.672 193.944 145.127 194.244 145.64 194.446C146.147 194.662 146.688 194.766 147.262 194.757C147.827 194.752 148.395 194.631 148.966 194.392C149.546 194.149 150.042 193.827 150.451 193.425C150.851 193.026 151.157 192.569 151.368 192.053C151.584 191.547 151.694 191.009 151.698 190.441C151.693 189.877 151.571 189.309 151.332 188.739C151.093 188.168 150.773 187.683 150.375 187.283C149.966 186.888 149.503 186.584 148.986 186.372C148.474 186.17 147.935 186.072 147.37 186.076C146.796 186.085 146.218 186.211 145.637 186.454Z" fill="#700A54"/>
<path d="M122.912 193.038L124.338 201.981L129.189 201.21L128.898 198.875C128.805 198.09 128.739 197.334 128.698 196.606C128.647 195.88 128.639 195.217 128.673 194.617C128.709 194.029 128.813 193.531 128.986 193.126C129.148 192.722 129.397 192.45 129.731 192.311L131.483 192.324C131.067 192.358 130.752 192.548 130.537 192.896C130.313 193.255 130.172 193.726 130.114 194.307C130.047 194.901 130.036 195.578 130.081 196.338C130.128 197.108 130.205 197.927 130.311 198.796L130.767 202.369L122.993 203.604L121.348 193.287L122.912 193.038ZM131.273 188.469L131.862 192.264L119.821 194.177L119.216 190.385L120.686 190.152L121.071 192.569L130.173 191.123L129.804 188.703L131.273 188.469Z" fill="#700A54"/>
<path d="M111.932 194.04L106.094 204.861L104.514 204.752L100.216 193.226L101.892 193.343L105.693 203.936L105.055 203.891L110.288 193.926L111.932 194.04ZM109.583 196.684L109.063 197.93L102.774 197.494L102.4 196.185L109.583 196.684Z" fill="#700A54"/>
<path d="M90.8437 192.212L87.6237 202.939L83.4389 201.687C82.4988 201.406 81.741 201.018 81.1657 200.523C80.5904 200.028 80.2082 199.446 80.0192 198.777C79.8302 198.108 79.8523 197.385 80.0853 196.609C80.3184 195.832 80.6981 195.217 81.2245 194.762C81.7477 194.317 82.3875 194.041 83.1437 193.933C83.8969 193.836 84.7436 193.927 85.6838 194.209L89.0254 195.208L88.1194 195.722L89.3109 191.753L90.8437 192.212ZM88.1654 195.569L88.6252 196.542L85.3295 195.556C84.3485 195.262 83.5447 195.25 82.9183 195.519C82.2816 195.785 81.8482 196.301 81.6182 197.067C81.3882 197.834 81.4658 198.503 81.851 199.074C82.2261 199.643 82.9041 200.074 83.8851 200.367L87.1808 201.353L86.261 201.913L88.1654 195.569Z" fill="#700A54"/>
<path d="M72.9846 188.03C72.5951 187.587 72.1714 187.295 71.7133 187.154C71.2501 187.023 70.7086 187.134 70.0888 187.488L69.1963 187.986L68.9713 188.063L61.5956 192.969L60.2053 192.21L69.0004 186.511C69.6663 186.073 70.3063 185.815 70.9206 185.737C71.5204 185.663 72.0807 185.75 72.6017 185.998C73.1184 186.232 73.5727 186.601 73.9647 187.107L72.9846 188.03ZM69.6975 186.837L69.5584 197.316L68.0558 196.496L68.3102 187.538L69.6975 186.837Z" fill="#700A54"/>
<path d="M44.3974 181.033L43.2052 179.966L50.6886 171.633L51.8808 172.7L44.3974 181.033ZM56.6736 176.989L57.8658 178.056L50.3824 186.389L49.1902 185.322L56.6736 176.989ZM48.4381 176.318L53.4574 180.81L52.5273 181.846L47.508 177.354L48.4381 176.318Z" fill="#700A54"/>
<path d="M39.5934 159.56C40.073 160.266 40.4003 161.004 40.5755 161.774C40.7446 162.535 40.7671 163.28 40.6428 164.008C40.5098 164.743 40.2401 165.428 39.8338 166.063C39.4276 166.699 38.8844 167.247 38.2043 167.708C37.5242 168.168 36.8132 168.469 36.0712 168.611C35.3293 168.753 34.5965 168.746 33.8728 168.592C33.1403 168.444 32.451 168.151 31.8049 167.713C31.1588 167.274 30.593 166.697 30.1074 165.983C29.6278 165.277 29.3065 164.548 29.1433 163.795C28.9654 163.04 28.9429 162.295 29.076 161.561C29.1942 160.824 29.4595 160.142 29.8717 159.515C30.278 158.879 30.8256 158.328 31.5145 157.861C32.2035 157.395 32.9189 157.091 33.6608 156.949C34.3968 156.799 35.134 156.802 35.8725 156.959C36.5962 157.113 37.2811 157.409 37.9272 157.848C38.5585 158.283 39.1139 158.854 39.5934 159.56ZM38.4143 160.358C38.0666 159.846 37.6576 159.434 37.1872 159.121C36.7109 158.8 36.2058 158.588 35.672 158.486C35.1234 158.381 34.5728 158.386 34.0201 158.503C33.4614 158.611 32.926 158.838 32.4137 159.185C31.9014 159.532 31.4918 159.944 31.1849 160.423C30.872 160.892 30.6675 161.398 30.5713 161.939C30.4603 162.478 30.4663 163.028 30.5894 163.589C30.7065 164.141 30.9389 164.673 31.2865 165.184C31.6402 165.705 32.0552 166.126 32.5316 166.448C33.002 166.76 33.5115 166.969 34.06 167.074C34.5998 167.186 35.149 167.187 35.7077 167.079C36.2604 166.963 36.7929 166.731 37.3051 166.384C37.8174 166.037 38.23 165.629 38.5429 165.16C38.8498 164.681 39.0558 164.168 39.1608 163.621C39.257 163.079 39.2465 162.532 39.1294 161.98C39.0064 161.419 38.768 160.879 38.4143 160.358Z" fill="#700A54"/>
<path d="M28.068 138.998L24.3718 144.766L23.1597 143.843L27.4134 137.295L28.068 138.998ZM30.7723 146.032L20.3137 150.039L19.751 148.576L30.2096 144.568L30.7723 146.032ZM25.7801 146.78L24.4653 147.283L23.162 143.893L24.4767 143.39L25.7801 146.78ZM23.9447 143.388L24.2637 144.842L17.6381 143.08L17.0238 141.482L23.9447 143.388Z" fill="#700A54"/>
<path d="M19.9312 124.433L18.6146 124.606L18.0514 120.339L19.3681 120.166L19.9312 124.433Z" fill="#700A54"/>
<path d="M22.2794 103.986L12.099 103.042L12.5503 102.683L12.1593 106.888L10.7732 106.76L11.6278 97.5677L13.0139 97.6961L12.6229 101.902L12.2442 101.481L22.4246 102.425L22.2794 103.986Z" fill="#700A54"/>
<path d="M23.4634 91.6754L12.7093 88.5466L14.059 83.9236C14.3997 82.7563 14.9028 81.9084 15.5683 81.3799C16.2337 80.8514 17.0171 80.7183 17.9184 80.9805C18.7992 81.2368 19.3825 81.7509 19.6683 82.5228C19.9438 83.2917 19.9307 84.1933 19.6287 85.2274L19.2486 84.8169C19.5983 83.6189 20.1065 82.7725 20.7732 82.2777C21.4327 81.7697 22.2182 81.6483 23.1297 81.9135C24.0515 82.1817 24.6749 82.7297 25 83.5575C25.3178 84.372 25.2839 85.4397 24.8982 86.7606L23.4634 91.6754ZM22.6936 89.8018L23.6756 86.4382C23.9147 85.619 23.9456 84.9615 23.7681 84.4655C23.5834 83.9563 23.1787 83.6108 22.5539 83.429C21.9292 83.2473 21.4121 83.3246 21.0028 83.6609C20.5965 83.9871 20.2737 84.5597 20.0346 85.3788L19.0526 88.7424L22.6936 89.8018ZM17.885 88.4027L18.7594 85.4078C18.9776 84.6603 18.995 84.0488 18.8116 83.5733C18.6311 83.0875 18.2541 82.7612 17.6806 82.5944C17.0968 82.4245 16.5981 82.4961 16.1845 82.809C15.7739 83.1116 15.4595 83.6367 15.2413 84.3842L14.3669 87.3792L17.885 88.4027Z" fill="#700A54"/>
<path d="M29.2456 74.0451L19.1324 69.2322L19.815 67.8028L29.9282 72.6157L29.2456 74.0451Z" fill="#700A54"/>
<path d="M32.4848 66.3833L23.3507 59.902L24.2694 58.6116L31.3157 63.6115L28.1113 53.2156L28.9651 52.0165L38.0992 58.4979L37.1898 59.7752L30.1565 54.7845L33.3385 65.1842L32.4848 66.3833ZM25.5046 55.5251C24.9973 56.2376 24.4478 56.6783 23.8563 56.8471C23.2709 57.0072 22.6924 56.891 22.1207 56.4984L22.7796 55.573C23.1251 55.8051 23.477 55.8717 23.8354 55.7729C24.1852 55.6679 24.5023 55.4156 24.7869 55.0158C25.0653 54.6248 25.1967 54.2472 25.181 53.883C25.1629 53.5039 24.9873 53.1896 24.6542 52.9402L25.3038 52.0278C25.8631 52.4377 26.1601 52.9493 26.1948 53.5625C26.2358 54.1671 26.0057 54.8213 25.5046 55.5251Z" fill="#700A54"/>
<path d="M49.4569 44.8275L42.7952 35.8241L50.5604 30.0982L57.222 39.1016L55.9601 40.0322L49.8789 31.8133L50.4354 31.9198L44.5761 36.2404L44.6506 35.6686L50.7318 43.8874L49.4569 44.8275Z" fill="#700A54"/>
<path d="M70.919 30.8802C70.1304 31.2063 69.3408 31.3769 68.5503 31.3921C67.7696 31.4033 67.0348 31.2743 66.3457 31.0052C65.6525 30.7262 65.0351 30.3236 64.4934 29.7973C63.9517 29.271 63.5235 28.6285 63.2087 27.8699C62.894 27.1113 62.7418 26.3547 62.7521 25.6002C62.7624 24.8456 62.9159 24.13 63.2125 23.4533C63.5051 22.7668 63.9314 22.1519 64.4913 21.6087C65.0512 21.0656 65.7304 20.6289 66.5288 20.2988C67.3174 19.9727 68.0971 19.8062 68.8679 19.7991C69.6445 19.7781 70.3794 19.9071 71.0725 20.1861C71.7714 20.4511 72.3868 20.8488 72.9187 21.3792C73.4604 21.9055 73.8906 22.5529 74.2095 23.3213C74.5283 24.0898 74.6826 24.8513 74.6723 25.6059C74.6718 26.3563 74.5204 27.0768 74.2179 27.7675C73.9213 28.4442 73.493 29.0541 72.9331 29.5973C72.3789 30.1265 71.7075 30.5542 70.919 30.8802ZM70.3733 29.5649C70.945 29.3285 71.4315 29.012 71.8327 28.6152C72.2438 28.2144 72.5532 27.7632 72.7609 27.2618C72.9744 26.7465 73.0796 26.2067 73.0764 25.6424C73.0831 25.074 72.968 24.5041 72.7309 23.9327C72.4938 23.3613 72.1716 22.877 71.7643 22.4798C71.3669 22.0785 70.9122 21.776 70.4003 21.5721C69.8942 21.3543 69.3539 21.2487 68.7793 21.2555C68.2145 21.2582 67.6463 21.3777 67.0745 21.6141C66.493 21.8546 65.9966 22.1752 65.5855 22.576C65.1842 22.9728 64.8769 23.4288 64.6634 23.9442C64.4458 24.4497 64.3337 24.9866 64.327 25.555C64.3301 26.1192 64.4503 26.6871 64.6873 27.2585C64.9244 27.83 65.2417 28.3163 65.6391 28.7176C66.0464 29.1147 66.508 29.4202 67.024 29.6339C67.5359 29.8378 68.0742 29.9384 68.639 29.9358C69.2136 29.929 69.7917 29.8054 70.3733 29.5649Z" fill="#700A54"/>
<path d="M93.124 22.9943L91.7324 14.0459L86.8783 14.7982L87.1607 17.1345C87.2504 17.9194 87.314 18.6759 87.3517 19.404C87.3999 20.1305 87.4059 20.7934 87.3695 21.3928C87.3315 21.9815 87.2253 22.4783 87.0508 22.8832C86.8868 23.2864 86.6374 23.5571 86.3027 23.6953L84.5508 23.6754C84.9668 23.6433 85.2828 23.454 85.4988 23.1075C85.7237 22.7488 85.8665 22.2787 85.9272 21.6972C85.9968 21.1036 86.0103 20.4269 85.9677 19.6671C85.9235 18.8968 85.85 18.077 85.7472 17.2079L85.3046 13.6335L93.0838 12.4278L94.6893 22.7517L93.124 22.9943ZM84.7456 27.531L84.1713 23.7342L96.2195 21.8669L96.8096 25.6613L95.3391 25.8892L94.963 23.4703L85.8557 24.8818L86.2161 27.3031L84.7456 27.531Z" fill="#700A54"/>
<path d="M104.353 21.9491L110.275 11.1728L111.854 11.2946L116.063 22.8527L114.388 22.7234L110.668 12.1018L111.307 12.151L105.996 22.0759L104.353 21.9491ZM106.723 19.3237L107.253 18.0807L113.538 18.5657L113.902 19.8776L106.723 19.3237Z" fill="#700A54"/>
<path d="M125.09 23.7851L128.351 13.0703L132.531 14.338C133.47 14.6228 134.226 15.0137 134.8 15.5109C135.373 16.0081 135.753 16.5914 135.94 17.261C136.126 17.9306 136.101 18.6532 135.865 19.4288C135.629 20.2043 135.247 20.8186 134.719 21.2715C134.194 21.7142 133.553 21.988 132.797 22.0929C132.043 22.1876 131.197 22.0926 130.258 21.8077L126.92 20.7954L127.828 20.285L126.621 24.2495L125.09 23.7851ZM127.781 20.4381L127.325 19.4637L130.617 20.4621C131.597 20.7593 132.401 20.7745 133.028 20.5078C133.666 20.2442 134.101 19.7298 134.334 18.9644C134.567 18.1991 134.492 17.5298 134.109 16.9566C133.736 16.3866 133.06 15.9529 132.08 15.6557L128.788 14.6574L129.71 14.101L127.781 20.4381Z" fill="#700A54"/>
<path d="M143.183 28.0474C143.569 28.4937 143.991 28.789 144.448 28.933C144.91 29.0678 145.452 28.9603 146.074 28.6105L146.971 28.12L147.196 28.0439L154.608 23.1928L155.993 23.962L147.156 29.5955C146.487 30.0291 145.845 30.2826 145.23 30.3559C144.629 30.4251 144.07 30.3338 143.551 30.082C143.036 29.8448 142.584 29.4719 142.196 28.9634L143.183 28.0474ZM146.461 29.2645L146.677 18.7873L148.174 19.6187L147.853 28.5737L146.461 29.2645Z" fill="#700A54"/>
<path d="M171.678 35.083L172.866 36.1543L165.352 44.4601L164.164 43.3887L171.678 35.083ZM159.387 39.0818L158.198 38.0104L165.712 29.7047L166.9 30.7761L159.387 39.0818ZM167.62 39.7831L162.617 35.2727L163.551 34.2404L168.554 38.7508L167.62 39.7831Z" fill="#700A54"/>
<path d="M176.458 56.5482C175.981 55.8406 175.656 55.1013 175.484 54.3304C175.318 53.5684 175.298 52.8235 175.425 52.0957C175.561 51.362 175.833 50.678 176.241 50.0438C176.65 49.4095 177.195 48.8633 177.877 48.4053C178.559 47.9473 179.271 47.6488 180.013 47.5099C180.756 47.3709 181.488 47.3798 182.212 47.5365C182.944 47.6873 183.632 47.9831 184.276 48.424C184.921 48.8648 185.484 49.4435 185.967 50.1599C186.444 50.8675 186.763 51.5979 186.923 52.3511C187.099 53.1072 187.118 53.8521 186.983 54.5858C186.862 55.3224 186.594 56.0034 186.179 56.6288C185.771 57.2631 185.221 57.8122 184.531 58.2762C183.84 58.7401 183.123 59.0416 182.381 59.1806C181.644 59.3284 180.907 59.3225 180.169 59.1628C179.446 59.0061 178.762 58.7073 178.118 58.2665C177.488 57.8285 176.935 57.2557 176.458 56.5482ZM177.64 55.7541C177.986 56.2671 178.393 56.6808 178.862 56.9952C179.338 57.3185 179.842 57.5323 180.375 57.6366C180.924 57.7438 181.474 57.7401 182.027 57.6255C182.586 57.5198 183.123 57.2945 183.636 56.9495C184.15 56.6045 184.561 56.1934 184.87 55.7162C185.184 55.2478 185.391 54.743 185.489 54.2016C185.602 53.6631 185.598 53.1132 185.477 52.552C185.362 51.9997 185.131 51.467 184.785 50.954C184.434 50.4321 184.02 50.0096 183.545 49.6863C183.076 49.3718 182.567 49.161 182.019 49.0539C181.479 48.9407 180.93 48.937 180.371 49.0427C179.818 49.1573 179.285 49.3871 178.771 49.7321C178.258 50.077 177.844 50.4837 177.529 50.9521C177.22 51.4293 177.012 51.9415 176.905 52.4889C176.807 53.0303 176.816 53.5771 176.931 54.1295C177.052 54.6907 177.288 55.2322 177.64 55.7541Z" fill="#700A54"/>
<path d="M188.003 77.2607L191.721 71.5062L192.929 72.4342L188.651 78.9656L188.003 77.2607ZM185.325 70.2165L195.799 66.2485L196.356 67.7142L185.882 71.6822L185.325 70.2165ZM190.32 69.4876L191.637 68.9887L192.927 72.3837L191.611 72.8825L190.32 69.4876ZM192.143 72.8863L191.829 71.431L198.448 73.2179L199.056 74.8181L192.143 72.8863Z" fill="#700A54"/>
<path d="M196.174 92.2391L197.492 92.0761L198.022 96.3473L196.704 96.5104L196.174 92.2391Z" fill="#700A54"/>
</svg>
