<svg width="140" height="140" viewBox="0 0 140 140" fill="none" xmlns="http://www.w3.org/2000/svg">
<path d="M116.711 96.9363L120.438 99.056L119.394 98.8854L128.647 98.6071L127.8 100.095L119.998 100.315L120.457 99.5083L124.246 106.338L123.462 107.715L118.966 99.6363L119.654 100.433L115.927 98.3129L116.711 96.9363Z" fill="#700A54"/>
<path d="M108.998 107.056C109.568 106.421 110.206 105.925 110.912 105.569C111.61 105.221 112.328 105.019 113.066 104.964C113.811 104.916 114.542 105.012 115.257 105.252C115.973 105.492 116.637 105.886 117.249 106.434C117.861 106.982 118.325 107.599 118.642 108.284C118.959 108.968 119.13 109.68 119.156 110.419C119.189 111.165 119.071 111.904 118.801 112.636C118.532 113.368 118.108 114.056 117.532 114.699C116.962 115.335 116.331 115.822 115.64 116.162C114.949 116.517 114.231 116.719 113.486 116.767C112.741 116.831 112.014 116.738 111.306 116.49C110.59 116.25 109.922 115.852 109.302 115.297C108.683 114.742 108.214 114.122 107.897 113.437C107.573 112.76 107.398 112.045 107.372 111.291C107.346 110.552 107.468 109.817 107.738 109.085C108.009 108.368 108.429 107.691 108.998 107.056ZM110.059 108.006C109.646 108.467 109.344 108.963 109.154 109.494C108.957 110.034 108.874 110.574 108.903 111.117C108.934 111.674 109.073 112.206 109.319 112.714C109.559 113.229 109.91 113.693 110.37 114.106C110.831 114.519 111.331 114.816 111.87 114.998C112.402 115.188 112.942 115.264 113.492 115.226C114.042 115.204 114.575 115.065 115.09 114.81C115.597 114.564 116.058 114.21 116.471 113.749C116.891 113.281 117.2 112.777 117.397 112.237C117.587 111.706 117.666 111.161 117.636 110.604C117.613 110.054 117.482 109.521 117.242 109.006C116.996 108.498 116.642 108.038 116.181 107.625C115.72 107.213 115.224 106.911 114.692 106.721C114.153 106.539 113.605 106.464 113.048 106.494C112.498 106.532 111.969 106.674 111.462 106.921C110.947 107.176 110.479 107.537 110.059 108.006Z" fill="#700A54"/>
<path d="M99.7501 114.795C100.953 113.947 102.142 113.624 103.316 113.827C104.491 114.029 105.546 114.793 106.481 116.118L110.154 121.32L108.846 122.242L105.21 117.092C104.491 116.072 103.742 115.484 102.966 115.327C102.18 115.176 101.378 115.39 100.558 115.968C99.7302 116.552 99.26 117.236 99.1476 118.02C99.0265 118.81 99.3259 119.715 100.046 120.735L103.681 125.885L102.413 126.779L98.7405 121.577C97.8054 120.252 97.4392 119.003 97.6418 117.829C97.8357 116.661 98.5384 115.65 99.7501 114.795Z" fill="#700A54"/>
<path d="M93.5619 118.515L97.9363 128.826L93.9147 130.53C93.0112 130.913 92.1799 131.098 91.4207 131.084C90.6615 131.069 89.9955 130.865 89.4226 130.471C88.8497 130.076 88.405 129.506 88.0884 128.76C87.7717 128.014 87.6707 127.298 87.7853 126.612C87.9041 125.936 88.2222 125.32 88.7397 124.765C89.2573 124.21 89.9678 123.74 90.8713 123.357L94.0827 121.996L93.7073 122.955L92.0887 119.14L93.5619 118.515ZM86.6676 121.438L90.8771 124.067L89.3009 124.736L85.0619 122.118L86.6676 121.438ZM93.6448 122.807L94.6139 123.248L91.4467 124.591C90.5039 124.99 89.8773 125.493 89.5669 126.1C89.2508 126.72 89.249 127.399 89.5615 128.135C89.874 128.872 90.3611 129.337 91.023 129.532C91.675 129.73 92.4724 129.63 93.4152 129.23L96.5824 127.888L96.232 128.905L93.6448 122.807Z" fill="#700A54"/>
<path d="M71.5728 123.728C72.4349 123.671 73.237 123.757 73.979 123.986C74.7217 124.226 75.3759 124.584 75.9418 125.06C76.5083 125.546 76.9633 126.126 77.3069 126.798C77.6505 127.47 77.8496 128.221 77.9043 129.051C77.959 129.882 77.8601 130.652 77.6076 131.364C77.3551 132.075 76.9796 132.704 76.4811 133.25C75.9726 133.807 75.3656 134.248 74.6601 134.572C73.9552 134.907 73.1664 135.104 72.2936 135.161C71.4102 135.219 70.5918 135.129 69.8385 134.89C69.0851 134.65 68.4341 134.26 67.8854 133.719L68.81 132.664C69.2971 133.081 69.8188 133.373 70.3749 133.539C70.9211 133.717 71.5082 133.786 72.1362 133.744C72.7748 133.702 73.3638 133.557 73.9033 133.307C74.4321 133.059 74.8861 132.729 75.2653 132.32C75.6339 131.911 75.9125 131.433 76.1009 130.886C76.2795 130.35 76.3484 129.774 76.3077 129.156C76.2678 128.55 76.1239 127.987 75.8759 127.469C75.6181 126.962 75.2793 126.525 74.8595 126.157C74.4298 125.801 73.9366 125.534 73.3797 125.356C72.8229 125.179 72.2252 125.112 71.5865 125.154C70.9905 125.193 70.427 125.321 69.8961 125.538C69.3552 125.766 68.865 126.113 68.4254 126.58L67.4355 125.427C67.9581 124.922 68.5839 124.523 69.3129 124.229C70.0318 123.947 70.7852 123.779 71.5728 123.728ZM68.9819 125.534L69.2552 129.685L67.7225 129.785L67.4355 125.427L68.9819 125.534Z" fill="#700A54"/>
<path d="M64.5281 123.558L63.3536 134.696L61.7624 134.529L62.9369 123.391L64.5281 123.558Z" fill="#700A54"/>
<path d="M55.3117 127.911L49.735 126.407L50.0936 125.078L55.6703 126.582L55.3117 127.911ZM56.6959 122.169L58.2407 122.586L55.3218 133.399L47.6905 131.341L48.0532 129.997L54.1398 131.638L56.6959 122.169Z" fill="#700A54"/>
<path d="M46.229 118.302L41.9386 127.122L45.3923 128.8L44.7834 130.052L36.4513 126.003L37.0602 124.751L40.5139 126.43L44.8044 117.61L46.229 118.302Z" fill="#700A54"/>
<path d="M32.4184 113.638L31.5236 114.62L28.3421 111.721L29.2369 110.74L32.4184 113.638Z" fill="#700A54"/>
<path d="M23.5731 97.2898L19.8925 99.4898L20.555 98.665L16.2433 106.853L15.3643 105.384L19.0129 98.4871L19.4893 99.2834L11.6759 99.2191L10.8626 97.8598L20.1114 97.9236L19.0792 98.1305L22.7598 95.9305L23.5731 97.2898Z" fill="#700A54"/>
<path d="M18.5531 85.5985C18.8262 86.407 18.944 87.2059 18.9066 87.9953C18.8658 88.7746 18.6881 89.4987 18.3737 90.1677C18.0491 90.8401 17.6061 91.4286 17.0447 91.9332C16.4833 92.4378 15.8135 92.8214 15.0353 93.084C14.257 93.3465 13.4917 93.4472 12.7391 93.3858C11.9866 93.3245 11.2825 93.1231 10.6267 92.7815C9.96083 92.4432 9.3754 91.9766 8.87044 91.3814C8.36547 90.7863 7.97477 90.0795 7.69832 89.2609C7.42528 88.4524 7.31088 87.6636 7.3551 86.8944C7.3858 86.1186 7.56344 85.3944 7.88804 84.722C8.19911 84.043 8.63704 83.4562 9.20184 82.9616C9.76323 82.457 10.4381 82.0717 11.2264 81.8058C12.0148 81.5398 12.7852 81.4374 13.5377 81.4988C14.2868 81.55 14.996 81.7497 15.6653 82.098C16.3211 82.4396 16.9015 82.908 17.4064 83.5032C17.8979 84.0916 18.2801 84.79 18.5531 85.5985ZM17.2039 86.0538C17.0059 85.4676 16.7223 84.961 16.3529 84.5341C15.9801 84.097 15.5503 83.7579 15.0636 83.5168C14.5634 83.2691 14.0315 83.1277 13.468 83.0927C12.9011 83.0475 12.3246 83.1239 11.7384 83.3216C11.1522 83.5194 10.6473 83.808 10.2237 84.1873C9.79674 84.5565 9.46447 84.9894 9.2269 85.4861C8.97581 85.9761 8.83451 86.5078 8.80302 87.0813C8.76812 87.6447 8.84964 88.2195 9.04759 88.8056C9.24895 89.4019 9.53603 89.9186 9.90881 90.3557C10.2782 90.7826 10.713 91.12 11.2132 91.3678C11.7033 91.6189 12.2319 91.7671 12.7988 91.8122C13.3623 91.8472 13.9371 91.7659 14.5233 91.5681C15.1095 91.3703 15.6161 91.0868 16.0431 90.7176C16.4667 90.3383 16.8023 89.8986 17.05 89.3985C17.2875 88.9018 17.4238 88.3718 17.4587 87.8084C17.4902 87.2349 17.4052 86.65 17.2039 86.0538Z" fill="#700A54"/>
<path d="M16.3611 73.7418C16.508 75.2064 16.2043 76.4 15.45 77.3225C14.6956 78.245 13.5118 78.7871 11.8986 78.9488L5.5623 79.5838L5.40259 77.9918L11.6752 77.3631C12.917 77.2387 13.7973 76.8771 14.3161 76.2784C14.8338 75.669 15.0427 74.8655 14.9426 73.8679C14.8415 72.8596 14.4772 72.1135 13.8497 71.6297C13.2212 71.1352 12.2861 70.9502 11.0443 71.0747L4.77176 71.7033L4.61684 70.1591L10.9531 69.5241C12.5664 69.3624 13.8343 69.6588 14.7568 70.4132C15.6784 71.157 16.2131 72.2665 16.3611 73.7418Z" fill="#700A54"/>
<path d="M16.1659 66.5275L5.03798 65.2593L5.53259 60.9194C5.64371 59.9444 5.8922 59.1299 6.27806 58.4761C6.66391 57.8222 7.16942 57.3431 7.79459 57.0386C8.41976 56.7341 9.13507 56.6277 9.94052 56.7195C10.746 56.8113 11.419 57.0759 11.9596 57.5132C12.4896 57.9494 12.8691 58.5294 13.0979 59.2533C13.3267 59.9772 13.3856 60.8267 13.2745 61.8017L12.8795 65.2673L12.2298 64.4686L16.3471 64.9378L16.1659 66.5275ZM17.0139 59.0877L12.6535 61.4572L12.8474 59.7562L17.2113 57.3549L17.0139 59.0877ZM12.3887 64.4867L11.5283 65.1133L11.9178 61.6954C12.0337 60.678 11.904 59.8849 11.5287 59.316C11.144 58.7354 10.5542 58.3998 9.75934 58.3092C8.96449 58.2186 8.3196 58.4135 7.82469 58.8939C7.33098 59.3637 7.02616 60.1073 6.9102 61.1247L6.52067 64.5426L5.80735 63.7366L12.3887 64.4867Z" fill="#700A54"/>
<path d="M22.4505 44.8254C22.0754 45.6038 21.6055 46.2595 21.0408 46.7926C20.4664 47.3211 19.8328 47.7146 19.14 47.973C18.4375 48.2267 17.7091 48.3378 16.9547 48.3061C16.2004 48.2744 15.4484 48.0781 14.6987 47.7172C13.9491 47.3563 13.3267 46.891 12.8316 46.3212C12.3366 45.7514 11.9741 45.1152 11.7443 44.4127C11.5095 43.6959 11.4246 42.9506 11.4896 42.1769C11.545 41.3986 11.7625 40.6154 12.1422 39.8275C12.5265 39.0299 13.0082 38.362 13.5871 37.8239C14.1661 37.2858 14.8262 36.911 15.5675 36.6996L16.0307 38.0236C15.4279 38.2425 14.9172 38.553 14.4984 38.9552C14.0747 39.3431 13.7262 39.8205 13.453 40.3875C13.1752 40.964 13.012 41.5484 12.9635 42.1406C12.9195 42.7232 12.9826 43.2804 13.1526 43.8121C13.3273 44.3342 13.6063 44.8118 13.9896 45.245C14.3679 45.6639 14.8358 46.0075 15.3933 46.2758C15.9411 46.5396 16.5016 46.691 17.0747 46.7301C17.6429 46.7551 18.1905 46.6753 18.7174 46.491C19.2393 46.2924 19.7145 45.9943 20.1429 45.5968C20.5712 45.1993 20.9243 44.7122 21.2021 44.1357C21.4614 43.5975 21.6275 43.0441 21.7002 42.4754C21.768 41.8924 21.7067 41.2947 21.5164 40.6822L23.008 40.3881C23.1901 41.0913 23.2296 41.8325 23.1265 42.6115C23.0185 43.3764 22.7931 44.1143 22.4505 44.8254ZM22.1538 41.6816L18.4055 39.8771L19.0723 38.4934L23.008 40.3881L22.1538 41.6816Z" fill="#700A54"/>
<path d="M26.066 38.7811L16.9463 32.2794L17.8757 30.977L26.9954 37.4787L26.066 38.7811Z" fill="#700A54"/>
<path d="M26.8142 28.6209L30.8695 24.508L31.8498 25.4737L27.7944 29.5866L26.8142 28.6209ZM31.1326 32.6503L30.0092 33.7896L22.0302 25.9298L27.5797 20.3016L28.5714 21.2784L24.1453 25.7673L31.1326 32.6503Z" fill="#700A54"/>
<path d="M39.653 25.4483L34.0836 17.375L30.9218 19.5541L30.1314 18.4083L37.7593 13.1512L38.5497 14.297L35.3879 16.4761L40.9573 24.5494L39.653 25.4483Z" fill="#700A54"/>
<path d="M50.5128 15.7302L50.0986 14.4684L54.1882 13.1271L54.6025 14.3888L50.5128 15.7302Z" fill="#700A54"/>
<path d="M69.1022 16.0836L68.9976 11.7969L69.3897 12.7796L64.3822 4.99538L66.0937 4.95365L70.3033 11.525L69.3756 11.5476L73.2756 4.77853L74.8591 4.73992L70.2534 12.7586L70.5811 11.7583L70.6857 16.045L69.1022 16.0836Z" fill="#700A54"/>
<path d="M81.7527 17.4697C80.9146 17.3094 80.1611 17.0188 79.4924 16.5977C78.8341 16.1786 78.2911 15.6675 77.8635 15.0645C77.438 14.451 77.1437 13.7757 76.9806 13.0386C76.8176 12.3015 76.8133 11.5297 76.9677 10.723C77.1221 9.91627 77.4112 9.20049 77.8349 8.57561C78.2585 7.95073 78.7804 7.43694 79.4005 7.03423C80.0226 6.62105 80.717 6.34114 81.4835 6.19451C82.2501 6.04787 83.0577 6.05569 83.9063 6.21796C84.7445 6.37823 85.4874 6.66691 86.1352 7.084C86.7955 7.49261 87.3385 8.00368 87.7641 8.6172C88.2021 9.22224 88.4974 9.89229 88.65 10.6274C88.813 11.3644 88.8163 12.1415 88.6599 12.9587C88.5035 13.7759 88.2134 14.4969 87.7897 15.1218C87.3765 15.7487 86.8536 16.2677 86.2211 16.6789C85.601 17.0816 84.9076 17.3562 84.1411 17.5029C83.387 17.641 82.5909 17.63 81.7527 17.4697ZM82.0204 16.0711C82.6281 16.1873 83.2086 16.1897 83.7621 16.0783C84.3261 15.969 84.8327 15.7618 85.2821 15.4568C85.7439 15.1432 86.1287 14.7499 86.4365 14.2766C86.7548 13.8053 86.9721 13.2658 87.0884 12.6582C87.2047 12.0506 87.2019 11.469 87.0802 10.9136C86.9689 10.3602 86.7555 9.85786 86.4401 9.40658C86.1371 8.94683 85.7437 8.5621 85.26 8.2524C84.7867 7.94471 84.2463 7.73277 83.6386 7.61657C83.0205 7.49837 82.4294 7.49396 81.8655 7.60332C81.312 7.71468 80.8044 7.92712 80.3425 8.24063C79.8827 8.54365 79.4937 8.93081 79.1754 9.40209C78.8676 9.87537 78.6556 10.4158 78.5393 11.0235C78.423 11.6311 78.4204 12.2116 78.5317 12.765C78.6535 13.3205 78.8711 13.829 79.1845 14.2908C79.5 14.7421 79.8944 15.1216 80.3676 15.4293C80.8514 15.739 81.4023 15.9529 82.0204 16.0711Z" fill="#700A54"/>
<path d="M93.1567 21.3975C91.8093 20.8047 90.9197 19.9531 90.488 18.8425C90.0563 17.732 90.1672 16.4348 90.8206 14.951L93.387 9.12302L94.8515 9.76733L92.3109 15.5367C91.808 16.6789 91.6894 17.6231 91.9552 18.3693C92.2307 19.1198 92.8274 19.6969 93.7452 20.1007C94.6727 20.5088 95.5015 20.5587 96.2316 20.2507C96.9715 19.9469 97.5929 19.2239 98.0958 18.0817L100.636 12.3124L102.057 12.9373L99.4906 18.7653C98.8372 20.2491 97.955 21.207 96.8441 21.6388C95.7429 22.075 94.5138 21.9945 93.1567 21.3975Z" fill="#700A54"/>
<path d="M99.5377 24.7772L106.12 15.716L109.656 18.2817C110.45 18.8581 111.036 19.4751 111.416 20.1326C111.795 20.7901 111.963 21.4658 111.921 22.1597C111.878 22.8537 111.619 23.5286 111.142 24.1844C110.666 24.8403 110.104 25.2959 109.457 25.5512C108.816 25.798 108.124 25.8428 107.381 25.6858C106.639 25.5288 105.87 25.1621 105.076 24.5857L102.253 22.5369L103.268 22.3644L100.833 25.7171L99.5377 24.7772ZM105.598 29.1756L105.681 24.2148L107.067 25.2204L107.009 30.2L105.598 29.1756ZM103.174 22.4938L103.052 21.4366L105.836 23.4572C106.665 24.0587 107.419 24.336 108.099 24.2892C108.794 24.2401 109.377 23.8918 109.847 23.2446C110.317 22.5974 110.465 21.9402 110.291 21.2731C110.125 20.6123 109.627 19.9811 108.799 19.3797L106.015 17.3591L107.067 17.1347L103.174 22.4938Z" fill="#700A54"/>
<path d="M115.347 40.9224C114.854 40.213 114.514 39.4814 114.328 38.7277C114.15 37.9679 114.119 37.223 114.235 36.493C114.36 35.7569 114.622 35.0685 115.021 34.4277C115.42 33.7869 115.961 33.2292 116.644 32.7545C117.328 32.2798 118.039 31.9673 118.779 31.8169C119.519 31.6666 120.252 31.6643 120.976 31.81C121.716 31.9585 122.407 32.2513 123.049 32.6886C123.7 33.1198 124.275 33.6944 124.774 34.4126C125.279 35.1394 125.624 35.8872 125.808 36.6557C125.991 37.4243 125.993 38.1831 125.812 38.9321L124.431 38.6836C124.537 38.0515 124.518 37.4542 124.374 36.892C124.245 36.3324 124 35.7942 123.641 35.2776C123.276 34.7521 122.847 34.3225 122.355 33.9889C121.869 33.6639 121.353 33.4446 120.806 33.3309C120.266 33.226 119.712 33.2337 119.146 33.3541C118.595 33.4771 118.066 33.7151 117.558 34.0681C117.058 34.415 116.651 34.8282 116.334 35.3076C116.033 35.7897 115.833 36.3054 115.734 36.8546C115.65 37.4064 115.676 37.9665 115.811 38.5349C115.947 39.1032 116.197 39.6501 116.562 40.1756C116.903 40.666 117.304 41.0828 117.763 41.426C118.237 41.7718 118.788 42.0127 119.415 42.1485L118.937 43.591C118.235 43.4034 117.57 43.0731 116.943 42.6C116.33 42.1296 115.798 41.5704 115.347 40.9224ZM118.231 42.2113L121.648 39.8378L122.525 41.0989L118.937 43.591L118.231 42.2113Z" fill="#700A54"/>
<path d="M118.835 47.0421L128.985 42.3074L129.662 43.7572L119.512 48.4919L118.835 47.0421Z" fill="#700A54"/>
<path d="M127.316 52.6938L128.902 58.2476L127.579 58.6252L125.992 53.0714L127.316 52.6938ZM121.682 54.4678L121.243 52.9293L132.013 49.8558L134.184 57.4558L132.845 57.8378L131.114 51.7763L121.682 54.4678Z" fill="#700A54"/>
<path d="M123.763 65.4272L133.532 64.5549L133.19 60.7302L134.577 60.6064L135.401 69.8336L134.015 69.9574L133.673 66.1326L123.904 67.0049L123.763 65.4272Z" fill="#700A54"/>
<path d="M126.882 79.6595L128.184 79.92L127.339 84.1402L126.037 83.8798L126.882 79.6595Z" fill="#700A54"/>
<path d="M33.6158 114.641L32.7479 115.646L29.489 112.834L30.357 111.829L33.6158 114.641Z" fill="#700A54"/>
</svg>
