<svg width="1961" height="1374" viewBox="0 0 1961 1374" fill="none" xmlns="http://www.w3.org/2000/svg">
<path d="M888.369 141.91C900.968 133.8 927.326 131.385 967.651 140.487C1036.74 156.077 1068.78 192.153 1072.59 228.571C1076.37 264.715 1076.06 301.381 1075.71 342.649L1075.68 346.728C1075.34 388.291 1075.1 434.509 1081.01 481.486C1089.86 551.861 1107.4 661.598 1226.65 710.688C1253.5 721.75 1290.95 729.383 1325.16 732.838C1357.8 736.138 1400.74 737.084 1434.77 725.781C1502.6 703.235 1533.77 647.833 1549.63 603.251C1557.61 580.793 1562.83 558.086 1566.84 539.229C1568.05 533.521 1569.12 528.342 1570.1 523.579C1572.69 511.076 1574.68 501.423 1577.1 492.568C1589.01 448.932 1611.98 386.761 1645.45 345.936C1661.67 326.147 1676.86 315.709 1690.14 311.604C1701.58 308.069 1718.47 307.022 1744.85 320.029C1787.81 341.227 1812.7 378.94 1822.33 425.561C1832.26 473.598 1824.79 527.437 1804.98 569.624C1743.55 700.418 1594.98 770.249 1412.63 807.224C1337.63 822.438 1263.18 830.957 1185.58 839.832H1185.57C1148.12 844.118 1109.93 848.485 1070.59 853.731C1008.69 861.982 936.219 873.238 868.67 895.697C801.268 918.102 732.504 953.648 683.641 1014.69C648.457 1058.66 631.556 1110.37 640.879 1164.93C649.82 1217.23 681.151 1262.11 721.725 1298.87C761.393 1334.81 818.619 1352.28 872.173 1361.69C928.097 1371.51 991.532 1374.38 1053.55 1373.28C1177.08 1371.09 1305.03 1352.89 1374.79 1334.69C1472.68 1309.17 1763.21 1247.93 1860.94 1236.85L1927.63 1229.29L1912.5 1095.99L1845.81 1103.55C1738.94 1115.66 1441.41 1178.67 1340.9 1204.88C1283.21 1219.92 1166.07 1237.1 1051.17 1239.14C993.962 1240.16 939.837 1237.35 895.403 1229.55C848.594 1221.33 822.653 1209.23 811.893 1199.48C784.784 1174.91 775.394 1155.17 773.206 1142.34C771.4 1131.78 772.964 1117.87 788.469 1098.5C814.746 1065.67 856.246 1041.22 911.036 1023C965.678 1004.84 1027.34 994.849 1088.35 986.712C1122.31 982.184 1157.62 978.133 1193.64 974H1193.66H1193.67C1274.37 964.743 1358.62 955.077 1439.33 938.709C1629.68 900.104 1836.24 818.822 1926.5 626.622C1958.05 559.447 1969.86 476.16 1953.8 398.42C1937.44 319.258 1891.05 242.538 1804.26 199.727C1751.45 173.672 1699.13 168.413 1650.51 183.419C1603.73 197.868 1568 228.726 1541.62 260.904C1489.88 324.007 1460.93 408.408 1447.6 457.25C1443.97 470.552 1440.74 486.209 1437.9 499.96L1437.89 500.007C1437.07 503.992 1436.28 507.815 1435.52 511.377C1431.77 529.06 1428.02 544.596 1423.14 558.321C1413.24 586.132 1403.07 594.933 1392.41 598.468C1386.61 600.4 1367.46 602.272 1338.66 599.361C1311.42 596.604 1288.1 590.895 1277.77 586.642C1235.06 569.054 1223.14 535.795 1214.19 464.743C1209.56 427.875 1209.56 390.156 1209.91 347.834L1209.97 341.348C1210.31 302.058 1210.69 258.503 1206.1 214.619C1193.83 97.3546 1095.1 31.7025 997.217 9.61954C952.16 -0.549915 877.328 -10.565 815.672 29.1267C749.734 71.5754 710.127 135.919 691.051 199.277C663.68 290.185 643.329 377.772 625.751 469.459C616.246 519.018 605.259 568.879 592.634 617.452C591.835 620.531 591.003 623.979 590.271 626.978L589.848 628.735C588.956 632.384 588.11 635.806 587.197 639.207C586.385 642.232 585.579 645.009 584.781 647.531L584.626 647.377C574.136 637.161 564.839 621.242 560.114 609.637C543.052 567.712 536.656 522.426 528.857 467.218C527.971 460.986 527.078 454.627 526.145 448.134C517.473 387.821 505.687 316.689 468.228 250.701C435.144 192.415 371.045 120.424 267.392 120.424C200.614 120.424 149.202 155.909 114.474 192.629C79.6284 229.484 55.3271 273.777 40.9568 308.243C-10.438 431.491 -0.595602 566.236 7.42184 675.987L7.4225 675.994C7.88428 682.313 8.33936 688.551 8.77698 694.696C18.2697 828.086 68.5389 956.687 113.134 1070.78L113.139 1070.79C116.908 1080.43 120.636 1089.97 124.296 1099.4L148.57 1161.94L273.722 1113.42L249.448 1050.88C246.189 1042.48 242.935 1034.13 239.696 1025.81C193.561 907.403 150.656 797.283 142.678 685.177L142.091 676.94C133.615 558.186 126.095 452.829 164.866 359.849C175.032 335.471 191.51 306.492 212.039 284.785C232.687 262.944 251.246 254.585 267.392 254.585C300.14 254.585 328.471 276.38 351.466 316.903C375.193 358.701 384.61 406.98 393.268 467.211C394.161 473.43 395.047 479.823 395.96 486.363C403.309 539.249 412.001 601.782 435.762 660.183C445.226 683.433 463.522 716.739 490.901 743.43C518.406 770.236 565.645 799.423 625.341 783.853C673.607 771.269 695.676 730.92 705.126 708.769C713.449 689.276 718.832 666.723 721.416 655.89C721.899 653.884 722.282 652.281 722.571 651.167C736.021 599.374 747.626 546.655 757.587 494.708C774.514 406.443 793.845 323.471 819.599 237.936C831.452 198.566 854.534 163.697 888.369 141.91Z" fill="white" fill-opacity="0.1"/>
</svg>
